<?xml version="1.0" encoding="utf-8"?>
<!-- Generator: Adobe Illustrator 26.5.3, SVG Export Plug-In . SVG Version: 6.00 Build 0)  -->
<svg version="1.1" id="Layer_1" xmlns="http://www.w3.org/2000/svg" xmlns:xlink="http://www.w3.org/1999/xlink" x="0px" y="0px"
	 viewBox="0 0 80 80" style="enable-background:new 0 0 80 80;" xml:space="preserve">
<style type="text/css">
	.st0{fill:#101010;}
	.st1{fill:#FF0000;}
	.st2{fill:#FFFFFF;}
	.st3{fill-rule:evenodd;clip-rule:evenodd;}
	.st4{fill:#A72369;}
	.st5{fill-rule:evenodd;clip-rule:evenodd;fill:#FF0000;}
	.st6{fill:#FFFDFD;}
	.st7{fill:#FF0000;stroke:#FF0000;stroke-width:1.0698;stroke-miterlimit:10;}
	.st8{fill:#F9AB00;}
	.st9{fill:#E37400;}
	.st10{fill:#767676;}
	.st11{fill:#EE6436;}
	.st12{fill:#A4286A;}
	.st13{fill:#77B227;stroke:#FFFFFF;stroke-width:0.75;stroke-miterlimit:10;}
	.st14{fill:#0481F9;}
</style>
<path class="st1" d="M76.99,60.14L65.52,48.68c-0.1-0.1-0.21-0.18-0.32-0.26c1.05-1.93,1.65-4.15,1.65-6.51
	c0.11-7.64-6-13.75-13.53-13.75c-3.6,0-7.09,1.42-9.71,4.04c-2.62,2.62-4.04,6-4.04,9.71c0,7.53,6.11,13.64,13.64,13.64
	c2.26,0,4.38-0.56,6.26-1.53c0.09,0.14,0.2,0.27,0.32,0.39l11.63,11.61c1.5,1.5,3.92,1.5,5.42,0l0.16-0.16
	C78.57,64.29,78.57,61.72,76.99,60.14z M53.37,51.95c-5.49,0-9.93-4.45-9.93-9.93c0-5.49,4.45-9.93,9.93-9.93
	c5.49,0,9.93,4.45,9.93,9.93C63.3,47.51,58.85,51.95,53.37,51.95z"/>
<path d="M72.56,23.09v-7.61c0-2.72-2.21-4.93-4.93-4.93H9.77c-2.72,0-4.93,2.2-4.93,4.93v7.26c0,0.13,0.01,0.25,0.04,0.37v36.3
	c0,2.26,1.92,4.17,4.29,4.17h22.18v4.3h-4.59c-1.28,0-2.32,1.04-2.32,2.32v3.51h31.21v-3.51c0-1.28-1.04-2.32-2.32-2.32h-6.39v-4.3
	H64.1l-5.75-5.64c-1.58,0.56-3.27,0.79-5.08,0.79c-4.4,0-8.46-1.69-11.62-4.85c-3.16-3.05-4.85-7.22-4.85-11.62
	c0-4.4,1.69-8.46,4.85-11.62c3.05-3.16,7.22-4.85,11.62-4.85c4.4,0,8.46,1.69,11.62,4.85c3.05,3.05,4.85,7.22,4.85,11.62
	c0,1.8-0.23,3.5-0.79,5.08l3.61,3.84L72.56,23.09L72.56,23.09z"/>
<path class="st2" d="M34.3,24.36H12.32c-0.9,0-1.64-0.73-1.64-1.64v0c0-0.9,0.73-1.64,1.64-1.64H34.3c0.9,0,1.64,0.73,1.64,1.64v0
	C35.94,23.63,35.2,24.36,34.3,24.36z"/>
<path class="st2" d="M34.3,31.04H12.32c-0.9,0-1.64-0.73-1.64-1.64v0c0-0.9,0.73-1.64,1.64-1.64H34.3c0.9,0,1.64,0.73,1.64,1.64v0
	C35.94,30.31,35.2,31.04,34.3,31.04z"/>
<path class="st2" d="M30.29,37.72H12.32c-0.9,0-1.64-0.73-1.64-1.64v0c0-0.9,0.73-1.64,1.64-1.64h17.97c0.9,0,1.64,0.73,1.64,1.64v0
	C31.93,36.99,31.2,37.72,30.29,37.72z"/>
</svg>
