<?xml version="1.0" encoding="utf-8"?>
<!-- Generator: Adobe Illustrator 26.5.3, SVG Export Plug-In . SVG Version: 6.00 Build 0)  -->
<svg version="1.1" id="Layer_1" xmlns="http://www.w3.org/2000/svg" xmlns:xlink="http://www.w3.org/1999/xlink" x="0px" y="0px"
	 viewBox="0 0 80 80" style="enable-background:new 0 0 80 80;" xml:space="preserve">
<style type="text/css">
	.st0{fill:#101010;}
	.st1{fill:#FF0000;}
	.st2{fill:#FFFFFF;}
	.st3{fill-rule:evenodd;clip-rule:evenodd;}
	.st4{fill:#A72369;}
	.st5{fill-rule:evenodd;clip-rule:evenodd;fill:#FF0000;}
	.st6{fill:#FFFDFD;}
	.st7{fill:#FF0000;stroke:#FF0000;stroke-width:1.0698;stroke-miterlimit:10;}
	.st8{fill:#F9AB00;}
	.st9{fill:#E37400;}
	.st10{fill:#767676;}
	.st11{fill:#EE6436;}
	.st12{fill:#A4286A;}
	.st13{fill:#77B227;stroke:#FFFFFF;stroke-width:0.75;stroke-miterlimit:10;}
	.st14{fill:#0481F9;}
</style>
<g>
	<path class="st8" d="M18.11,37.44c0-2.83,0.03-5.67-0.02-8.5c-0.02-1.25,0.45-2.17,1.43-2.88c0.18-0.13,0.41-0.17,0.6-0.22
		c1.12-0.3,2.14-0.13,2.96,0.8c0.36,0.41,0.62,0.88,0.74,1.39c0.05,0.22,0.04,0.52,0.04,0.79c0,5.78,0,11.56-0.01,17.34
		c0,0.81-0.07,1.63-0.49,2.36c-0.09,0.16-0.25,0.29-0.39,0.41c-0.57,0.51-1.23,0.83-2.01,0.83c-1.02,0-1.75-0.49-2.33-1.29
		c-0.46-0.63-0.54-1.34-0.52-2.09c0.02-1.07,0-2.13,0-3.2C18.11,41.27,18.11,39.35,18.11,37.44z"/>
	<path class="st9" d="M10.57,42.15c0-1.57-0.01-3.14,0-4.71c0-0.56,0.29-1.03,0.61-1.47c0.88-1.23,2.63-1.4,3.77-0.71
		c0.72,0.43,1.15,1.07,1.25,1.97c0.31,3.02,0.04,6.04,0.14,9.06c0.02,0.74-0.11,1.46-0.48,2.09c-0.31,0.52-0.72,0.98-1.38,1.11
		c-0.19,0.04-0.35,0.17-0.56,0.2c-0.82,0.13-1.59-0.05-2.21-0.53c-0.37-0.29-0.71-0.7-0.89-1.22c-0.24-0.68-0.23-1.36-0.23-2.05
		c0-1.25,0-2.5,0-3.75C10.58,42.15,10.58,42.15,10.57,42.15z"/>
	<path class="st10" d="M35.85,30c0.76,0,1.51,0,2.27,0c0.17,0,0.24,0.03,0.27,0.24c0.4,2.77-1.4,5.16-3.98,5.65
		c-3.05,0.57-5.92-1.55-6.51-4.2c-0.36-1.58,0-3.02,0.94-4.33c0.63-0.88,1.49-1.47,2.45-1.91c0.65-0.3,1.37-0.33,2.09-0.36
		c0.52-0.02,1.02-0.01,1.49,0.19c0.72,0.32,1.43,0.67,2.01,1.23c0.09,0.09,0.12,0.14,0.01,0.24c-0.26,0.23-0.51,0.46-0.74,0.71
		c-0.14,0.16-0.24,0.13-0.4,0.03c-0.49-0.33-1.01-0.61-1.61-0.74c-0.69-0.14-1.35-0.1-2.02,0.11c-1.4,0.44-2.24,1.44-2.58,2.78
		c-0.48,1.84,0.3,3.66,2.06,4.59c0.49,0.26,1.01,0.38,1.55,0.45c1.24,0.16,2.87-0.74,3.43-1.86c0.13-0.27,0.21-0.55,0.28-0.84
		c0.05-0.21,0-0.33-0.27-0.33c-0.99,0.02-1.97,0-2.96,0.01c-0.26,0-0.34-0.07-0.33-0.32c0.02-0.34,0.02-0.69,0-1.03
		c-0.01-0.24,0.06-0.32,0.3-0.31C34.36,30.01,35.1,30,35.85,30z"/>
	<path class="st10" d="M54.34,36.79c0.39-0.15,0.76-0.29,1.13-0.44c0.16-0.07,0.24-0.05,0.34,0.12c0.48,0.81,1.24,1.23,2.19,0.97
		c0.7-0.19,1.17-0.76,1.25-1.49c0.03-0.26,0.06-0.52,0.05-0.78c0-0.06,0.03-0.15-0.04-0.19c-0.1-0.05-0.13,0.06-0.19,0.1
		c-0.52,0.43-1.09,0.73-1.8,0.7c-1.15-0.04-1.99-0.62-2.61-1.54c-0.71-1.05-0.82-2.22-0.35-3.37c0.42-1.04,1.22-1.77,2.34-2.01
		c0.76-0.16,1.53-0.11,2.2,0.38c0.06,0.05,0.13,0.1,0.2,0.13c0.17,0.06,0.36,0.1,0.31-0.19c-0.06-0.36,0.08-0.46,0.43-0.42
		c0.34,0.04,0.79-0.14,0.99,0.08c0.17,0.19,0.06,0.63,0.06,0.96c0,1.74,0,3.48,0,5.23c0,0.89-0.12,1.75-0.63,2.5
		c-0.43,0.64-1.04,1-1.81,1.17c-0.43,0.09-0.85,0.15-1.27,0.1c-0.87-0.11-1.67-0.41-2.22-1.17C54.72,37.37,54.49,37.12,54.34,36.79z
		 M59.37,32.36c0.05-0.21-0.02-0.46-0.07-0.7c-0.19-0.93-1.2-1.61-2.08-1.4c-0.87,0.21-1.44,0.97-1.51,1.92
		c-0.08,1.24,0.64,2.07,1.37,2.28c0.23,0.07,0.45,0.12,0.7,0.07C58.79,34.32,59.41,33.43,59.37,32.36z"/>
	<path class="st10" d="M27.13,50.01c0.27-1.15,0.79-2.17,1.18-3.25c0.47-1.33,1-2.63,1.49-3.96c0.25-0.69,0.51-1.38,0.8-2.06
		c0.07-0.15,0.15-0.21,0.31-0.2c0.29,0.01,0.57,0.01,0.86,0c0.18-0.01,0.26,0.06,0.32,0.23c0.5,1.34,1.02,2.68,1.53,4.02
		c0.35,0.93,0.71,1.85,1.05,2.78c0.28,0.76,0.56,1.53,0.84,2.28c0.05,0.14,0,0.16-0.11,0.16c-0.34,0-0.69,0-1.03,0
		c-0.14,0-0.22-0.08-0.26-0.23c-0.13-0.59-0.26-1.18-0.62-1.69c-0.01-0.02-0.02-0.04-0.02-0.06c-0.06-0.19-0.01-0.48-0.18-0.56
		c-0.19-0.09-0.45-0.04-0.67-0.04c-1,0-2,0-2.99,0c-0.19,0-0.31,0.03-0.38,0.24c-0.24,0.69-0.52,1.37-0.76,2.06
		c-0.07,0.21-0.16,0.31-0.4,0.3C27.77,49.99,27.47,50.01,27.13,50.01z M31.31,42.09c-0.21,0.24-0.24,0.51-0.32,0.75
		c-0.39,1.07-0.77,2.15-1.16,3.23c-0.05,0.15-0.1,0.25,0.14,0.25c0.9-0.01,1.81-0.01,2.71,0c0.22,0,0.22-0.08,0.15-0.25
		c-0.11-0.27-0.21-0.55-0.32-0.82C32.12,44.21,31.73,43.17,31.31,42.09z"/>
	<path class="st9" d="M3.07,46.84c-0.09-1.53,1.32-2.76,2.5-2.83c0.92-0.06,1.83,0.14,2.5,0.91c0.41,0.47,0.74,1.03,0.76,1.59
		c0.05,1.9-1.28,3.23-3.02,3.25C4.66,49.76,2.9,48.59,3.07,46.84z"/>
	<path class="st10" d="M42.41,35.86c-1.9,0.05-3.52-1.55-3.47-3.56c0.04-1.75,1.36-3.52,3.74-3.4c1.84,0.1,3.28,1.45,3.26,3.5
		C45.93,34.51,44.22,35.91,42.41,35.86z M44.37,32.34c0.01-0.22-0.04-0.5-0.11-0.79c-0.3-1.25-2.07-1.8-3.08-0.8
		c-0.89,0.89-0.89,2.31-0.02,3.19c0.4,0.41,0.91,0.69,1.5,0.59C43.76,34.35,44.37,33.57,44.37,32.34z"/>
	<path class="st10" d="M50.02,35.86c-1.86,0.06-3.49-1.55-3.47-3.52c0.02-1.79,1.46-3.59,3.73-3.43c1.69,0.12,3.34,1.19,3.24,3.61
		C53.44,34.56,51.82,35.9,50.02,35.86z M50,34.55c0.78,0,1.57-0.51,1.82-1.23c0.16-0.46,0.23-0.93,0.13-1.43
		c-0.15-0.72-0.51-1.27-1.21-1.53c-0.67-0.25-1.3-0.16-1.86,0.31c-0.61,0.51-0.98,1.45-0.7,2.36C48.44,33.88,49.25,34.55,50,34.55z"
		/>
	<path class="st10" d="M67.52,35.86c-1.57,0-2.97-1.2-3.23-2.88c-0.27-1.73,0.47-3.42,2.32-3.95c1.48-0.43,2.91,0.09,3.75,1.79
		c0.37,0.74,0.35,0.74-0.41,1.06c-1.22,0.5-2.43,1.01-3.65,1.5c-0.25,0.1-0.3,0.17-0.11,0.39c0.86,1.05,2.23,1.05,3.11-0.03
		c0.17-0.21,0.27-0.2,0.46-0.06c0.24,0.18,0.49,0.35,0.74,0.49c0.19,0.11,0.2,0.2,0.05,0.36C69.77,35.39,68.83,35.89,67.52,35.86z
		 M67.59,30.22c-0.96,0-1.88,1-1.83,1.95c0.01,0.22,0.1,0.17,0.24,0.12c0.92-0.39,1.83-0.78,2.75-1.15
		c0.21-0.08,0.19-0.18,0.09-0.33C68.54,30.36,68.08,30.25,67.59,30.22z"/>
	<path class="st10" d="M47.59,46.14c0.05-1.02-0.62-1.66-1.52-1.62c-0.4,0.02-0.8-0.03-1.15,0.22c-0.1,0.08-0.2,0.15-0.28,0.25
		c-0.3,0.38-0.36,0.39-0.79,0.14c-0.04-0.02-0.08-0.05-0.12-0.07c-0.49-0.25-0.5-0.27-0.16-0.69c0.42-0.52,0.93-0.84,1.61-0.98
		c0.51-0.1,1.01-0.04,1.5-0.03c0.88,0.01,1.99,1.17,2.08,2.07c0.15,1.44,0.03,2.88,0.07,4.32c0.01,0.19-0.06,0.28-0.26,0.25
		c-0.01,0-0.02,0-0.03,0c-0.25,0-0.56,0.08-0.74-0.03c-0.22-0.13-0.05-0.46-0.09-0.71c-0.01-0.06,0.02-0.14-0.06-0.18
		c-0.11-0.05-0.13,0.06-0.17,0.12c-0.52,0.75-1.52,1.1-2.42,0.98c-0.63-0.08-1.1-0.33-1.53-0.75c-0.59-0.57-0.72-1.4-0.42-2.13
		c0.43-1.02,1.31-1.36,2.32-1.49c0.31-0.04,0.62,0.07,0.94-0.08c0.13-0.06,0.39,0.15,0.61,0.2C47.19,46,47.38,46.07,47.59,46.14z
		 M46.2,46.86c-0.23,0-0.38-0.01-0.53,0c-0.49,0.05-0.89,0.25-1.18,0.66c-0.49,0.69,0.1,1.39,0.64,1.52
		c1.09,0.25,2.18-0.51,2.43-1.49c0.07-0.28,0-0.41-0.24-0.49C46.93,46.93,46.55,46.8,46.2,46.86z"/>
	<path class="st10" d="M37.44,44.4c0.28-0.28,0.54-0.48,0.79-0.69c0.78-0.63,2.17-0.37,2.8,0.11c0.72,0.55,0.87,1.32,0.91,2.11
		c0.06,1.29,0.02,2.59,0.02,3.88c0,0.21-0.03,0.32-0.27,0.3c-0.31-0.03-0.7,0.09-0.9-0.06c-0.21-0.16-0.06-0.58-0.07-0.88
		c-0.01-0.97-0.01-1.95-0.01-2.92c0-0.37-0.09-0.72-0.25-1.05c-0.24-0.52-1.09-0.8-1.71-0.71c-0.78,0.12-1.44,1.17-1.43,1.9
		c0.02,1.1,0,2.2,0.01,3.3c0,0.24-0.04,0.34-0.32,0.34c-0.93-0.01-0.93,0.01-0.93-0.92c0-1.78,0.01-3.55-0.01-5.33
		c0-0.27,0.06-0.38,0.34-0.34c0.15,0.02,0.3,0.03,0.45,0c0.3-0.06,0.43,0.06,0.47,0.35C37.37,43.96,37.4,44.15,37.44,44.4z"/>
	<path class="st10" d="M55.1,48.04c0.37-0.58,0.52-1.21,0.8-1.78c0.26-0.54,0.53-1.07,0.74-1.63c0.11-0.3,0.27-0.59,0.35-0.9
		c0.04-0.15,0.11-0.2,0.26-0.19c0.32,0.01,0.64,0,0.99,0c-0.12,0.51-0.37,0.95-0.56,1.41c-0.36,0.87-0.76,1.72-1.12,2.59
		c-0.07,0.15-0.06,0.34-0.09,0.51c-0.06,0.41-0.43,0.64-0.54,1.03c-0.12,0.39-0.31,0.76-0.48,1.14c-0.35,0.81-0.7,1.62-1.04,2.43
		c-0.08,0.19-0.18,0.26-0.38,0.25c-0.25-0.02-0.5-0.02-0.76,0C53,52.92,53,52.79,53.09,52.61c0.48-0.95,0.86-1.95,1.28-2.93
		c0.07-0.17,0-0.39-0.07-0.54c-0.39-0.75-0.66-1.55-1-2.33c-0.43-1-0.88-2-1.28-3.02c-0.08-0.2-0.02-0.25,0.17-0.24
		c0.05,0,0.09,0,0.14,0c0.88,0,0.86,0,1.17,0.8c0.37,0.92,0.78,1.83,1.17,2.74C54.82,47.4,54.95,47.7,55.1,48.04z"/>
	<path class="st10" d="M75.42,43.29c0.91-0.08,1.65,0.36,2.36,0.92c0.21,0.17,0.23,0.32,0.01,0.5c-0.15,0.13-0.26,0.33-0.42,0.39
		c-0.21,0.07-0.27-0.21-0.43-0.31c-0.56-0.36-1.18-0.46-1.83-0.37c-0.42,0.06-0.66,0.35-0.68,0.71c-0.02,0.38,0.24,0.72,0.67,0.85
		c0.48,0.15,0.98,0.27,1.46,0.43c0.53,0.17,1.02,0.42,1.28,0.96c0.45,0.94-0.03,2.42-1.19,2.62c-0.27,0.05-0.49,0.26-0.79,0.27
		c-0.7,0.02-1.34-0.17-1.89-0.62c-0.28-0.23-0.57-0.45-0.86-0.68c-0.13-0.11-0.16-0.19,0.02-0.31c0.26-0.16,0.5-0.49,0.75-0.5
		c0.2,0,0.39,0.39,0.61,0.59c0.34,0.3,0.72,0.47,1.17,0.25c0.05-0.02,0.08-0.02,0.12,0c0.32,0.17,0.51-0.04,0.73-0.22
		c0.24-0.21,0.27-0.51,0.26-0.78c-0.01-0.35-0.32-0.48-0.61-0.56c-0.61-0.17-1.25-0.28-1.85-0.5c-1.03-0.38-1.52-1.37-1.08-2.4
		C73.64,43.57,74.4,43.25,75.42,43.29z"/>
	<path class="st10" d="M68.78,50.1c-0.87,0.01-2.03-1.16-2.4-2.31c-0.43-1.34-0.2-2.57,0.72-3.63c0.7-0.82,1.63-1.09,2.71-0.97
		c0.96,0.11,1.59,0.64,2.11,1.38c0.17,0.24,0.18,0.41-0.08,0.59c-0.19,0.13-0.36,0.27-0.53,0.41c-0.17,0.15-0.24,0.06-0.31-0.1
		c-0.29-0.69-0.83-1.04-1.56-1.08c-0.88-0.05-1.66,0.54-1.92,1.45c-0.29,1-0.04,2.12,0.83,2.69c0.88,0.57,1.49,0.4,2.25-0.21
		c0.17-0.14,0.36-0.29,0.44-0.51c0.05-0.13,0.1-0.14,0.22-0.06c0.21,0.13,0.43,0.25,0.65,0.35c0.21,0.1,0.25,0.21,0.13,0.42
		C71.41,49.57,70.5,50.12,68.78,50.1z"/>
	<path class="st10" d="M63.52,30.53c0,1.65-0.01,3.3,0.01,4.95c0,0.33-0.1,0.42-0.41,0.39c-0.28-0.02-0.57-0.02-0.86,0
		c-0.24,0.02-0.28-0.08-0.28-0.29c0.01-1.29,0-2.59,0-3.88c0-2.05,0.01-4.1-0.01-6.15c0-0.29,0.08-0.38,0.36-0.35
		c0.28,0.02,0.57,0.02,0.86,0c0.26-0.02,0.33,0.07,0.33,0.32C63.51,27.18,63.52,28.85,63.52,30.53z"/>
	<path class="st10" d="M59.93,46.57c0-0.54-0.01-1.08,0-1.62c0.01-0.21-0.04-0.33-0.28-0.29c-0.01,0-0.02,0-0.03,0
		c-1.03-0.01-1.03-0.01-0.93-1.05c0.01-0.15,0.07-0.2,0.21-0.19c0.26,0.01,0.53-0.01,0.79,0.01c0.2,0.01,0.25-0.07,0.25-0.26
		c-0.01-0.47,0.01-0.94-0.01-1.41c-0.01-0.21,0.05-0.27,0.27-0.28c0.98-0.02,0.97-0.03,0.98,0.94c0,0.33-0.15,0.76,0.07,0.95
		c0.19,0.16,0.61,0.05,0.93,0.06c0.49,0.01,0.44-0.06,0.44,0.44c0,0.8,0,0.8-0.8,0.8c-0.65,0-0.65,0-0.65,0.65
		c0,0.97,0,1.95-0.01,2.92c0,0.34,0.38,0.73,0.74,0.76c0.05,0,0.09,0,0.14,0c0.56,0,0.65,0.09,0.7,0.65
		c0.01,0.12-0.01,0.26-0.16,0.25c-0.53-0.02-1.08,0.1-1.6-0.08c-0.72-0.26-1.01-0.9-1.05-1.63c-0.02-0.27,0-0.55,0-0.82
		C59.93,47.1,59.93,46.83,59.93,46.57z"/>
	<path class="st10" d="M50.08,45.25c0-1.46,0.01-2.91-0.01-4.37c0-0.25,0.05-0.36,0.32-0.33c0.29,0.03,0.67-0.12,0.86,0.06
		c0.19,0.18,0.06,0.56,0.06,0.86c0,2.73,0,5.46,0.01,8.19c0,0.28-0.06,0.37-0.35,0.37c-0.89-0.02-0.89,0-0.89-0.89
		C50.08,47.84,50.08,46.54,50.08,45.25z"/>
	<path class="st10" d="M63.84,46.73c0-1,0.01-1.99-0.01-2.99c0-0.23,0.05-0.34,0.3-0.31c0.3,0.04,0.7-0.13,0.89,0.07
		c0.18,0.18,0.05,0.57,0.05,0.86c0,1.78,0,3.55,0.01,5.33c0,0.25-0.05,0.36-0.32,0.33c-0.29-0.03-0.67,0.12-0.86-0.06
		s-0.06-0.56-0.06-0.86C63.84,48.31,63.84,47.52,63.84,46.73z"/>
	<path class="st10" d="M65.15,41.1c0,0.47-0.34,0.82-0.78,0.81c-0.41-0.01-0.88-0.45-0.88-0.8c0.01-0.42,0.45-0.85,0.86-0.85
		C64.84,40.27,65.15,40.59,65.15,41.1z"/>
</g>
</svg>
