<?xml version="1.0" encoding="utf-8"?>
<!-- Generator: Adobe Illustrator 26.5.3, SVG Export Plug-In . SVG Version: 6.00 Build 0)  -->
<svg version="1.1" id="Layer_1" xmlns="http://www.w3.org/2000/svg" xmlns:xlink="http://www.w3.org/1999/xlink" x="0px" y="0px"
	 viewBox="0 0 80 80" style="enable-background:new 0 0 80 80;" xml:space="preserve">
<style type="text/css">
	.st0{fill:#101010;}
	.st1{fill:#FF0000;}
	.st2{fill:#FFFFFF;}
	.st3{fill-rule:evenodd;clip-rule:evenodd;}
	.st4{fill:#A72369;}
	.st5{fill-rule:evenodd;clip-rule:evenodd;fill:#FF0000;}
	.st6{fill:#FFFDFD;}
	.st7{fill:#FF0000;stroke:#FF0000;stroke-width:1.0698;stroke-miterlimit:10;}
	.st8{fill:#F9AB00;}
	.st9{fill:#E37400;}
	.st10{fill:#767676;}
	.st11{fill:#EE6436;}
	.st12{fill:#A4286A;}
	.st13{fill:#77B227;stroke:#FFFFFF;stroke-width:0.75;stroke-miterlimit:10;}
	.st14{fill:#0481F9;}
</style>
<path d="M34.62,20.31c3.97,2.78,7.77,2.72,11.69,0.03c1.07,2.91,2.09,5.69,3.1,8.48C54.05,41.54,58.65,54.29,63.34,67
	c0.96,2.59,0.26,4.83-0.77,7.29c-2.47-1.26-4.4-2.65-5.35-5.32C51.96,54.34,46.6,39.73,41.27,25.12c-0.2-0.55-0.43-1.09-0.78-1.98
	c-0.35,0.84-0.6,1.35-0.79,1.89c-5.31,14.56-10.67,29.1-15.89,43.69c-0.97,2.72-2.82,4.27-5.41,5.55c-1.13-2.42-1.75-4.7-0.78-7.34
	c4.79-13,9.5-26.03,14.24-39.05C32.74,25.43,33.64,22.98,34.62,20.31z"/>
<path d="M34.09,45c2.17,2.22,4.16,4.26,6.45,6.6c2.13-2.31,4.09-4.43,6.25-6.75c1.75,4.77,3.36,9.14,4.92,13.54
	c0.13,0.36-0.05,0.97-0.31,1.28c-0.85,1.02-1.8,1.95-2.77,2.98c-0.89-0.81-1.59-1.45-2.54-2.32c-0.34,0.37-0.65,0.7-0.99,1.07
	c0.84,0.88,1.5,1.57,2.06,2.17c-2.29,2.3-4.51,4.53-6.63,6.66c-2.12-2.14-4.32-4.37-6.94-7.01c1.06-0.91,2.32-2.02,3.62-3.1
	c0.82-0.69,0.87-1.26-0.38-1.9c-1.26,1.46-2.59,3-4.3,4.99c-1.21-1.42-2.12-2.39-2.89-3.46c-0.29-0.41-0.45-1.14-0.3-1.59
	C30.83,53.85,32.41,49.59,34.09,45z"/>
<path d="M21.54,51.61c-1.42-1.41-2.62-2.61-4.25-4.23c1.33-1.14,2.59-2.25,3.9-3.33c0.88-0.73,0.74-1.28-0.57-1.96
	c-1.24,1.45-2.57,3.01-3.81,4.45c-2.49-2.5-4.71-4.73-7.02-7.05c0.52-0.56,1.17-1.27,2.03-2.21c-0.35-0.35-0.66-0.67-1.01-1.03
	c-0.91,0.85-1.58,1.47-2.06,1.93c-2.27-2.28-4.52-4.53-6.69-6.7c2.88-2.88,6.01-6,9.57-9.56c0.96,1.13,1.95,2.45,3.08,3.61
	c3.62,3.69,7.32,7.31,10.93,11.01c0.42,0.43,0.82,1.31,0.66,1.78C24.82,42.69,23.21,47.01,21.54,51.61z"/>
<path d="M69.66,22.15c3.26,3.27,6.36,6.36,9.27,9.28c-2.19,2.19-4.43,4.43-6.83,6.83c-1.09-1.21-2.43-2.69-3.73-4.13
	c-1.31,0.58-1.56,1.1-0.6,1.93c1.23,1.08,2.42,2.21,3.5,3.21c-2.44,2.41-4.67,4.62-7.04,6.95c-0.42-0.38-1.11-1.01-1.92-1.75
	c-0.35,0.3-0.69,0.58-1.1,0.93c0.72,0.79,1.36,1.5,2.08,2.29c-1.28,1.24-2.52,2.45-3.93,3.8c-1.65-4.51-3.28-8.93-4.86-13.37
	c-0.11-0.3,0.06-0.86,0.3-1.1C59.72,32.07,64.67,27.13,69.66,22.15z"/>
<path class="st1" d="M40.4,6.24c4.02-0.03,7.35,3.26,7.36,7.28c0.01,4.02-3.31,7.33-7.33,7.32c-3.95-0.02-7.21-3.25-7.27-7.2
	C33.11,9.62,36.38,6.27,40.4,6.24z"/>
</svg>
