<?xml version="1.0" encoding="utf-8"?>
<!-- Generator: Adobe Illustrator 26.5.3, SVG Export Plug-In . SVG Version: 6.00 Build 0)  -->
<svg version="1.1" id="Layer_1" xmlns="http://www.w3.org/2000/svg" xmlns:xlink="http://www.w3.org/1999/xlink" x="0px" y="0px"
	 viewBox="0 0 80 80" style="enable-background:new 0 0 80 80;" xml:space="preserve">
<style type="text/css">
	.st0{fill:#101010;}
	.st1{fill:#FF0000;}
	.st2{fill:#FFFFFF;}
	.st3{fill-rule:evenodd;clip-rule:evenodd;}
	.st4{fill:#A72369;}
	.st5{fill-rule:evenodd;clip-rule:evenodd;fill:#FF0000;}
	.st6{fill:#FFFDFD;}
	.st7{fill:#FF0000;stroke:#FF0000;stroke-width:1.0698;stroke-miterlimit:10;}
	.st8{fill:#F9AB00;}
	.st9{fill:#E37400;}
	.st10{fill:#767676;}
	.st11{fill:#EE6436;}
	.st12{fill:#A4286A;}
	.st13{fill:#77B227;stroke:#FFFFFF;stroke-width:0.75;stroke-miterlimit:10;}
	.st14{fill:#0481F9;}
</style>
<g>
	<path d="M48.91,20.16C43.65,14.5,35.38,13,28.64,16.49c-6.9,3.57-10.59,11.28-8.95,18.73c0.82,3.71,2.65,6.85,5.53,9.35
		c4.04,3.51,8.8,4.58,14.07,3.98c0.03,0.15,0.06,0.27,0.09,0.4c-0.21-3-0.41-6-0.62-8.99c-0.01-0.1-0.03-0.2-0.05-0.27
		c0,0-1.45,0.13-1.52,0.14c0.03,0,0.02,1.1,0.02,1.73l-2.39,0.02c-0.01-0.55-0.04-1.04-0.04-1.67c-1.19,0.01-2.37-0.04-3.73,0v-3.99
		c1.4,0,2.81,0.01,4.22-0.01c0.64-0.01,1.31,0.04,1.88-0.17c0.36-0.14,0.8-0.72,0.78-1.07c-0.02-0.34-0.37-0.7-0.74-0.97
		c-0.16-0.11-0.65-0.02-0.88-0.03c-4.67-0.12-6.33-2.08-5.63-6.72c0.25-1.63,1.34-2.58,2.77-3.28c0.68-0.33,1.28-0.38,1.56-0.43
		c0-0.18-0.01-1.28-0.01-1.5c0.67,0,1.6,0.01,2.39,0.01c0.01,0.42,0.02,0.85,0.02,1.49c1.31,0.11,2.54,0.08,3.85,0.2
		c0,1.12,0.01,2.7,0.01,3.74c-1.6,0-3.13-0.03-4.66,0.01c-0.85,0.02-1.86-0.03-1.88,1.23c-0.02,1.34,1.02,1.15,1.86,1.17
		c4.42,0.09,6.07,2.05,5.33,6.54l0,0c-0.02,0.09-0.03,0.18-0.05,0.26c0.15,0.1,0.29,0.2,0.44,0.29c2.59,1.74,5.17,3.48,7.74,5.2
		C55.55,33.83,53.59,25.17,48.91,20.16z"/>
	<path class="st2" d="M42.4,36.44c-0.02,0.12-0.04,0.24-0.07,0.35c-2.41-0.92-2.98-0.64-3.2,1.67c-0.05-0.74-0.1-1.47-0.16-2.21
		c-0.04-0.54,0-1.09,0-2.1C40.11,34.91,41.26,35.67,42.4,36.44z"/>
	<path d="M71.59,62.55c-2.77,0.72-5.65,1.02-8.47,1.46c-2.47,0.39-2.7,0.82-1.45,3.06c0.77,1.38,1.85,3.32,2.9,5.2l-6.54,3.94
		c-0.08-0.14-0.17-0.26-0.25-0.39c-1.13-1.81-2.26-3.63-3.34-5.47c-0.77-1.31-1.54-1.42-2.5-0.2c-1.71,2.16-3.43,4.29-5.15,6.44
		c-0.26,0.33-0.48,0.75-0.82,0.97c-0.74,0.47-2.68,0.86-3.02-1.1c-0.89-12.43-1.74-24.85-2.61-37.28c-0.03-0.41,0-0.83,0-1.6
		c10.94,7.35,21.68,14.57,32.42,21.8C73.36,59.79,74.6,61.78,71.59,62.55z"/>
	<path class="st1" d="M37.48,3.09C21.35,2.67,7.95,15.39,7.52,31.52s12.3,29.53,28.42,29.96c0.84,0.02,1.69,0.01,2.52-0.04
		l0.13-4.78c-0.83,0.06-1.67,0.09-2.52,0.06c-13.5-0.35-24.14-11.58-23.79-25.07C12.64,18.16,23.86,7.5,37.35,7.87
		c13.5,0.35,24.14,11.57,23.79,25.06c-0.13,4.68-1.56,9.04-3.95,12.69l3.96,2.65c2.87-4.38,4.6-9.59,4.75-15.21
		C66.33,16.93,53.6,3.52,37.48,3.09z"/>
</g>
</svg>
