<?xml version="1.0" encoding="utf-8"?>
<!-- Generator: Adobe Illustrator 26.5.3, SVG Export Plug-In . SVG Version: 6.00 Build 0)  -->
<svg version="1.1" id="Layer_1" xmlns="http://www.w3.org/2000/svg" xmlns:xlink="http://www.w3.org/1999/xlink" x="0px" y="0px"
	 viewBox="0 0 80 80" style="enable-background:new 0 0 80 80;" xml:space="preserve">
<style type="text/css">
	.st0{fill:#101010;}
	.st1{fill:#FF0000;}
	.st2{fill:#FFFFFF;}
	.st3{fill-rule:evenodd;clip-rule:evenodd;}
	.st4{fill:#A72369;}
	.st5{fill-rule:evenodd;clip-rule:evenodd;fill:#FF0000;}
	.st6{fill:#FFFDFD;}
	.st7{fill:#FF0000;stroke:#FF0000;stroke-width:1.0698;stroke-miterlimit:10;}
	.st8{fill:#F9AB00;}
	.st9{fill:#E37400;}
	.st10{fill:#767676;}
	.st11{fill:#EE6436;}
	.st12{fill:#A4286A;}
	.st13{fill:#77B227;stroke:#FFFFFF;stroke-width:0.75;stroke-miterlimit:10;}
	.st14{fill:#0481F9;}
</style>
<g>
	<path d="M56.75,33.48c1.3-2.65,3.55-4.65,6.35-5.61c0.97-0.33,1.96-0.5,2.95-0.55c0.35-0.02,0.63-0.3,0.63-0.65V12.2
		c0-4.95-4.01-8.96-8.96-8.96H14.75c-4.95,0-8.96,4.01-8.96,8.96v54.04c0,4.95,4.01,8.96,8.96,8.96h25.96
		c0.45,0,0.77-0.44,0.62-0.87l0,0c-1.2-3.51-0.97-7.26,0.66-10.58L56.75,33.48z M16.86,19.84h33.21c1.53,0,2.77,1.24,2.77,2.77
		s-1.24,2.77-2.77,2.77H16.86c-1.53,0-2.77-1.24-2.77-2.77S15.33,19.84,16.86,19.84z M16.86,30.91H47.3c1.53,0,2.77,1.24,2.77,2.77
		s-1.24,2.77-2.77,2.77H16.86c-1.53,0-2.77-1.24-2.77-2.77S15.33,30.91,16.86,30.91z M36.23,58.59H16.86
		c-1.53,0-2.77-1.24-2.77-2.77s1.24-2.77,2.77-2.77h19.37c1.53,0,2.77,1.24,2.77,2.77C39,57.35,37.76,58.59,36.23,58.59z
		 M16.86,47.52c-1.53,0-2.77-1.24-2.77-2.77s1.24-2.77,2.77-2.77h24.91c1.53,0,2.77,1.24,2.77,2.77s-1.24,2.77-2.77,2.77H16.86z"/>
	<path class="st7" d="M61.05,72.48c-0.98,2-2.67,3.49-4.76,4.21l-5.23,1.8c-0.3,0.1-0.6,0.15-0.9,0.15c-1.15,0-2.22-0.72-2.62-1.87
		l-1.8-5.23c-0.72-2.1-0.58-4.36,0.39-6.35l16.35-32.95c0.48-0.98,1.66-1.38,2.65-0.91c2.72,1.3,7.91,3.8,10.86,5.25
		c1.23,0.6,1.73,2.09,1.12,3.31L61.05,72.48z"/>
</g>
</svg>
