<?xml version="1.0" encoding="utf-8"?>
<!-- Generator: Adobe Illustrator 26.5.3, SVG Export Plug-In . SVG Version: 6.00 Build 0)  -->
<svg version="1.1" id="Layer_1" xmlns="http://www.w3.org/2000/svg" xmlns:xlink="http://www.w3.org/1999/xlink" x="0px" y="0px"
	 viewBox="0 0 80 80" style="enable-background:new 0 0 80 80;" xml:space="preserve">
<style type="text/css">
	.st0{fill:#101010;}
	.st1{fill:#FF0000;}
	.st2{fill:#FFFFFF;}
	.st3{fill-rule:evenodd;clip-rule:evenodd;}
	.st4{fill:#A72369;}
	.st5{fill-rule:evenodd;clip-rule:evenodd;fill:#FF0000;}
	.st6{fill:#FFFDFD;}
	.st7{fill:#FF0000;stroke:#FF0000;stroke-width:1.0698;stroke-miterlimit:10;}
	.st8{fill:#F9AB00;}
	.st9{fill:#E37400;}
	.st10{fill:#767676;}
	.st11{fill:#EE6436;}
	.st12{fill:#A4286A;}
	.st13{fill:#77B227;stroke:#FFFFFF;stroke-width:0.75;stroke-miterlimit:10;}
	.st14{fill:#0481F9;}
</style>
<path d="M70.45,23.41c-9.78-16.08-24.53-4.89-24.53-4.89c-0.95,0.72-2.72,1.31-3.92,1.32h-3.94c-1.2,0-2.97-0.59-3.92-1.32
	c0,0-14.75-11.19-24.53,4.9C-0.18,39.49,3.76,57,3.76,57c0.69,4.28,2.97,7.14,7.27,6.78c4.28-0.35,13.58-11.54,13.58-11.54
	c0.77-0.92,2.38-1.67,3.58-1.67l23.67-0.01c1.2,0,2.81,0.75,3.58,1.68c0,0,9.3,11.18,13.59,11.54c4.29,0.36,6.58-2.5,7.26-6.79
	C76.29,56.99,80.24,39.49,70.45,23.41z M23.45,45.49c-6.95,0-12.58-5.63-12.58-12.57c0-6.95,5.63-12.58,12.58-12.58
	c6.94,0,12.57,5.63,12.57,12.58C36.02,39.86,30.39,45.49,23.45,45.49z M57.28,45.49c-6.94,0-12.57-5.63-12.57-12.57
	c0-6.95,5.63-12.58,12.57-12.58s12.57,5.63,12.57,12.58C69.85,39.86,64.22,45.49,57.28,45.49z"/>
<path class="st2" d="M23.45,20.34c-6.95,0-12.58,5.63-12.58,12.58c0,6.94,5.63,12.57,12.58,12.57c6.94,0,12.57-5.63,12.57-12.57
	C36.02,25.97,30.39,20.34,23.45,20.34z M31.13,36.5h-5.08v4.89c0,0-1.07,0.82-2.73,0.8c-1.67-0.02-2.42-0.89-2.42-0.89v-4.8h-4.79
	c0,0-0.6-0.61-0.76-2.23c-0.16-1.61,0.66-2.92,0.66-2.92h5.08v-5.08c0,0,1.04-0.56,2.55-0.51c1.5,0.04,2.6,0.61,2.6,0.61l-0.02,4.98
	h4.8c0,0,0.83,1.07,0.9,2.37S31.13,36.5,31.13,36.5z"/>
<path class="st1" d="M31.92,33.72c0.07,1.3-0.79,2.78-0.79,2.78h-5.08v4.89c0,0-1.07,0.82-2.73,0.8c-1.67-0.02-2.42-0.89-2.42-0.89
	v-4.8h-4.79c0,0-0.6-0.61-0.76-2.23c-0.16-1.61,0.66-2.92,0.66-2.92h5.08v-5.08c0,0,1.04-0.56,2.55-0.51c1.5,0.04,2.6,0.61,2.6,0.61
	l-0.02,4.98h4.8C31.02,31.35,31.85,32.42,31.92,33.72z"/>
<path class="st2" d="M57.28,20.34c-6.94,0-12.57,5.63-12.57,12.58c0,6.94,5.63,12.57,12.57,12.57s12.57-5.63,12.57-12.57
	C69.85,25.97,64.22,20.34,57.28,20.34z M54.42,42.08c-2.23,0-4.02-1.8-4.02-4.02c0-2.23,1.79-4.02,4.02-4.02
	c2.21,0,4.02,1.79,4.02,4.02C58.44,40.28,56.63,42.08,54.42,42.08z M54.42,31.02c-2.23,0-4.02-1.8-4.02-4.02
	c0-2.22,1.79-4.01,4.02-4.01c2.21,0,4.02,1.79,4.02,4.01C58.44,29.23,56.63,31.02,54.42,31.02z M64.43,36.96
	c-2.23,0-4.02-1.8-4.02-4.02c0-2.23,1.79-4.02,4.02-4.02c2.21,0,4.01,1.79,4.01,4.02C68.44,35.16,66.64,36.96,64.43,36.96z"/>
<circle class="st1" cx="54.42" cy="38.06" r="4.02"/>
<path class="st1" d="M58.44,27c0,2.23-1.81,4.02-4.02,4.02c-2.23,0-4.02-1.8-4.02-4.02c0-2.22,1.79-4.01,4.02-4.01
	C56.63,22.99,58.44,24.78,58.44,27z"/>
<path class="st1" d="M68.44,32.94c0,2.22-1.8,4.02-4.01,4.02c-2.23,0-4.02-1.8-4.02-4.02c0-2.23,1.79-4.02,4.02-4.02
	C66.64,28.92,68.44,30.71,68.44,32.94z"/>
</svg>
