<?xml version="1.0" encoding="utf-8"?>
<!-- Generator: Adobe Illustrator 26.5.3, SVG Export Plug-In . SVG Version: 6.00 Build 0)  -->
<svg version="1.1" id="Layer_1" xmlns="http://www.w3.org/2000/svg" xmlns:xlink="http://www.w3.org/1999/xlink" x="0px" y="0px"
	 viewBox="0 0 80 80" style="enable-background:new 0 0 80 80;" xml:space="preserve">
<style type="text/css">
	.st0{fill:#101010;}
	.st1{fill:#FF0000;}
	.st2{fill:#FFFFFF;}
	.st3{fill-rule:evenodd;clip-rule:evenodd;}
	.st4{fill:#A72369;}
	.st5{fill-rule:evenodd;clip-rule:evenodd;fill:#FF0000;}
	.st6{fill:#FFFDFD;}
	.st7{fill:#FF0000;stroke:#FF0000;stroke-width:1.0698;stroke-miterlimit:10;}
	.st8{fill:#F9AB00;}
	.st9{fill:#E37400;}
	.st10{fill:#767676;}
	.st11{fill:#EE6436;}
	.st12{fill:#A4286A;}
	.st13{fill:#77B227;stroke:#FFFFFF;stroke-width:0.75;stroke-miterlimit:10;}
	.st14{fill:#0481F9;}
</style>
<path class="st1" d="M42.76,13.47c0.65-0.74,1.35-1.68,2.19-2.46c4.06-3.75,10.31-3.42,13.77,0.73c1.66,1.98,2.28,4.31,2.11,6.87
	c-0.26,4.1-2.07,7.56-4.5,10.75c-2.84,3.72-6.33,6.78-10.04,9.61c-1.17,0.89-2.37,1.74-3.65,2.68c-2.23-1.74-4.5-3.43-6.67-5.23
	c-3.17-2.63-6.04-5.56-8.28-9.05c-1.69-2.62-2.88-5.43-3.09-8.58c-0.26-4.01,1.14-7.24,4.72-9.19c3.57-1.94,7.15-1.62,10.41,0.83
	C40.89,11.3,41.8,12.5,42.76,13.47z"/>
<path d="M55.64,48.66c2.13-1.52,4.23-2.96,6.26-4.49c2.55-1.91,5.03-3.92,7.56-5.85c0.84-0.64,1.72-1.26,2.65-1.75
	c2.18-1.17,4.2-0.59,5.67,1.67c-2.31,2.72-4.59,5.55-7.02,8.24c-4.66,5.16-9.75,9.87-15.1,14.32c-3.47,2.88-7.39,3.97-11.75,3.77
	c-3.28-0.15-6.55-0.47-9.83-0.69c-2.47-0.17-4.94-0.21-7.37,0.36c-2.05,0.48-3.81,1.46-5.29,2.97c-1.89,1.92-3.8,3.82-5.71,5.72
	c-0.75,0.75-1.03,0.76-1.77,0.02c-3.77-3.77-7.55-7.55-11.32-11.32c-0.75-0.75-0.75-0.98-0.03-1.71c4.12-4.13,8.26-8.24,12.37-12.38
	c2.29-2.31,5.14-2.99,8.26-2.94c2.91,0.04,5.76,0.58,8.55,1.31c4.19,1.1,8.4,1.4,12.7,1.06c2.39-0.19,4.8-0.17,7.13,0.53
	c1.41,0.42,2.54,1.19,3,2.7c0.4,1.33,0.16,2.15-0.96,2.98c-1.38,1.03-2.99,1.5-4.64,1.86c-3.8,0.85-7.64,0.91-11.49,0.39
	c-3.61-0.48-7.19-0.48-10.73,0.52c-0.52,0.15-0.89,0.39-0.73,0.98c0.15,0.57,0.59,0.66,1.11,0.51c3.67-1.08,7.37-0.83,11.1-0.39
	c4.59,0.54,9.13,0.29,13.53-1.24c0.88-0.3,1.73-0.73,2.51-1.24c1.96-1.26,2.48-3.04,1.63-5.2C55.85,49.14,55.75,48.92,55.64,48.66z"
	/>
</svg>
