<?xml version="1.0" encoding="utf-8"?>
<!-- Generator: Adobe Illustrator 26.5.3, SVG Export Plug-In . SVG Version: 6.00 Build 0)  -->
<svg version="1.1" id="Layer_1" xmlns="http://www.w3.org/2000/svg" xmlns:xlink="http://www.w3.org/1999/xlink" x="0px" y="0px"
	 viewBox="0 0 80 80" style="enable-background:new 0 0 80 80;" xml:space="preserve">
<style type="text/css">
	.st0{fill:#101010;}
	.st1{fill:#FF0000;}
	.st2{fill:#FFFFFF;}
	.st3{fill-rule:evenodd;clip-rule:evenodd;}
	.st4{fill:#A72369;}
	.st5{fill-rule:evenodd;clip-rule:evenodd;fill:#FF0000;}
	.st6{fill:#FFFDFD;}
	.st7{fill:#FF0000;stroke:#FF0000;stroke-width:1.0698;stroke-miterlimit:10;}
	.st8{fill:#F9AB00;}
	.st9{fill:#E37400;}
	.st10{fill:#767676;}
	.st11{fill:#EE6436;}
	.st12{fill:#A4286A;}
	.st13{fill:#77B227;stroke:#FFFFFF;stroke-width:0.75;stroke-miterlimit:10;}
	.st14{fill:#0481F9;}
</style>
<g>
	<g>
		<path d="M29.75,53.68c0-1.55,1.27-2.82,2.82-2.82h4.8V31.79c0-1.9-1.56-3.46-3.46-3.46H9.27c-1.9,0-3.46,1.56-3.46,3.46v22.97
			c0,1.9,1.56,3.46,3.46,3.46h9.47l0.43,3.97c0.05,0.44,0.53,0.67,0.9,0.45l7.26-4.42h2.42V53.68z"/>
		<path class="st1" d="M53.32,76.23h-4.6c-0.11,0-0.22,0.03-0.32,0.09l-5.63,3.43c-0.38,0.23-0.88-0.01-0.93-0.46l-0.27-2.51
			c-0.03-0.31-0.3-0.55-0.61-0.55h-6.59c-1.9,0-3.45-1.55-3.45-3.45V55.19c0-1.9,1.55-3.45,3.45-3.45h18.95
			c1.9,0,3.45,1.55,3.45,3.45v17.58C56.77,74.67,55.21,76.23,53.32,76.23z"/>
		<g>
			<g id="g443" transform="translate(79.9881,277.2979)">
				<g id="path445">
					<path class="st6" d="M-50.73-236.81h-15.75c-0.65,0-1.17-0.53-1.17-1.17c0-0.65,0.53-1.17,1.17-1.17h15.75
						c0.65,0,1.17,0.53,1.17,1.17S-50.08-236.81-50.73-236.81z"/>
				</g>
			</g>
			<g id="g447" transform="translate(79.9881,244.0018)">
				<g id="path449">
					<path class="st6" d="M-50.73-198.31h-15.75c-0.65,0-1.17-0.53-1.17-1.17c0-0.65,0.53-1.17,1.17-1.17h15.75
						c0.65,0,1.17,0.53,1.17,1.17C-49.56-198.83-50.08-198.31-50.73-198.31z"/>
				</g>
			</g>
			<g id="g451" transform="translate(155.3103,311)">
				<g id="path453">
					<path class="st6" d="M-132.62-260.03c-0.06,0-0.13-0.01-0.19-0.02c-0.64-0.11-1.07-0.71-0.97-1.35l2.6-15.75
						c0.11-0.64,0.71-1.07,1.35-0.97c0.64,0.11,1.07,0.71,0.97,1.35l-2.6,15.75C-131.56-260.44-132.06-260.03-132.62-260.03z"/>
				</g>
			</g>
			<g id="g455" transform="translate(122.0143,311)">
				<g id="path457">
					<path class="st6" d="M-104.54-260.03c-0.06,0-0.13-0.01-0.19-0.02c-0.64-0.11-1.07-0.71-0.97-1.35l2.6-15.75
						c0.11-0.64,0.71-1.07,1.35-0.97c0.64,0.11,1.07,0.71,0.97,1.35l-2.6,15.75C-103.48-260.44-103.97-260.03-104.54-260.03z"/>
				</g>
			</g>
		</g>
		<g id="g463" transform="translate(263.0173,75.2472)">
			<path id="path465" class="st2" d="M-218.76-5.08c4.3-2.28,6.53-4.22,6.53-7.23c0-4.15-5.08-5.19-6.53-2.07
				c-1.66-3.22-6.53-2.07-6.53,2.07C-225.3-9.3-223.07-7.36-218.76-5.08z"/>
		</g>
	</g>
	<path d="M70.04,3.07H37.07c-2.55,0-4.63,2.09-4.63,4.63v19.22h2.59c2.06,0,3.74,1.68,3.74,3.74v12.41h15.84l0.48,5.74
		c0.05,0.59,0.71,0.91,1.2,0.59l9.82-6.33h3.93c2.55,0,4.63-2.09,4.63-4.63V7.7C74.67,5.15,72.59,3.07,70.04,3.07z"/>
	<g>
		<g id="g429_00000036958669952773348560000001754710459766681772_" transform="translate(315.4131,304.9772)">
			<path id="path431_00000173149992480605655060000009666218627674937005_" class="st2" d="M-267.07-275.66l0.71,0.57
				c1.12,0.91,2.53,1.41,3.98,1.41h10.07c0.95,0,1.72-0.8,1.68-1.76c-0.04-0.9,0-9.13,0-10.06s-0.75-1.68-1.68-1.68l-6.83-0.02
				l0.84-1.98c0.87-2.06,0.73-4.4-0.38-6.34l0,0c-0.31-0.55-1.02-0.73-1.56-0.4l0,0c-0.33,0.2-0.53,0.56-0.53,0.95
				c0,1.78-0.65,3.49-1.82,4.82l-4.36,4.93"/>
		</g>
		<path id="path433_00000066492858164164570140000012206939032506034322_" class="st2" d="M48.54,30.83h-5.7V18.01h5.7V30.83z"/>
	</g>
</g>
</svg>
