<?xml version="1.0" encoding="utf-8"?>
<!-- Generator: Adobe Illustrator 26.5.3, SVG Export Plug-In . SVG Version: 6.00 Build 0)  -->
<svg version="1.1" id="Layer_1" xmlns="http://www.w3.org/2000/svg" xmlns:xlink="http://www.w3.org/1999/xlink" x="0px" y="0px"
	 viewBox="0 0 80 80" style="enable-background:new 0 0 80 80;" xml:space="preserve">
<style type="text/css">
	.st0{fill:#101010;}
	.st1{fill:#FF0000;}
	.st2{fill:#FFFFFF;}
	.st3{fill-rule:evenodd;clip-rule:evenodd;}
	.st4{fill:#A72369;}
	.st5{fill-rule:evenodd;clip-rule:evenodd;fill:#FF0000;}
	.st6{fill:#FFFDFD;}
	.st7{fill:#FF0000;stroke:#FF0000;stroke-width:1.0698;stroke-miterlimit:10;}
	.st8{fill:#F9AB00;}
	.st9{fill:#E37400;}
	.st10{fill:#767676;}
	.st11{fill:#EE6436;}
	.st12{fill:#A4286A;}
	.st13{fill:#77B227;stroke:#FFFFFF;stroke-width:0.75;stroke-miterlimit:10;}
	.st14{fill:#0481F9;}
</style>
<g>
	<path id="Layer1" d="M38.78,4.03c-6.02,0-10.9,4.89-10.9,10.91c0,4.02,2.18,7.54,5.43,9.43c2.3-0.45,4.7-0.69,7.16-0.69
		c1.51,0,3,0.09,4.46,0.27c2.87-1.97,4.76-5.27,4.76-9.01C49.68,8.92,44.8,4.03,38.78,4.03z M40,20.24v0.94
		c0,0.68-0.54,1.23-1.22,1.23s-1.23-0.55-1.23-1.23v-0.84c-1.02-0.22-1.86-0.76-2.39-1.44c-0.41-0.54-0.3-1.31,0.23-1.72
		c0.54-0.41,1.31-0.3,1.72,0.23C37.4,17.79,37.97,18,38.59,18c0.49,0,0.94-0.13,1.26-0.38c0.19-0.14,0.35-0.32,0.35-0.54
		c0-0.59-0.64-0.92-1.42-0.92c-0.06,0-0.13,0-0.19-0.01c-2.13-0.17-3.68-1.7-3.68-3.36c0-1.38,1.07-2.67,2.64-3.16V8.69
		c0-0.67,0.55-1.22,1.23-1.22S40,8.02,40,8.69v0.84c1.02,0.22,1.87,0.76,2.4,1.44c0.41,0.54,0.3,1.31-0.24,1.72
		c-0.53,0.41-1.3,0.31-1.71-0.23c-0.3-0.38-0.86-0.59-1.48-0.59c-0.49,0-0.94,0.13-1.26,0.38c-0.19,0.14-0.34,0.32-0.34,0.54
		c0,0.22,0.15,0.39,0.34,0.54c0.32,0.24,0.77,0.38,1.26,0.38c0.06,0,0.12,0,0.18,0.01c2.14,0.16,3.5,1.67,3.5,3.36
		C42.65,18.46,41.58,19.75,40,20.24z M73.24,36.94l-2.45-0.71c-0.98-3.49-2.84-5.76-5.41-8.5l3.23-7.01
		c0.21-0.44,0.13-0.97-0.2-1.34c-0.34-0.36-0.86-0.49-1.32-0.32l-8.56,3.06c-2.14-1.29-4.5-2.36-7.01-3.16
		c-0.67,2.12-1.85,4.01-3.39,5.52c2.03,0.44,3.98,1.03,5.82,1.78c0.63,0.26,0.93,0.97,0.68,1.6s-0.97,0.93-1.6,0.67
		c-2.35-0.95-4.89-1.64-7.55-2.03h-0.01c-1.61-0.25-3.26-0.37-4.96-0.37c-2.66,0-5.12,0.29-7.57,0.83
		c-1.04,0.23-2.05,0.52-3.04,0.84c-0.99,0.33-1.95,0.7-2.89,1.11c-0.62,0.27-1.34-0.01-1.61-0.63c-0.27-0.62,0.01-1.34,0.63-1.61
		c1.32-0.59,2.71-1.1,4.14-1.52c-1.62-1.36-2.9-3.1-3.72-5.08c-8.21,3.5-14.32,9.96-16.36,17.67c-0.66-0.38-1.22-0.81-1.69-1.27
		c1.09-1.51,2.18-3.27,2.73-4.91c0.71-2.15,0.53-4.11-0.98-5.41c-0.91-0.79-1.85-0.98-2.71-0.81c-0.8,0.16-1.57,0.67-2.18,1.49
		c-1.5,2.03-2.09,6.24,0.04,9.68c-0.97,1.19-1.73,1.97-1.73,1.97c-0.47,0.49-0.46,1.27,0.03,1.74c0.48,0.47,1.26,0.45,1.73-0.03
		c0,0,0.66-0.69,1.55-1.77c0.73,0.69,1.63,1.3,2.7,1.81c-0.15,1.04-0.23,2.09-0.23,3.16c0,8.31,4.62,15.74,11.87,20.53v5.78
		c0,2.86,2.32,5.19,5.19,5.19h2.31c2.87,0,5.19-2.33,5.19-5.19v-0.76c2.12,0.38,4.3,0.58,6.55,0.58c2.62,0,5.16-0.27,7.59-0.78v0.45
		c0,1.37,0.55,2.7,1.52,3.67c0.98,0.97,2.3,1.52,3.67,1.52h2.32c1.38,0,2.7-0.55,3.67-1.52c0.97-0.98,1.52-2.3,1.52-3.67V63.2
		c4.88-3.52,7.45-7.36,8.88-12.78l3.33-0.65c1.51-0.3,2.59-1.62,2.59-3.15v-6.6C75.56,38.59,74.62,37.34,73.24,36.94z M6.93,34.31
		c-0.77-1.75-0.72-3.64-0.22-5.01c0.4-1.09,1.03-2,1.84-1.3c0.45,0.38,0.57,0.92,0.52,1.51c-0.05,0.85-0.42,1.78-0.9,2.73
		C7.81,32.94,7.38,33.64,6.93,34.31z M62.07,40.55c-1.35,0-2.45-1.09-2.45-2.45c0-1.35,1.1-2.45,2.45-2.45
		c1.35,0,2.45,1.1,2.45,2.45C64.53,39.46,63.43,40.55,62.07,40.55z"/>
	<path class="st1" d="M38.78,4.03c-6.02,0-10.9,4.89-10.9,10.91c0,4.02,2.18,7.54,5.43,9.43c2.3-0.45,4.7-0.69,7.16-0.69
		c1.51,0,3,0.09,4.46,0.27c2.87-1.97,4.76-5.27,4.76-9.01C49.68,8.92,44.8,4.03,38.78,4.03z M40,20.24v0.94
		c0,0.68-0.54,1.23-1.22,1.23s-1.23-0.55-1.23-1.23v-0.84c-1.02-0.22-1.86-0.76-2.39-1.44c-0.41-0.54-0.3-1.31,0.23-1.72
		c0.54-0.41,1.31-0.3,1.72,0.23C37.4,17.79,37.97,18,38.59,18c0.49,0,0.94-0.13,1.26-0.38c0.19-0.14,0.35-0.32,0.35-0.54
		c0-0.59-0.64-0.92-1.42-0.92c-0.06,0-0.13,0-0.19-0.01c-2.13-0.17-3.68-1.7-3.68-3.36c0-1.38,1.07-2.67,2.64-3.16V8.69
		c0-0.67,0.55-1.22,1.23-1.22S40,8.02,40,8.69v0.84c1.02,0.22,1.87,0.76,2.4,1.44c0.41,0.54,0.3,1.31-0.24,1.72
		c-0.53,0.41-1.3,0.31-1.71-0.23c-0.3-0.38-0.86-0.59-1.48-0.59c-0.49,0-0.94,0.13-1.26,0.38c-0.19,0.14-0.34,0.32-0.34,0.54
		c0,0.22,0.15,0.39,0.34,0.54c0.32,0.24,0.77,0.38,1.26,0.38c0.06,0,0.12,0,0.18,0.01c2.14,0.16,3.5,1.67,3.5,3.36
		C42.65,18.46,41.58,19.75,40,20.24z"/>
</g>
</svg>
