<?xml version="1.0" encoding="utf-8"?>
<!-- Generator: Adobe Illustrator 26.5.3, SVG Export Plug-In . SVG Version: 6.00 Build 0)  -->
<svg version="1.1" id="Layer_1" xmlns="http://www.w3.org/2000/svg" xmlns:xlink="http://www.w3.org/1999/xlink" x="0px" y="0px"
	 viewBox="0 0 80 80" style="enable-background:new 0 0 80 80;" xml:space="preserve">
<style type="text/css">
	.st0{fill:#101010;}
	.st1{fill:#FF0000;}
	.st2{fill:#FFFFFF;}
	.st3{fill-rule:evenodd;clip-rule:evenodd;}
	.st4{fill:#A72369;}
	.st5{fill-rule:evenodd;clip-rule:evenodd;fill:#FF0000;}
	.st6{fill:#FFFDFD;}
	.st7{fill:#FF0000;stroke:#FF0000;stroke-width:1.0698;stroke-miterlimit:10;}
	.st8{fill:#F9AB00;}
	.st9{fill:#E37400;}
	.st10{fill:#767676;}
	.st11{fill:#EE6436;}
	.st12{fill:#A4286A;}
	.st13{fill:#77B227;stroke:#FFFFFF;stroke-width:0.75;stroke-miterlimit:10;}
	.st14{fill:#0481F9;}
</style>
<g>
	<path class="st0" d="M28.08,52.2c-1.84-1.06-3.09-3.04-3.09-5.32c0-9.38,7.63-17.02,17.02-17.02h7.01l0.33-5.45H9.62l2.85,47.09
		c0.07,1.08,0.96,1.92,2.04,1.92h12.53c-1.28-1.71-2.05-3.83-2.05-6.13c0-2.65,1.69-4.91,4.05-5.76c-0.84-1.28-1.32-2.81-1.32-4.45
		c0-1.64,0.49-3.17,1.33-4.45C28.38,52.49,28.01,52.34,28.08,52.2z"/>
	<path class="st1" d="M29.48,20.33C29.49,20.33,29.49,20.33,29.48,20.33l20.42,0c1.13,0,2.04-0.91,2.04-2.04s-0.91-2.04-2.04-2.04
		H33.26l5.5-8.44h7.06c1.13,0,2.04-0.91,2.04-2.04s-0.91-2.04-2.04-2.04h-8.17c-0.69,0-1.33,0.35-1.71,0.93l-7.56,11.6H9.07
		c-1.13,0-2.04,0.91-2.04,2.04s0.91,2.04,2.04,2.04L29.48,20.33C29.48,20.33,29.48,20.33,29.48,20.33z"/>
	<path class="st0" d="M29.08,46.88c0,1.13,0.91,2.04,2.04,2.04h43.56c1.13,0,2.04-0.91,2.04-2.04c0-7.13-5.8-12.93-12.93-12.93
		H42.01C34.88,33.95,29.08,39.75,29.08,46.88z"/>
	<path d="M35.88,53.01c-2.26,0-4.08,1.83-4.08,4.08c0,2.26,1.83,4.08,4.08,4.08h34.03c2.26,0,4.08-1.83,4.08-4.08
		c0-2.26-1.83-4.08-4.08-4.08H35.88z"/>
	<path class="st0" d="M74.68,65.26H31.12c-1.13,0-2.04,0.91-2.04,2.04c0,3.38,2.75,6.13,6.13,6.13h35.4c3.38,0,6.13-2.75,6.13-6.13
		C76.73,66.17,75.81,65.26,74.68,65.26z"/>
</g>
</svg>
