<?xml version="1.0" encoding="utf-8"?>
<!-- Generator: Adobe Illustrator 26.5.3, SVG Export Plug-In . SVG Version: 6.00 Build 0)  -->
<svg version="1.1" id="Layer_1" xmlns="http://www.w3.org/2000/svg" xmlns:xlink="http://www.w3.org/1999/xlink" x="0px" y="0px"
	 viewBox="0 0 80 80" style="enable-background:new 0 0 80 80;" xml:space="preserve">
<style type="text/css">
	.st0{fill:#101010;}
	.st1{fill:#FF0000;}
	.st2{fill:#FFFFFF;}
	.st3{fill-rule:evenodd;clip-rule:evenodd;}
	.st4{fill:#A72369;}
	.st5{fill-rule:evenodd;clip-rule:evenodd;fill:#FF0000;}
	.st6{fill:#FFFDFD;}
	.st7{fill:#FF0000;stroke:#FF0000;stroke-width:1.0698;stroke-miterlimit:10;}
	.st8{fill:#F9AB00;}
	.st9{fill:#E37400;}
	.st10{fill:#767676;}
	.st11{fill:#EE6436;}
	.st12{fill:#A4286A;}
	.st13{fill:#77B227;stroke:#FFFFFF;stroke-width:0.75;stroke-miterlimit:10;}
	.st14{fill:#0481F9;}
</style>
<g>
	<path class="st0" d="M6,51.38c0-6.41,0.06-12.83-0.03-19.24c-0.04-2.74,1.89-4.72,4.6-4.61c1.98,0.08,3.97,0.01,5.95,0.02
		c2.66,0.02,4.36,1.69,4.36,4.34c0.01,13.03,0.01,26.06,0,39.1c0,2.66-1.68,4.34-4.34,4.35c-2.09,0.01-4.17,0.02-6.26,0
		c-2.61-0.02-4.28-1.7-4.28-4.32C5.99,64.47,6,57.93,6,51.38z"/>
	<path class="st0" d="M24.37,56.41c0-4.78,0-9.57,0-14.35c0-2.78,1.7-4.48,4.46-4.49c2.04-0.01,4.07-0.01,6.11,0
		c2.58,0.01,4.35,1.71,4.35,4.29c0.02,9.74,0.02,19.49,0,29.23c-0.01,2.54-1.75,4.22-4.31,4.24c-2.11,0.02-4.22,0.02-6.33,0
		c-2.58-0.02-4.27-1.75-4.27-4.35C24.36,66.12,24.37,61.27,24.37,56.41z"/>
	<path class="st0" d="M61.14,56.36c0-4.74,0-9.47,0-14.21c0-2.94,1.64-4.58,4.58-4.59c1.99,0,3.97-0.01,5.96,0
		c2.6,0.01,4.34,1.7,4.34,4.28c0.01,9.75,0.01,19.5,0,29.25c0,2.52-1.7,4.2-4.23,4.22c-2.11,0.02-4.23,0.02-6.34,0
		c-2.61-0.02-4.3-1.7-4.31-4.3C61.13,66.14,61.14,61.25,61.14,56.36z"/>
	<path class="st1" d="M68.04,20.31c-0.93,0.82-2.05,1.68-3.02,2.68c-4.11,4.24-8.18,8.52-12.27,12.78c-1.53,1.59-3,1.53-4.35-0.19
		c-2.58-3.28-5.16-6.56-7.72-9.86c-0.32-0.41-0.66-0.54-1.16-0.54c-2.6,0.02-5.19,0.06-7.79-0.02c-0.69-0.02-1.48-0.26-2.03-0.67
		c-6.58-4.88-13.13-9.81-19.68-14.73C8.82,8.86,8.57,7.41,9.4,6.28c0.84-1.14,2.34-1.33,3.58-0.4c6.24,4.66,12.46,9.34,18.7,14
		c0.33,0.25,0.82,0.41,1.24,0.41c2.72,0.04,5.45,0.03,8.17,0.01c1.05-0.01,1.84,0.38,2.49,1.21c2.2,2.84,4.43,5.65,6.64,8.47
		c0.19,0.24,0.38,0.47,0.6,0.74c4.69-4.9,9.33-9.74,13.97-14.58c-0.02-0.07-0.03-0.15-0.05-0.22c-0.78,0-1.55,0.03-2.33-0.01
		c-1.57-0.08-2.57-1.12-2.49-2.58c0.07-1.38,1.17-2.33,2.71-2.29c2.62,0.06,5.24,0.12,7.86,0.2c1.7,0.05,2.63,1.01,2.61,2.7
		c-0.04,2.67-0.1,5.35-0.17,8.02c-0.04,1.48-1.13,2.52-2.54,2.47c-1.35-0.04-2.34-1.12-2.34-2.59
		C68.04,21.24,68.04,20.63,68.04,20.31z"/>
	<path class="st0" d="M57.66,61.55c0,3.13,0,6.26,0,9.39c0,2.68-1.69,4.38-4.38,4.39c-2.06,0.01-4.12,0.01-6.18,0
		c-2.63-0.02-4.35-1.72-4.36-4.35c-0.01-6.34-0.01-12.67,0-19.01c0.01-2.64,1.72-4.34,4.35-4.35c2.09-0.01,4.17-0.01,6.26,0
		c2.58,0.01,4.3,1.73,4.31,4.31C57.67,55.14,57.66,58.34,57.66,61.55z"/>
</g>
</svg>
