<?xml version="1.0" encoding="utf-8"?>
<!-- Generator: Adobe Illustrator 26.5.3, SVG Export Plug-In . SVG Version: 6.00 Build 0)  -->
<svg version="1.1" id="Layer_1" xmlns="http://www.w3.org/2000/svg" xmlns:xlink="http://www.w3.org/1999/xlink" x="0px" y="0px"
	 viewBox="0 0 80 80" style="enable-background:new 0 0 80 80;" xml:space="preserve">
<style type="text/css">
	.st0{fill:#101010;}
	.st1{fill:#FF0000;}
	.st2{fill:#FFFFFF;}
	.st3{fill-rule:evenodd;clip-rule:evenodd;}
	.st4{fill:#A72369;}
	.st5{fill-rule:evenodd;clip-rule:evenodd;fill:#FF0000;}
	.st6{fill:#FFFDFD;}
	.st7{fill:#FF0000;stroke:#FF0000;stroke-width:1.0698;stroke-miterlimit:10;}
	.st8{fill:#F9AB00;}
	.st9{fill:#E37400;}
	.st10{fill:#767676;}
	.st11{fill:#EE6436;}
	.st12{fill:#A4286A;}
	.st13{fill:#77B227;stroke:#FFFFFF;stroke-width:0.75;stroke-miterlimit:10;}
	.st14{fill:#0481F9;}
</style>
<g>
	<path d="M76.42,23.47l-36-12.7c-0.48-0.17-1.01-0.17-1.49,0l-36,12.7c-0.89,0.32-1.49,1.16-1.5,2.11c0,0.95,0.6,1.8,1.49,2.11
		l36,12.8c0.24,0.09,0.5,0.13,0.75,0.13c0.25,0,0.51-0.04,0.75-0.13l36-12.8c0.89-0.32,1.49-1.16,1.49-2.11
		C77.91,24.63,77.31,23.78,76.42,23.47z"/>
	<path class="st1" d="M72.53,53.37V33.83l-4.48,1.59v17.95c-1.35,0.78-2.26,2.23-2.26,3.9c0,1.67,0.91,3.12,2.26,3.9v11.01
		c0,1.24,1,2.24,2.24,2.24c1.24,0,2.24-1,2.24-2.24V61.18c1.35-0.78,2.26-2.23,2.26-3.9C74.79,55.61,73.88,54.15,72.53,53.37z"/>
	<path d="M39.68,45.1c-0.77,0-1.53-0.13-2.25-0.39l-20.24-7.19v9.86c0,2.41,2.52,4.45,7.48,6.06c4.33,1.4,9.66,2.18,15.01,2.18
		s10.68-0.77,15.01-2.18c4.96-1.61,7.48-3.65,7.48-6.06v-9.86l-20.24,7.19C41.2,44.97,40.44,45.1,39.68,45.1z"/>
</g>
</svg>
