<?xml version="1.0" encoding="utf-8"?>
<!-- Generator: Adobe Illustrator 26.5.3, SVG Export Plug-In . SVG Version: 6.00 Build 0)  -->
<svg version="1.1" id="Layer_1" xmlns="http://www.w3.org/2000/svg" xmlns:xlink="http://www.w3.org/1999/xlink" x="0px" y="0px"
	 viewBox="0 0 80 80" style="enable-background:new 0 0 80 80;" xml:space="preserve">
<style type="text/css">
	.st0{fill:#101010;}
	.st1{fill:#FF0000;}
	.st2{fill:#FFFFFF;}
	.st3{fill-rule:evenodd;clip-rule:evenodd;}
	.st4{fill:#A72369;}
	.st5{fill-rule:evenodd;clip-rule:evenodd;fill:#FF0000;}
	.st6{fill:#FFFDFD;}
	.st7{fill:#FF0000;stroke:#FF0000;stroke-width:1.0698;stroke-miterlimit:10;}
	.st8{fill:#F9AB00;}
	.st9{fill:#E37400;}
	.st10{fill:#767676;}
	.st11{fill:#EE6436;}
	.st12{fill:#A4286A;}
	.st13{fill:#77B227;stroke:#FFFFFF;stroke-width:0.75;stroke-miterlimit:10;}
	.st14{fill:#0481F9;}
</style>
<g>
	<path class="st11" d="M33,13.14c3.18,0.19,7.13-0.37,11.04,0.28C51.1,14.6,55.47,19.95,55,26.74c-0.49,7.02-5.84,12.29-12.76,12.6
		c-8.25,0.38-15.71-1.98-22.53-6.53c-0.6-0.4-1.69-0.78-1.45-1.6c0.23-0.76,1.29-0.32,1.97-0.34c1.6-0.05,3.21,0.01,4.81-0.01
		c0.52-0.01,1.25,0.17,1.37-0.65c0.1-0.72-0.52-0.93-1.03-1.18c-4.12-2.06-8.13-4.32-11.82-7.1c-0.62-0.47-1.19-0.99-1.75-1.53
		c-0.29-0.28-0.73-0.58-0.57-1.02c0.2-0.55,0.78-0.4,1.22-0.4c4.04-0.01,8.08,0,12.11,0c0.72,0,1.45,0.02,2.17-0.02
		c0.55-0.04,1.25,0,1.34-0.75c0.08-0.64-0.53-0.79-1-1.02c-1.72-0.84-3.45-1.66-5.12-2.57c-0.43-0.24-1.27-0.42-1.06-1.12
		c0.18-0.58,0.91-0.32,1.4-0.32C25.63,13.14,28.95,13.14,33,13.14z M32.67,25.92c-0.05,5.24,4.09,9.45,9.36,9.55
		c5.13,0.09,9.31-4.16,9.37-9.53c0.05-4.69-4.17-8.96-8.88-8.99C36.97,16.91,32.72,20.78,32.67,25.92z"/>
	<path d="M28.11,56.49c0.79-2.45,1.52-4.58,2.15-6.75c0.2-0.69,0.52-0.87,1.19-0.87c2.82-0.02,2.82-0.04,2.82,2.74
		c0,1.78-0.04,3.55,0.01,5.33c0.03,0.95-0.58,0.76-1.12,0.78c-0.55,0.02-1.03,0.08-1.01-0.77c0.05-2,0.02-4,0.02-6.21
		c-0.55,0.64-0.6,1.27-0.79,1.83c-0.33,0.96-0.66,1.93-0.98,2.89c-0.75,2.27-0.75,2.23-3.11,2.27c-0.77,0.01-1.05-0.3-1.25-0.95
		c-0.52-1.7-1.08-3.38-1.63-5.06c-0.09-0.27-0.19-0.53-0.51-0.75c0,1.91-0.03,3.82,0.02,5.73c0.02,0.77-0.18,1.04-0.99,1.04
		s-1.13-0.17-1.11-1.06c0.06-2.27,0.04-4.54,0.01-6.8c-0.01-0.68,0.12-1,0.92-1.01c2.85-0.04,2.84-0.07,3.73,2.66
		C26.99,53.09,27.5,54.65,28.11,56.49z"/>
	<path d="M45.83,57.74c-1.19,0.17-2.6,0-2.6,0c-0.37-0.28-0.87-1.16-1.15-1.65c-0.66-1.17-1.64-1.53-2.93-1.37
		c-0.51,0.06-0.77,0.17-0.72,0.72c0.03,0.38-0.08,1.93-0.02,2.3c0,0-0.29,0.03-1.18,0c-0.7-0.03-1,0-1-0.16
		c0.05-2.34,0.06-5.47,0.02-7.81c-0.01-0.72,0.26-0.9,0.93-0.88c1.85,0.03,3.71,0,5.56,0.01c1.59,0.01,2.63,0.71,2.98,1.95
		c0.43,1.56-0.08,2.85-1.59,3.59c-0.64,0.31-0.47,0.52-0.16,0.88C44.56,56.03,45.17,56.95,45.83,57.74z M40.84,50.71L40.84,50.71
		c-0.6-0.01-1.21-0.02-1.81,0c-0.19,0-0.42-0.01-0.42-0.01c-0.14,0-0.14,2.01-0.02,2.24c0,0,0.22,0,0.43,0
		c1.21-0.01,2.42,0.01,3.62-0.02c0.64-0.01,1.09-0.34,1.11-1.03c0.02-0.74-0.42-1.11-1.11-1.17C42.05,50.67,41.45,50.71,40.84,50.71
		z"/>
	<path d="M11.76,53.28c0-1.17,0.02-2.34-0.01-3.51c-0.01-0.59,0.11-0.9,0.8-0.89c2.23,0.03,4.46,0.04,6.69,0
		c0.79-0.02,0.82,0.39,0.83,0.99c0.02,0.63-0.19,0.87-0.84,0.85c-1.51-0.04-3.02,0.01-4.53-0.02c-0.62-0.01-0.89,0.16-0.88,0.82
		c0,0.62,0.19,0.89,0.84,0.87c1.47-0.03,2.95,0.02,4.42-0.02c0.75-0.03,0.85,0.31,0.86,0.95c0.01,0.66-0.21,0.84-0.84,0.82
		c-1.43-0.04-2.87,0.03-4.31-0.03c-0.76-0.03-0.97,0.24-0.97,0.97c0,0.71,0.25,0.91,0.93,0.89c1.47-0.04,2.95,0.02,4.42-0.03
		c0.69-0.02,0.92,0.2,0.92,0.9c0,0.68-0.17,0.93-0.89,0.91c-2.19-0.04-4.38-0.05-6.57,0c-0.75,0.02-0.89-0.3-0.87-0.94
		C11.78,55.62,11.76,54.45,11.76,53.28z"/>
	<path d="M62.64,57.99c-1.34-0.01-2.63-0.28-3.84-0.85c-0.59-0.28-0.97-1.54-0.64-2.04c0.24-0.36,0.46-0.07,0.67,0.03
		c1.35,0.65,2.77,0.98,4.27,0.95c0.3-0.01,0.6-0.03,0.9-0.09c0.55-0.11,1.26-0.2,1.2-0.94c-0.06-0.73-0.76-0.7-1.32-0.76
		c-1.24-0.14-2.49-0.23-3.71-0.46c-1.36-0.26-2.05-1.04-2.14-2.15c-0.09-1.12,0.56-2.13,1.8-2.6c2.2-0.82,4.39-0.51,6.53,0.29
		c0.9,0.34,0.54,1.24,0.41,1.79s-0.7,0.04-1.03-0.06c-1.47-0.43-2.94-0.69-4.47-0.44c-0.51,0.08-1.17,0.14-1.12,0.85
		c0.04,0.61,0.64,0.67,1.13,0.73c1.31,0.16,2.64,0.23,3.93,0.49c1.39,0.27,2.04,1.04,2.1,2.17c0.06,1.19-0.55,2.09-1.77,2.63
		C64.6,57.92,63.63,57.98,62.64,57.99z"/>
	<path d="M1.5,54.94c1.61,0.78,3.09,1.21,4.69,1.14c0.41-0.02,0.83-0.07,1.23-0.16c0.47-0.1,0.91-0.31,0.84-0.88
		c-0.07-0.56-0.55-0.67-1.01-0.72c-1.31-0.16-2.64-0.23-3.94-0.46c-1.44-0.26-2.14-1.03-2.23-2.19c-0.09-1.12,0.56-2.11,1.83-2.58
		c2.2-0.81,4.39-0.51,6.52,0.3c0.84,0.32,0.52,1.15,0.41,1.69c-0.14,0.68-0.67,0.13-0.98,0.04c-1.46-0.45-2.94-0.7-4.47-0.47
		c-0.52,0.08-1.18,0.1-1.17,0.8c0.01,0.68,0.64,0.73,1.18,0.79c1.27,0.15,2.56,0.25,3.82,0.47c1.11,0.19,1.99,0.74,2.13,2.01
		c0.13,1.21-0.39,2.21-1.61,2.71c-2.42,0.99-4.83,0.69-7.12-0.44c-0.73-0.36-0.48-1-0.47-1.71C1.15,55.1,1.36,54.87,1.5,54.94z"/>
	<path d="M78.17,53.33c0,1.21-0.04,2.42,0.01,3.63c0.04,0.86-0.49,0.76-1.03,0.76s-1.04,0.09-1.01-0.77
		c0.04-0.85-0.01-2.46-0.01-2.52l-5.33-0.05c0,0-0.03,1-0.02,2.39c0,0.85-0.32,0.99-1.06,0.97c-0.66-0.02-1.14,0.01-1.11-0.92
		c0.06-2.34,0.06-4.69,0-7.03c-0.02-0.94,0.48-0.9,1.13-0.91c0.65-0.01,1.03,0.05,1.04,0.88c0.02,1.34,0.03,2.14,0.03,2.29
		c0,0.07,5.33,0.07,5.33,0.07c0-0.24,0.03-1.64,0.02-2.49c-0.01-0.76,0.41-0.77,0.94-0.73c0.49,0.03,1.11-0.18,1.09,0.71
		C78.14,50.83,78.17,52.08,78.17,53.33z"/>
	<path d="M47.09,51.78c0-0.6,0.05-1.21-0.01-1.81c-0.08-0.82,0.16-1.12,1.05-1.11c0.85,0.01,1.12,0.23,1.07,1.09
		c-0.07,1.21-0.04,2.42-0.01,3.63c0.05,1.58,1.03,2.51,2.6,2.52c1.57,0.01,2.55-0.9,2.61-2.51c0.05-1.28,0.06-2.57,0-3.85
		c-0.04-0.89,0.48-0.83,1.08-0.85c0.64-0.02,1.1,0.02,1.06,0.87c-0.05,1.28,0.02,2.57-0.02,3.85C56.45,56.33,54.64,58,51.81,58
		c-2.84-0.01-4.62-1.67-4.71-4.39C47.08,52.99,47.1,52.39,47.09,51.78C47.1,51.78,47.09,51.78,47.09,51.78z"/>
	<path class="st11" d="M48.87,25.55c0.06,0.62-0.06,1.2-0.77,1.3c-0.68,0.09-1.41,0.06-1.57-0.84c-0.43-2.48-1.83-3.96-4.32-4.39
		c-0.67-0.12-0.71-0.65-0.68-1.2c0.03-0.7,0.51-0.78,1.07-0.82C45.43,19.43,48.8,22.62,48.87,25.55z"/>
	<rect x="68.61" y="48.87" width="2.2" height="8.86"/>
	<rect x="76.13" y="48.87" width="2.2" height="8.86"/>
</g>
</svg>
