<?xml version="1.0" encoding="utf-8"?>
<!-- Generator: Adobe Illustrator 26.5.3, SVG Export Plug-In . SVG Version: 6.00 Build 0)  -->
<svg version="1.1" id="Layer_1" xmlns="http://www.w3.org/2000/svg" xmlns:xlink="http://www.w3.org/1999/xlink" x="0px" y="0px"
	 viewBox="0 0 80 80" style="enable-background:new 0 0 80 80;" xml:space="preserve">
<style type="text/css">
	.st0{fill:#101010;}
	.st1{fill:#FF0000;}
	.st2{fill:#FFFFFF;}
	.st3{fill-rule:evenodd;clip-rule:evenodd;}
	.st4{fill:#A72369;}
	.st5{fill-rule:evenodd;clip-rule:evenodd;fill:#FF0000;}
	.st6{fill:#FFFDFD;}
	.st7{fill:#FF0000;stroke:#FF0000;stroke-width:1.0698;stroke-miterlimit:10;}
	.st8{fill:#F9AB00;}
	.st9{fill:#E37400;}
	.st10{fill:#767676;}
	.st11{fill:#EE6436;}
	.st12{fill:#A4286A;}
	.st13{fill:#77B227;stroke:#FFFFFF;stroke-width:0.75;stroke-miterlimit:10;}
	.st14{fill:#0481F9;}
</style>
<g id="Icon">
	<path class="st3" d="M25.25,50.01l-4.51,4.46c-2.99-1.45-6.69-0.95-9.18,1.52l-6.99,6.9c-3.16,3.13-3.2,8.23-0.07,11.4
		s8.23,3.2,11.4,0.07l6.99-6.9c2.49-2.46,3.04-6.16,1.63-9.16l4.51-4.46c5.1,4.3,11.67,6.92,18.86,6.96
		c16.31,0.1,29.63-13.06,29.73-29.36C77.71,15.12,64.55,1.8,48.25,1.7S18.62,14.76,18.52,31.06C18.48,38.25,21.01,44.85,25.25,50.01
		L25.25,50.01z M30.9,48.26c4.35,4.38,10.36,7.11,17.01,7.16c13.34,0.08,24.24-10.68,24.32-24.03C72.32,18.05,61.55,7.15,48.21,7.07
		S23.97,17.75,23.89,31.1c-0.04,6.65,2.62,12.7,6.95,17.1c0.01,0.01,0.02,0.02,0.03,0.04C30.88,48.24,30.89,48.25,30.9,48.26
		L30.9,48.26z"/>
</g>
<path class="st3" d="M55.27,19.28l-6.65-4.24c-0.91-0.58-2.09-0.56-2.98,0.06l-15.9,11.07c-1.22,0.85-1.52,2.52-0.67,3.74
	c0.85,1.22,2.52,1.52,3.74,0.67l1.18-0.82l0.3,14.68c0.03,1.48,1.26,2.66,2.74,2.63l8.06-0.16l-0.21-10.29
	c-0.03-1.48,1.15-2.71,2.63-2.74c1.48-0.03,2.71,1.15,2.74,2.63l0.21,10.29l8.06-0.16c1.48-0.03,2.66-1.26,2.63-2.74l-0.3-14.68
	l1.21,0.77c1.25,0.8,2.91,0.43,3.71-0.82c0.8-1.25,0.43-2.91-0.82-3.71l-4.23-2.7l-0.12-5.72c-0.03-1.48-1.26-2.66-2.74-2.63
	c-1.48,0.03-2.66,1.26-2.63,2.74L55.27,19.28z"/>
<path class="st5" d="M23.32,68.18l-7.6,6.75c-3.33,2.96-8.47,2.65-11.43-0.68l-0.59-0.67c-2.96-3.33-2.65-8.47,0.68-11.43l7.6-6.75
	c3.33-2.96,8.47-2.65,11.43,0.68l0.59,0.67C26.95,60.08,26.64,65.23,23.32,68.18z"/>
</svg>
