<?xml version="1.0" encoding="utf-8"?>
<!-- Generator: Adobe Illustrator 26.5.3, SVG Export Plug-In . SVG Version: 6.00 Build 0)  -->
<svg version="1.1" id="Layer_1" xmlns="http://www.w3.org/2000/svg" xmlns:xlink="http://www.w3.org/1999/xlink" x="0px" y="0px"
	 viewBox="0 0 80 80" style="enable-background:new 0 0 80 80;" xml:space="preserve">
<style type="text/css">
	.st0{fill:#101010;}
	.st1{fill:#FF0000;}
	.st2{fill:#FFFFFF;}
	.st3{fill-rule:evenodd;clip-rule:evenodd;}
	.st4{fill:#A72369;}
	.st5{fill-rule:evenodd;clip-rule:evenodd;fill:#FF0000;}
	.st6{fill:#FFFDFD;}
	.st7{fill:#FF0000;stroke:#FF0000;stroke-width:1.0698;stroke-miterlimit:10;}
	.st8{fill:#F9AB00;}
	.st9{fill:#E37400;}
	.st10{fill:#767676;}
	.st11{fill:#EE6436;}
	.st12{fill:#A4286A;}
	.st13{fill:#77B227;stroke:#FFFFFF;stroke-width:0.75;stroke-miterlimit:10;}
	.st14{fill:#0481F9;}
</style>
<path class="st0" d="M5.34,47.99c0.12-0.55,0.23-1.1,0.35-1.65c0.61-2.79,1.93-5.2,3.93-7.22c4.7-4.74,9.43-9.46,14.15-14.18
	c0.05-0.05,0.11-0.09,0.12-0.09c6.88,6.87,13.74,13.74,20.65,20.64c-0.1,0.1-0.23,0.26-0.38,0.41c-4.51,4.53-9.02,9.06-13.53,13.59
	c-3.36,3.37-7.42,4.87-12.15,4.47c-6.61-0.57-12.1-5.85-12.99-12.42c-0.03-0.23-0.1-0.46-0.15-0.69C5.34,49.9,5.34,48.95,5.34,47.99
	z"/>
<path class="st1" d="M51.84,3.49c1.52,0.33,3.12,0.47,4.55,1.03c5.26,2.07,8.43,5.97,9.26,11.57c0.71,4.8-0.78,8.97-4.17,12.42
	c-4.62,4.69-9.29,9.33-13.94,13.98c-0.07,0.07-0.14,0.12-0.16,0.13C40.51,35.76,33.64,28.9,26.64,21.9c0.17-0.11,0.42-0.23,0.6-0.41
	c4.39-4.38,8.8-8.74,13.15-13.15c2.76-2.8,6-4.52,9.97-4.75c0.11-0.01,0.23-0.06,0.34-0.09C51.08,3.49,51.46,3.49,51.84,3.49z
	 M39.42,23.2c0.24-0.15,0.79-0.36,1.17-0.73c2.07-1.99,4.11-4.02,6.15-6.04c0.9-0.9,0.99-2.06,0.23-2.84
	c-0.77-0.79-1.92-0.73-2.84,0.16c-0.94,0.91-1.86,1.83-2.79,2.75c-1.18,1.17-2.37,2.33-3.55,3.5c-0.6,0.6-0.69,1.34-0.38,2.1
	C37.71,22.83,38.32,23.17,39.42,23.2z"/>
<path class="st0" d="M70.17,49.92c3.68,4.29,4.51,12.72-1.07,18.61c-5.36,5.65-13.92,5.77-19.18,1.57
	C56.66,63.37,63.42,56.64,70.17,49.92z"/>
<path class="st0" d="M67.3,47.01c-6.75,6.75-13.5,13.5-20.24,20.25c-4-4.9-4.28-13.28,1.19-18.9C53.28,43.2,62.03,42.58,67.3,47.01z
	"/>
<path class="st2" d="M39.42,23.2c-1.1-0.03-1.71-0.37-2.01-1.1c-0.32-0.76-0.23-1.5,0.38-2.1c1.17-1.18,2.36-2.34,3.55-3.5
	c0.93-0.92,1.85-1.84,2.79-2.75c0.92-0.89,2.08-0.95,2.84-0.16c0.76,0.78,0.67,1.95-0.23,2.84c-2.04,2.02-4.08,4.05-6.15,6.04
	C40.2,22.85,39.66,23.05,39.42,23.2z"/>
</svg>
