<?xml version="1.0" encoding="utf-8"?>
<!-- Generator: Adobe Illustrator 26.5.3, SVG Export Plug-In . SVG Version: 6.00 Build 0)  -->
<svg version="1.1" id="Layer_1" xmlns="http://www.w3.org/2000/svg" xmlns:xlink="http://www.w3.org/1999/xlink" x="0px" y="0px"
	 viewBox="0 0 80 80" style="enable-background:new 0 0 80 80;" xml:space="preserve">
<style type="text/css">
	.st0{fill:#101010;}
	.st1{fill:#FF0000;}
	.st2{fill:#FFFFFF;}
	.st3{fill-rule:evenodd;clip-rule:evenodd;}
	.st4{fill:#A72369;}
	.st5{fill-rule:evenodd;clip-rule:evenodd;fill:#FF0000;}
	.st6{fill:#FFFDFD;}
	.st7{fill:#FF0000;stroke:#FF0000;stroke-width:1.0698;stroke-miterlimit:10;}
	.st8{fill:#F9AB00;}
	.st9{fill:#E37400;}
	.st10{fill:#767676;}
	.st11{fill:#EE6436;}
	.st12{fill:#A4286A;}
	.st13{fill:#77B227;stroke:#FFFFFF;stroke-width:0.75;stroke-miterlimit:10;}
	.st14{fill:#0481F9;}
</style>
<g>
	<path class="st0" d="M66.18,1.28c1.32,0.48,1.77,1.45,1.77,2.82c-0.02,12.39-0.01,24.77-0.01,37.16c0,0.27,0,0.54,0,0.84
		c-1.49,0-2.92,0-4.44,0c0-0.3,0-0.61,0-0.93c0-12.34,0.01-24.67-0.02-37.01c0-1.36,0.4-2.34,1.67-2.89
		C65.49,1.28,65.83,1.28,66.18,1.28z"/>
	<path class="st1" d="M35.37,1.28c1.27,0.6,1.76,1.62,1.63,2.99C36.95,4.83,37,5.39,37,6.03c0.83,0,1.58-0.01,2.34,0
		c1.42,0.02,2.42,0.96,2.41,2.25c-0.01,1.28-0.99,2.17-2.39,2.19c-0.76,0.01-1.52,0-2.36,0c0,0.83,0.01,1.58,0,2.34
		c-0.01,1.44-0.92,2.42-2.24,2.41c-1.31-0.01-2.19-0.98-2.2-2.44c0-0.74,0-1.47,0-2.31c-0.81,0-1.56,0-2.32,0
		c-1.46-0.01-2.43-0.9-2.43-2.21c0-1.3,0.99-2.22,2.42-2.23c0.74-0.01,1.48,0,2.33,0c0-0.64,0.05-1.25-0.01-1.85
		c-0.13-1.36,0.4-2.33,1.65-2.9C34.58,1.28,34.98,1.28,35.37,1.28z"/>
	<path class="st0" d="M14.94,70.58c0.99-0.62,2.13-1.09,2.95-1.89c4.55-4.45,9.03-8.97,13.53-13.48c1.03-1.04,1.08-2.37,0.16-3.29
		c-0.93-0.94-2.28-0.87-3.35,0.2c-4.37,4.36-8.73,8.73-13.09,13.09c-0.29,0.29-0.61,0.56-1.03,0.95c-0.28-1.39-0.55-2.65-0.8-3.91
		c-1.03-5.15-2.07-10.29-3.08-15.44c-0.1-0.49-0.27-0.68-0.76-0.63c-0.29,0.03-0.59,0.01-0.89,0c-1.22-0.04-2.17-0.96-2.22-2.14
		c-0.04-1.15,0.88-2.17,2.08-2.29c0.2-0.02,0.39-0.01,0.59-0.01c13.99,0,27.99,0,41.98,0c1.56,0,2.55,0.81,2.61,2.12
		c0.05,1.24-0.85,2.25-2.09,2.31c-0.51,0.03-1.03,0-1.61,0c-0.41,2.02-0.81,3.99-1.21,5.96c-0.91,4.54-1.81,9.09-2.71,13.63
		c-0.09,0.47-0.28,0.84-0.74,1.01c-1.35,0.5-2.68,1.18-4.08,1.45c-3.64,0.71-6.07,3.4-5.95,6.9c0.02,0.63,0.17,1.27,0.27,1.96
		c-0.19,0.01-0.4,0.04-0.6,0.04c-5.48,0-10.96,0-16.44,0c-1.57,0-2.33-0.64-2.65-2.21c-0.29-1.45-0.59-2.9-0.89-4.35L14.94,70.58z"
		/>
	<path d="M51.07,77.11c-3.01,0-6.02,0.01-9.03-0.01c-1.77-0.01-2.86-1.63-2.14-3.15c0.38-0.81,1.07-1.15,1.93-1.3
		c4.22-0.74,7.72-2.63,10.06-6.35c1.23-1.96,1.79-4.14,2-6.43c0.15-1.66,0.16-3.38,0.6-4.97c1.44-5.22,6.6-8.8,11.84-8.4
		c5.76,0.44,10.39,4.52,10.94,10.12c0.59,5.97-0.69,11.51-5.13,15.91c-2.6,2.58-5.89,3.93-9.47,4.25
		c-3.85,0.34-7.73,0.33-11.59,0.47C51.08,77.2,51.08,77.16,51.07,77.11z"/>
	<path class="st0" d="M27.42,24.95c-0.01,1.03-0.55,1.71-1.71,2.15c-3.55,1.34-6.09,3.75-7.59,7.24c-0.11,0.25-0.19,0.51-0.29,0.76
		c-0.39,0.99-1.17,1.57-2.12,1.57c-0.95,0-1.75-0.56-2.12-1.56c-0.58-1.59-1.39-3.05-2.51-4.32c-1.5-1.71-3.31-2.94-5.45-3.7
		c-0.98-0.35-1.58-0.99-1.66-2.04c-0.08-1.08,0.52-1.86,1.71-2.29c2.7-1,4.89-2.66,6.44-5.09c0.57-0.89,0.99-1.87,1.42-2.83
		c0.46-1.04,1.17-1.63,2.15-1.64c0.97-0.01,1.77,0.58,2.15,1.62c1.43,3.9,4.1,6.54,7.99,7.98C26.89,23.17,27.44,23.94,27.42,24.95z"
		/>
	<path class="st1" d="M48.87,22.71c0.87,0,1.63-0.01,2.39,0c1.41,0.02,2.36,0.91,2.37,2.2c0,1.28-0.94,2.2-2.35,2.24
		c-0.76,0.02-1.53,0-2.41,0c0,0.78,0,1.51,0,2.24c-0.01,1.5-0.91,2.52-2.22,2.51c-1.3-0.01-2.21-1.05-2.22-2.54
		c-0.01-0.71,0-1.42,0-2.23c-0.9,0-1.74,0.04-2.57-0.01c-1.28-0.07-2.21-1.06-2.19-2.25c0.03-1.21,0.97-2.12,2.27-2.17
		c0.54-0.02,1.09-0.01,1.63-0.01c0.24,0,0.49,0,0.86,0c0-0.85-0.02-1.66,0-2.46c0.04-1.39,1.07-2.39,2.36-2.3
		c1.15,0.08,2.02,0.96,2.07,2.12C48.89,20.91,48.87,21.75,48.87,22.71z"/>
	<path class="st0" d="M14.95,70.56c-2.78,1.32-6.72,0.36-8.94-2.19c-2.78-3.19-2.7-7.8,0.2-10.89c0.4-0.43,0.78-0.87,1.31-1.46
		c0.33,1.59,0.6,2.93,0.87,4.28c0.16,0.77,0.2,1.51,0.08,2.32c-0.4,2.57,2.25,4.7,4.77,3.89c0.26-0.08,0.5-0.19,0.87-0.33
		c0.28,1.49,0.55,2.95,0.82,4.41C14.94,70.58,14.95,70.56,14.95,70.56z"/>
</g>
</svg>
