<?xml version="1.0" encoding="utf-8"?>
<!-- Generator: Adobe Illustrator 27.7.0, SVG Export Plug-In . SVG Version: 6.00 Build 0)  -->
<svg version="1.1" id="Layer_1" xmlns="http://www.w3.org/2000/svg" xmlns:xlink="http://www.w3.org/1999/xlink" x="0px" y="0px"
	 viewBox="0 0 80 80" style="enable-background:new 0 0 80 80;" xml:space="preserve">
<style type="text/css">
	.st0{fill:#101010;}
	.st1{fill:#FF0000;}
	.st2{fill:#FFFFFF;}
	.st3{fill-rule:evenodd;clip-rule:evenodd;}
	.st4{fill:#A72369;}
	.st5{fill-rule:evenodd;clip-rule:evenodd;fill:#FF0000;}
	.st6{fill:#FFFDFD;}
	.st7{fill:#FF0000;stroke:#FF0000;stroke-width:1.0698;stroke-miterlimit:10;}
	.st8{fill:#353535;}
	.st9{fill:#A4286A;}
</style>
<path d="M39.53,13.54c5.57,0.33,12.49-0.65,19.34,0.49c12.37,2.07,20.03,11.44,19.2,23.34c-0.86,12.3-10.23,21.53-22.36,22.08
	C41.27,60.11,28.2,55.97,16.25,48c-1.05-0.7-2.96-1.37-2.54-2.8c0.4-1.33,2.26-0.56,3.45-0.6c2.8-0.09,5.62,0.02,8.43-0.02
	c0.91-0.02,2.19,0.3,2.4-1.14c0.18-1.26-0.91-1.63-1.8-2.07c-7.22-3.61-14.24-7.57-20.71-12.44c-1.09-0.82-2.08-1.73-3.07-2.68
	c-0.51-0.49-1.28-1.02-1-1.79c0.35-0.96,1.37-0.7,2.14-0.7c7.08-0.02,14.16,0,21.22,0c1.26,0,2.54,0.04,3.8-0.04
	c0.96-0.07,2.19,0,2.35-1.31c0.14-1.12-0.93-1.38-1.75-1.79c-3.01-1.47-6.04-2.91-8.97-4.5c-0.75-0.42-2.23-0.74-1.86-1.96
	c0.32-1.02,1.59-0.56,2.45-0.56C26.62,13.54,32.44,13.54,39.53,13.54z M38.95,35.93c-0.09,9.18,7.17,16.56,16.4,16.73
	c8.99,0.16,16.31-7.29,16.42-16.7c0.09-8.22-7.31-15.7-15.56-15.75C46.49,20.14,39.04,26.92,38.95,35.93z"/>
<path d="M66.2,31.28c0.09,0.91-0.09,1.75-1.12,1.9c-0.99,0.13-2.06,0.09-2.29-1.23c-0.63-3.62-2.67-5.78-6.31-6.41
	c-0.98-0.18-1.04-0.95-0.99-1.75c0.04-1.02,0.74-1.14,1.56-1.2C61.18,22.34,66.1,27,66.2,31.28z"/>
</svg>
