<?xml version="1.0" encoding="utf-8"?>
<!-- Generator: Adobe Illustrator 27.7.0, SVG Export Plug-In . SVG Version: 6.00 Build 0)  -->
<svg version="1.1" id="Layer_1" xmlns="http://www.w3.org/2000/svg" xmlns:xlink="http://www.w3.org/1999/xlink" x="0px" y="0px"
	 viewBox="0 0 80 80" style="enable-background:new 0 0 80 80;" xml:space="preserve">
<style type="text/css">
	.st0{fill:#101010;}
	.st1{fill:#FF0000;}
	.st2{fill:#FFFFFF;}
	.st3{fill-rule:evenodd;clip-rule:evenodd;}
	.st4{fill:#A72369;}
	.st5{fill-rule:evenodd;clip-rule:evenodd;fill:#FF0000;}
	.st6{fill:#FFFDFD;}
	.st7{fill:#FF0000;stroke:#FF0000;stroke-width:1.0698;stroke-miterlimit:10;}
	.st8{fill:#353535;}
	.st9{fill:#A4286A;}
</style>
<g>
	<path d="M43.07,67.43c-0.03,0.04-0.06,0.08-0.09,0.12c-0.2,0.04-0.4-0.21-0.6-0.02c-0.17,0.16-0.18,0.44-0.41,0.56
		c0.12,0.33-0.16,0.68,0.04,1l-0.02-0.02l0.02,0.02c-0.24-0.05-0.52-0.2-0.63,0.16c-0.06,0.21-0.11,0.35-0.35,0.34
		c-0.07,0-0.18,0.07-0.15,0.12c0.13,0.25-0.06,0.54,0.13,0.77c0,0.02-0.02,0.04-0.04,0.04c-0.14,0.12-0.43,0.04-0.46,0.12
		c-0.12,0.31-0.36,0.41-0.6,0.59c-0.34,0.25-0.49,0.71-0.88,0.97c-0.2,0.14-0.33,0.4-0.56,0.57c-0.17,0.12-0.19,0.47-0.54,0.39
		c-0.01,0-0.04,0.02-0.04,0.04c-0.08,0.33-0.41,0.38-0.64,0.53c-0.16,0.1-0.26,0.12-0.17,0.33c0.06,0.13,0.03,0.3-0.13,0.39
		c-0.1,0.05-0.11,0.15-0.11,0.25c-0.02,0.01-0.04,0.01-0.06,0.01c-0.14-0.01-0.28,0.01-0.41-0.03c-0.28-0.09-0.44,0.02-0.53,0.28
		c-0.04,0.13-0.12,0.21-0.24,0.21c-0.28-0.01-0.45,0.12-0.56,0.37c-0.03,0.08-0.1,0.09-0.18,0.09c-0.52,0.01-0.52,0.01-0.53,0.51
		c0,0.04,0,0.08,0,0.13l0,0c-0.4-0.1-0.84,0.01-1.23-0.2c-0.09-0.05-0.21,0.01-0.27,0.11s-0.01,0.19,0.06,0.25
		c0.16,0.14,0.08,0.24-0.07,0.26c-0.28,0.04-0.51,0.18-0.72,0.35c-0.37,0.28-0.79,0.14-1.19,0.16c-0.11,0.01-0.22-0.03-0.31,0.1
		c-0.17,0.25-0.41,0.39-0.72,0.41c-0.52,0.03-1.04-0.05-1.57,0.05c-0.19,0.04-0.4,0.02-0.6-0.01c-0.18-0.03-0.32,0-0.48,0.08
		c-0.4,0.19-0.8,0.41-1.26,0.31c-0.27-0.06-0.53-0.11-0.8-0.15c-0.46-0.08-0.63-0.35-0.54-0.81c0.02-0.11,0.06-0.24,0.04-0.34
		c-0.17-0.88,0.02-1.76-0.04-2.65c-0.06-0.87,0.02-1.74-0.02-2.61c-0.01-0.31,0.11-0.6,0.05-0.91c-0.16-0.95,0.06-1.89,0.02-2.84
		c-0.01-0.2,0.09-0.33,0.33-0.4c0.32-0.09,0.59-0.31,0.86-0.52c0.07-0.06,0.14-0.14,0.06-0.24c-0.07-0.09-0.16-0.1-0.25-0.07
		c-0.07,0.03-0.13,0.07-0.19,0.1c-0.14-0.01-0.29-0.02-0.43-0.03c-0.23-0.17-0.46-0.16-0.7-0.01c-0.04,0-0.08,0-0.13,0
		c-0.04-0.07-0.11-0.09-0.19-0.09c-0.9,0-1.79,0-2.69-0.01c-0.17,0-0.34-0.01-0.48,0.11c-0.07,0-0.13,0-0.2,0
		c-0.18-0.17-0.4-0.09-0.6-0.1c-0.39-0.03-0.48-0.14-0.43-0.52c0.02-0.12,0.02-0.23-0.11-0.3c-0.13-0.07-0.24-0.04-0.35,0.06
		c-0.35,0.32-0.77,0.34-1.12,0.03c-0.17-0.14-0.35-0.19-0.58-0.2c-0.38-0.01-0.76-0.04-1.09-0.26c-0.22-0.15-0.4-0.36-0.58-0.55
		c-0.27-0.29-0.57-0.32-0.92-0.27c-0.12,0.02-0.25,0.03-0.38,0.05l0,0c-0.01-0.08-0.02-0.17-0.03-0.25
		c-0.07-0.55-0.2-0.69-0.74-0.84c-0.22-0.06-0.29-0.23-0.31-0.45c-0.02-0.28-0.34-0.58-0.62-0.56c-0.19,0.01-0.31-0.06-0.32-0.25
		c-0.01-0.19-0.11-0.25-0.29-0.25c-0.13,0-0.25-0.07-0.25-0.2c0.01-0.4-0.23-0.31-0.46-0.25c-0.02,0-0.02-0.01-0.02-0.02
		c0.01-0.46,0.05-0.92-0.2-1.35c-0.08-0.13-0.13-0.29-0.13-0.45c0-0.13-0.05-0.25-0.19-0.24c-0.49,0.04-0.53-0.25-0.52-0.62
		c0-0.12,0.03-0.26,0.01-0.38c-0.03-0.14,0.19-0.43-0.2-0.41c-0.02,0-0.04-0.09-0.08-0.13c-0.18-0.2-0.08-0.44-0.11-0.67
		c-0.05-0.4-0.03-0.81-0.06-1.22c-0.02-0.31,0-0.6-0.16-0.88c-0.09-0.16-0.1-0.32,0.01-0.48c0.13-0.21,0.14-0.44,0.04-0.67
		c-0.2-0.48-0.2-0.95,0-1.43c0.08-0.19,0.09-0.39,0.01-0.58c-0.21-0.49-0.21-0.97,0-1.46c0.08-0.19,0.07-0.39-0.01-0.58
		c-0.2-0.48-0.2-0.95,0-1.43c0.08-0.19,0.08-0.39,0-0.58c-0.21-0.48-0.2-0.95,0-1.43c0.08-0.2,0.09-0.39,0.01-0.58
		c-0.21-0.49-0.21-0.97,0-1.46c0.08-0.19,0.08-0.39-0.01-0.58c-0.2-0.48-0.2-0.95,0-1.43c0.08-0.19,0.09-0.39,0-0.58
		c-0.21-0.49-0.21-0.97,0-1.46c0.08-0.18,0.08-0.37,0-0.55c-0.21-0.49-0.21-0.97,0-1.46c0.08-0.19,0.08-0.39,0-0.58
		c-0.2-0.48-0.2-0.95,0-1.43c0.08-0.19,0.09-0.39,0.01-0.58c-0.21-0.49-0.21-0.97,0-1.46c0.08-0.19,0.07-0.39-0.01-0.58
		c-0.2-0.48-0.2-0.95,0-1.43c0.08-0.19,0.08-0.39,0-0.58c-0.21-0.48-0.2-0.95,0-1.43c0.08-0.2,0.09-0.39,0.01-0.58
		c-0.21-0.49-0.21-0.97,0-1.46c0.08-0.19,0.1-0.4-0.01-0.58c-0.11-0.19-0.11-0.4-0.13-0.61c-0.04-0.36,0.13-0.71,0.1-1.06
		c-0.03-0.32,0-0.62,0.05-0.94c0.07-0.49,0.33-0.99-0.05-1.47c-0.02-0.03-0.01-0.1,0.01-0.15c0.07-0.24,0.1-0.51,0.22-0.72
		c0.33-0.56,0.27-1.19,0.37-1.8l0,0c0.24-0.01,0.44,0,0.41-0.38c-0.02-0.22,0.05-0.5,0.23-0.69c0.24-0.26,0.41-0.54,0.37-0.91v0.01
		c0.25-0.02,0.44-0.12,0.54-0.36c0.03-0.08,0.09-0.16,0.17-0.17c0.15-0.03,0.2-0.07,0.15-0.25c-0.06-0.21,0.26-0.54,0.5-0.57
		c0.28-0.04,0.49-0.15,0.47-0.48c-0.01-0.15,0.06-0.19,0.17-0.21c0.15-0.02,0.29-0.04,0.44-0.04c0.43-0.03,0.61-0.18,0.6-0.6
		c-0.01-0.36,0.14-0.44,0.45-0.41c0.1,0.01,0.21,0,0.31-0.02c0.29-0.05,0.53-0.13,0.62-0.48c0.08-0.3,0.54-0.54,0.85-0.54
		c0.28,0,0.58,0.08,0.82-0.13c0.16-0.14,0.36-0.25,0.55-0.29c0.3-0.06,0.63-0.22,0.94-0.02c0.2,0.13,0.26-0.01,0.37-0.13
		c0.18-0.18,0.01-0.22-0.1-0.29c0.08-0.08,0.16-0.05,0.23-0.07c0.26-0.08,0.55,0.01,0.79-0.15c0.09-0.01,0.17-0.01,0.26-0.02
		c0.02,0,0.04-0.01,0.06-0.01c0.15,0,0.3,0,0.45,0c0.13,0.08,0.27,0.05,0.4,0.05c9.23,0,18.47,0,27.7,0c0.14,0,0.28,0.02,0.4-0.05
		c0.13,0,0.25-0.01,0.38-0.01c0.1,0.13,0.22,0.16,0.36,0.08c0.13-0.07,0.15-0.19,0.13-0.33c-0.04-0.34-0.01-0.66,0.24-0.94
		c0.1-0.11,0.17-0.26,0.21-0.42c0.07-0.29-0.07-0.68,0.4-0.77c0.05-0.01,0.06-0.08,0.06-0.13c0.01-0.2,0.11-0.34,0.3-0.42
		c0.06-0.02,0.15-0.08,0.15-0.1c-0.11-0.42,0.23-0.77,0.19-1.15c-0.04-0.32-0.04-0.62-0.01-0.93c0.02-0.13,0.07-0.28,0.2-0.3
		c0.44-0.09,0.38-0.43,0.33-0.72c-0.03-0.23-0.01-0.42,0.17-0.57c0.29-0.24,0.37-0.55,0.32-0.91c-0.02-0.12-0.05-0.29,0.06-0.36
		c0.24-0.15,0.42-0.35,0.63-0.56c-0.1-0.09-0.28-0.21-0.11-0.37c0.27-0.26,0.17-0.68,0.45-0.94c0.03-0.03,0.02-0.1,0.01-0.15
		C54.01,3.42,54,3.05,54.03,2.67c-0.01-0.02-0.01-0.04,0.01-0.05c0.18-0.03,0.38,0.25,0.54-0.01c0.14-0.22,0.34-0.25,0.58-0.25
		c1.71,0,3.42-0.01,5.13,0.01c2.37,0.02,4.75-0.08,7.12,0.06c0.35,0.02,0.48,0.23,0.33,0.55c-0.06,0.13-0.16,0.22-0.29,0.28
		c-0.16,0.07-0.27,0.2-0.27,0.36c0.01,0.28,0.06,0.56,0.1,0.84c-0.01,0.04-0.02,0.08-0.03,0.12c-0.02,0.02-0.03,0.05-0.05,0.07
		c0,0.02,0,0.04-0.01,0.05c-0.53,0.09-0.56,0.11-0.48,0.62c0.04,0.23-0.05,0.38-0.22,0.47c-0.16,0.08-0.15,0.19-0.2,0.33
		c-0.13,0.33,0.03,0.62,0.05,0.92l0,0c-0.06,0.06-0.1,0.14-0.17,0.19c-0.33,0.19-0.5,0.54-0.43,1c0.03,0.19-0.09,0.28-0.22,0.38
		c-0.15,0.11-0.33,0.22-0.26,0.46c0.06,0.22,0,0.42-0.04,0.62c-0.06,0.24-0.13,0.52-0.35,0.65c-0.22,0.13-0.3,0.29-0.27,0.52
		c0.01,0.14,0.01,0.27-0.05,0.4c-0.24,0.47-0.33,0.97-0.31,1.49c0,0.02,0,0.04-0.01,0.06c-0.19,0.02-0.45-0.07-0.47,0.22
		c-0.01,0.18-0.13,0.44,0.17,0.55c-0.03,0.08,0.03,0.13,0.06,0.19c0.17,0.11,0.33,0.2,0.35,0.44c0.01,0.13,0.17,0.29,0.29,0.21
		c0.25-0.16,0.51-0.11,0.76-0.13c0.37-0.02,0.76-0.04,0.9,0.43c0.01,0.03,0.05,0.08,0.08,0.09c0.38,0.06,0.75,0.04,1.11-0.11
		c0.04,0.02,0.08,0.04,0.13,0.06c0.08,0.16,0.22,0.2,0.38,0.2l0,0c-0.02,0.2,0.03,0.32,0.26,0.33c0.26,0.01,0.46,0.13,0.55,0.39
		c0.04,0.11,0.13,0.16,0.24,0.17c0.42,0.05,0.72,0.31,0.94,0.62c0.14,0.2,0.21,0.16,0.35,0.08l0,0c-0.05,0.19-0.01,0.29,0.19,0.38
		c0.3,0.13,0.55,0.33,0.41,0.73c-0.02,0.06,0,0.13,0.06,0.17c0.08,0.06,0.09-0.03,0.14-0.07c0.13-0.12,0.18-0.01,0.23,0.09
		c0.06,0.12,0.06,0.32,0.19,0.35c0.44,0.12,0.46,0.59,0.76,0.85c0.33,0.28,0.5,0.78,0.59,1.26c0.06,0.3,0.11,0.62,0.53,0.62l0,0
		c0.01,0.02,0.03,0.04,0.04,0.06c0.01,0.04,0.02,0.09,0.03,0.13c-0.17,0.28,0.05,1.15,0.34,1.3c0.03,0.01,0.06,0.02,0.09,0.03
		c0.01,0.04,0.01,0.08,0.02,0.13c0.03,0.7-0.25,1.37-0.1,2.11c0.17,0.83,0.07,1.71,0.07,2.57c0,0.59,0,1.19,0,1.78s0,1.19,0,1.78
		c0,0.58,0,1.17,0,1.75c0,0.6,0,1.21,0,1.81c0,0.58,0,1.17,0.01,1.75c0,0.58,0,1.17,0,1.75s-0.01,1.17-0.01,1.75
		c0,0.61,0,1.23,0,1.84c0,0.58,0.01,1.17,0.01,1.75s0,1.17,0,1.75c0,0.59,0,1.19,0,1.78s0,1.19,0,1.78c0,0.58,0,1.17,0,1.75
		c0,0.6,0,1.21,0,1.81c0,0.58,0,1.17,0,1.75s0.01,1.17,0,1.75c0,0.58-0.01,1.17-0.01,1.75c0,0.61,0,1.23,0,1.84
		c0,0.58,0.01,1.17,0.01,1.75s0,1.17,0,1.75s-0.01,1.17-0.01,1.75c0,0.43,0.1,0.88-0.16,1.29c-0.05,0.07-0.05,0.16-0.02,0.25
		c0.08,0.23-0.06,0.35-0.23,0.46c-0.17,0.1-0.35,0.07-0.52,0.07c-9.62,0-19.23,0-28.85,0c-0.27,0-0.55,0.07-0.82,0.03
		c-0.28-0.04-0.35,0.1-0.36,0.3C42.89,67.07,42.89,67.28,43.07,67.43z M48.58,24.99c-0.43,0.11-0.52,0.29-0.36,0.71
		c0.02,0.06,0.03,0.12,0.05,0.18c0,0.02,0,0.04-0.01,0.06c-0.02,0.03-0.03,0.05-0.05,0.08c0,0.02,0,0.04-0.01,0.05
		c-0.02,0.07-0.04,0.13-0.05,0.2c0,0.02-0.01,0.04-0.02,0.06c-0.21,0.12-0.17,0.31-0.15,0.5v0.01c-0.07-0.03-0.13-0.07-0.2-0.1
		s-0.14-0.13-0.22-0.08s-0.05,0.16-0.03,0.24c0.05,0.17-0.01,0.29-0.13,0.39c-0.09,0.08-0.13,0.18-0.15,0.31
		c-0.06,0.38-0.1,0.76-0.21,1.13c-0.09,0.3-0.09,0.66-0.46,0.85c-0.12,0.06-0.32,0.32-0.2,0.54c0.2,0.37-0.03,0.69-0.19,0.92
		c-0.22,0.3-0.15,0.54-0.07,0.81c0,0.02,0,0.04-0.02,0.06c-0.03,0.03-0.06,0.07-0.1,0.08c-0.63,0.09-0.54,0.56-0.52,0.99
		c0.01,0.15-0.03,0.32,0.07,0.45c-0.01,0.04-0.01,0.08-0.02,0.12c-0.01,0.03-0.02,0.06-0.03,0.09h0.01
		c-0.29-0.03-0.51,0.03-0.5,0.39c0,0.09-0.02,0.18,0.01,0.28c0.08,0.31-0.08,0.69-0.36,0.86c-0.06,0.04-0.04,0.07-0.05,0.11
		c-0.14,0.5,0,1.11-0.52,1.48c-0.04,0.03-0.06,0.09-0.06,0.14c0.01,0.26-0.08,0.52,0.01,0.78l0,0c-0.17,0.01-0.42-0.06-0.49,0.1
		c-0.12,0.27-0.34,0.55-0.15,0.89c0.11,0.2,0.03,0.4-0.16,0.48c-0.33,0.13-0.38,0.38-0.34,0.66c0.05,0.3,0.04,0.61,0.06,0.91l0,0
		c-0.12,0-0.23-0.01-0.35,0.01c-0.12,0.01-0.18,0.09-0.12,0.19c0.09,0.15,0.02,0.28,0,0.42c-0.04,0.25-0.11,0.51-0.03,0.77
		c0.01,0.06,0,0.11-0.07,0.12c-0.14,0.04-0.34-0.1-0.4,0.13c-0.04,0.15-0.06,0.32-0.02,0.47c0.08,0.29-0.07,0.44-0.27,0.58
		c-0.2,0.15-0.42,0.74-0.34,0.97c0.08,0.23,0.01,0.34-0.21,0.39c-0.1,0.02-0.24,0.07-0.2,0.16c0.15,0.32-0.09,0.62-0.01,0.93
		c0.05,0.19-0.02,0.37-0.23,0.41s-0.23,0.17-0.24,0.34c-0.01,0.24-0.03,0.48-0.08,0.72c-0.02,0.12-0.08,0.33-0.25,0.19
		c-0.18-0.15-0.37-0.34-0.27-0.63c0.04-0.13,0.01-0.27,0-0.41c-0.02-0.38-0.4-0.71-0.17-1.14c0.02-0.03-0.02-0.11-0.05-0.14
		c-0.19-0.18-0.32-0.37-0.27-0.66c0.02-0.12-0.1-0.22-0.22-0.24c-0.33-0.06-0.32-0.25-0.29-0.54c0.05-0.4,0.16-0.86-0.32-1.13
		c-0.19-0.1-0.22-0.23-0.19-0.44c0.04-0.33,0.06-0.71-0.26-0.92c-0.24-0.15-0.26-0.33-0.26-0.56c0.01-0.59-0.02-1.18-0.39-1.68
		c-0.08-0.11-0.07-0.23-0.06-0.36c0.02-0.25,0.02-0.49-0.33-0.53c-0.18-0.02-0.22-0.18-0.22-0.34c0-0.26,0-0.53,0-0.79
		c0-0.12,0-0.25-0.11-0.32c-0.38-0.23-0.4-0.59-0.4-0.96c0-0.28,0.07-0.6-0.36-0.64c-0.03,0-0.08-0.05-0.09-0.08
		c-0.11-0.33-0.09-0.67-0.13-1.01c-0.02-0.15,0.03-0.16-0.13-0.19c-0.1-0.02-0.1-0.1-0.09-0.18c0.05-0.51-0.28-0.93-0.37-1.41
		c-0.04-0.23-0.33-0.41-0.31-0.71c0.01-0.1-0.09-0.16-0.2-0.17c-0.05-0.05-0.1-0.11-0.06-0.19c0.13-0.11,0.1-0.24,0.06-0.38
		c-0.14-0.5-0.34-0.99-0.38-1.52c-0.01-0.22,0.02-0.44-0.21-0.61c-0.25-0.18-0.28-0.45-0.28-0.75c0-0.27,0.08-0.64-0.15-0.81
		c-0.28-0.21-0.27-0.45-0.27-0.72c0-0.17,0-0.34-0.01-0.51c-0.01-0.17-0.06-0.3-0.26-0.39c-0.26-0.12-0.39-0.35-0.34-0.67
		c0.03-0.21,0.04-0.42-0.13-0.61c-0.11-0.12-0.15-0.29-0.16-0.47c-0.01-0.33-0.06-0.36-0.4-0.28c-0.06,0.01-0.13,0.01-0.19,0.01
		c-0.81-0.03-1.63-0.22-2.44,0c-0.15,0.04-0.32,0.03-0.47-0.01c-0.48-0.12-0.95-0.18-1.42,0.04c-0.06,0.03-0.14-0.01-0.22-0.01
		c-0.48-0.01-0.97-0.28-1.43-0.12c-0.53,0.19-1.06,0.12-1.59,0.11c-0.11,0-0.22,0.01-0.31,0.06c-0.19,0.11-0.33,0.31-0.19,0.5
		c0.25,0.34,0.26,0.88,0.8,0.99c0.09,0.02,0.12,0.12,0.12,0.21c0.01,0.17,0.04,0.34,0.02,0.5c-0.01,0.18,0,0.32,0.19,0.42
		c0.19,0.11,0.29,0.27,0.1,0.49c-0.13,0.14-0.08,0.29-0.01,0.44c0.24,0.51,0.24,0.51,0.62,0.16l0,0c0.06,0.53,0.05,1.06,0,1.59
		c-0.02,0.14,0.06,0.28,0.19,0.29c0.44,0.04,0.39,0.32,0.33,0.61c-0.05,0.23,0.05,0.32,0.26,0.32c0.09,0,0.19,0,0.28-0.01l0,0
		c0.02,0.04,0.03,0.09,0.05,0.13c0.01,0.02,0.01,0.04,0.02,0.06c-0.13,0.29,0,0.6-0.07,0.9c-0.15,0.64,0.56,0.91,0.65,1.45
		c0.01,0.03,0.11,0.05,0.17,0.06c0.14,0.03,0.2,0.13,0.19,0.25c-0.02,0.26,0.07,0.52,0.03,0.79c-0.02,0.17-0.03,0.47,0.17,0.49
		c0.41,0.04,0.3,0.27,0.28,0.51c-0.03,0.25-0.01,0.45,0.31,0.52c0.23,0.05,0.36,0.42,0.25,0.64c-0.13,0.27-0.08,0.51,0.17,0.72
		c0.21,0.17,0.36,0.34,0.33,0.66c-0.03,0.36,0.01,0.75,0.4,0.96c0.09,0.05,0.09,0.16,0.09,0.26c0.01,0.26,0.12,0.52,0.26,0.69
		c0.16,0.21,0.22,0.37,0.19,0.62c-0.02,0.2-0.05,0.45,0.19,0.52c0.41,0.11,0.38,0.42,0.39,0.72c0.01,0.33-0.01,0.65-0.01,0.98
		c0,0.17,0.06,0.29,0.24,0.32c0.29,0.05,0.35,0.19,0.29,0.47c-0.04,0.16-0.11,0.4,0.17,0.46c0.31,0.07,0.37,0.26,0.33,0.54
		c-0.03,0.17-0.07,0.38,0.08,0.51c0.31,0.29,0.47,0.63,0.43,1.06c-0.01,0.1,0.03,0.21,0.05,0.31c0.01,0.08,0.05,0.16,0.15,0.11
		c0.38-0.2,0.3,0.13,0.32,0.29c0.03,0.2-0.02,0.4-0.02,0.6c0,0.21,0.05,0.38,0.29,0.46c0.23,0.08,0.37,0.6,0.25,0.82
		c-0.18,0.34-0.13,0.42,0.27,0.42c0.08,0,0.17,0,0.25,0c0.01,0.04,0.01,0.08,0.02,0.12c-0.2,0.5-0.02,0.94,0.24,1.34
		c0.13,0.19,0.19,0.36,0.19,0.57c-0.01,0.15,0,0.3,0,0.44c0.01,0.16,0.07,0.3,0.26,0.29c0.13,0,0.16,0.05,0.19,0.16
		c0.06,0.21,0.13,0.41,0.08,0.65c-0.04,0.17,0.01,0.36,0.09,0.52c0.08,0.14,0.23,0.04,0.35,0.06c0.1,0.02,0.15,0.08,0.1,0.18
		c-0.14,0.29,0.1,0.57,0.02,0.86c-0.03,0.09,0.08,0.17,0.17,0.21c0.2,0.1,0.27,0.26,0.26,0.47c-0.05,0.73,0.21,1.46,0.07,2.19
		c-0.02,0.14,0.03,0.27,0.09,0.4c0.1,0.19,0.06,0.38,0.04,0.58c-0.04,0.52-0.31,1.03-0.13,1.57c0.11,0.32-0.09,0.59-0.09,0.89
		c0,0.08-0.06,0.19-0.13,0.2c-0.44,0.06-0.32,0.38-0.3,0.65c0.02,0.23,0.03,0.52-0.17,0.61c-0.39,0.17-0.37,0.47-0.39,0.78
		c-0.02,0.34-0.12,0.45-0.49,0.46c-0.16,0-0.22,0.07-0.18,0.21c0.07,0.25-0.02,0.47-0.18,0.64c-0.19,0.2-0.26,0.42-0.18,0.69
		c0.03,0.12,0.06,0.33-0.06,0.34c-0.24,0.04-0.43,0.26-0.7,0.17c-0.17-0.06-0.23-0.02-0.18,0.18c0.09,0.33-0.04,0.5-0.34,0.67
		c-0.25,0.13-0.4,0.42-0.71,0.48c-0.01,0-0.03,0.04-0.03,0.05c0.06,0.46-0.22,0.57-0.59,0.68c-0.27,0.08-0.46,0.36-0.64,0.59
		c-0.16,0.2-0.34,0.31-0.59,0.28c-0.28-0.03-0.5,0.05-0.63,0.31c-0.06,0.11-0.15,0.2-0.27,0.2c-0.43,0.01-0.78,0.22-1.13,0.43
		c-0.08,0.05-0.2,0.05-0.3,0.07c-0.36,0.06-0.71,0.03-1.07,0.01c-0.21-0.01-0.28,0.07-0.31,0.32c-0.04,0.43,0.06,0.8,0.25,1.17
		c0.08,0.15,0.17,0.44-0.18,0.52c-0.12,0.03-0.1,0.17-0.1,0.28c0,0.44,0,0.89,0,1.33c0,1.19,0,2.38,0,3.58
		c0,0.19,0.02,0.36,0.26,0.39s0.48,0.08,0.72,0.1c0.31,0.03,0.49-0.16,0.47-0.46c0-0.04,0.05-0.09,0.07-0.13
		c0.06,0,0.13-0.01,0.19-0.01c0.07,0.17,0.18,0.08,0.29,0.06c0.32-0.05,0.67-0.2,0.96-0.13c0.46,0.11,0.9-0.02,1.35,0.06
		c0.12,0.02,0.29,0.01,0.32-0.08c0.09-0.27,0.36-0.29,0.54-0.43c0.14-0.11,0.27-0.1,0.41-0.02c0.29,0.17,0.4,0.14,0.5-0.2
		c0.05-0.2,0.16-0.27,0.36-0.27c0.23-0.01,0.46,0.06,0.69,0.06c0.24,0.01,0.47,0,0.44-0.37c-0.01-0.18,0.08-0.38,0.35-0.35
		c0.13,0.01,0.23-0.05,0.3-0.14c0.08-0.1,0.17-0.15,0.3-0.15c0.21,0,0.33-0.09,0.37-0.31c0.02-0.14,0.1-0.19,0.25-0.15
		c0.31,0.08,0.46-0.02,0.5-0.35c0.02-0.18,0.09-0.25,0.27-0.27c0.37-0.06,0.7-0.41,0.75-0.79c0.02-0.17,0.1-0.2,0.26-0.19
		c0.54,0.05,0.77-0.15,0.76-0.66c0-0.22,0.04-0.37,0.32-0.34c0.23,0.03,0.34-0.11,0.45-0.32c0.14-0.28,0.27-0.59,0.66-0.64
		c0.14-0.02,0.29-0.15,0.25-0.28c-0.11-0.42,0.22-0.63,0.4-0.91c0.08-0.13,0.21-0.18,0.38-0.15c0.33,0.05,0.39-0.02,0.39-0.35
		c0-0.18-0.08-0.31-0.2-0.44c-0.18-0.18-0.13-0.33,0.12-0.37c0.2-0.03,0.28-0.12,0.28-0.31c0-0.17,0.1-0.27,0.26-0.31
		c0.41-0.12,0.41-0.12,0.29-0.53c-0.02-0.06-0.04-0.12-0.05-0.18c-0.02-0.07-0.04-0.15,0.03-0.2c0.07-0.05,0.14-0.02,0.2,0.02
		c0.23,0.17,0.26,0.02,0.28-0.17c0.02-0.2,0.03-0.4-0.02-0.6c-0.05-0.19,0.06-0.35,0.18-0.48c0.11-0.11,0.14,0.07,0.23,0.08
		c0.11,0.01,0.21,0.01,0.29-0.08c0.09-0.1,0.02-0.17-0.04-0.25c-0.09-0.12-0.09-0.27,0-0.35c0.36-0.31,0.47-0.7,0.37-1.15
		c0-0.02,0-0.04,0.01-0.06c0.04-0.13,0.06-0.28,0.23-0.09c0.18,0.19,0.36,0.09,0.49-0.05c0.14-0.16-0.03-0.24-0.14-0.31
		c-0.24-0.14-0.07-0.35-0.07-0.52c0-0.15,0.13-0.13,0.24-0.12c0.17,0.01,0.25-0.09,0.26-0.25c0-0.15,0-0.29-0.05-0.44
		c-0.1-0.29,0.18-0.47,0.22-0.73c0-0.01,0.06-0.02,0.08-0.01c0.32,0.05,0.32,0.05,0.24-0.29c-0.07-0.29-0.04-0.57,0.22-0.74
		c0.31-0.2,0.33-0.47,0.29-0.77c-0.03-0.23,0.01-0.44,0.05-0.66c0.02-0.1,0.06-0.19,0.21-0.17c0.4,0.06,0.63-0.2,0.51-0.59
		c-0.03-0.09-0.05-0.17,0.01-0.24c0.16-0.18,0.02-0.33-0.01-0.51c-0.03-0.16,0.32-0.21,0.26-0.45c0-0.01,0-0.02,0-0.03
		c-0.01-0.25,0.07-0.46,0.31-0.57c0.08-0.04,0.12-0.11,0.14-0.2c0.06-0.33,0.3-0.63,0.19-1c-0.03-0.09,0.01-0.21,0.09-0.26
		c0.33-0.17,0.29-0.44,0.24-0.74c-0.06-0.33,0.03-0.44,0.37-0.49c0.1-0.01,0.21-0.02,0.31-0.03c0.24-0.02,0.32-0.21,0.2-0.35
		c-0.2-0.25-0.18-0.48-0.08-0.75c0.03-0.09,0.04-0.19-0.03-0.27c-0.06-0.06-0.09-0.16,0.01-0.17c0.31-0.05,0.25-0.3,0.26-0.49
		c0.02-0.22,0-0.44,0.01-0.66c0.01-0.19,0.07-0.34,0.31-0.29c0.16,0.03,0.3-0.05,0.34-0.18c0.1-0.35,0.28-0.69,0.34-1.04
		c0.05-0.32,0.08-0.67,0-1c-0.04-0.18,0.02-0.34,0.25-0.36c0.09-0.01,0.19-0.02,0.2-0.12c0.03-0.27,0.22-0.51,0.11-0.8
		c-0.05-0.14-0.04-0.3,0.12-0.35c0.37-0.11,0.37-0.38,0.36-0.68c-0.01-0.14,0-0.27,0-0.41c0-0.16,0.07-0.26,0.22-0.3
		c0.14-0.04,0.27-0.18,0.43,0c0.15,0.17,0.21,0.05,0.23-0.1c0.02-0.15-0.06-0.26-0.16-0.36c-0.17-0.17-0.2-0.38-0.19-0.62
		c0.28,0.24,0.35,0.22,0.43-0.12c0.02-0.09,0.05-0.19,0.04-0.28c-0.03-0.43,0.04-0.86-0.06-1.29c0.01-0.03,0.01-0.06,0.02-0.09
		c0.55-0.1,0.94-0.42,0.9-0.89c-0.03-0.37,0.01-0.71,0.11-1.06c0.06-0.22,0.03-0.53,0.26-0.64c0.25-0.11,0.33-0.42,0.62-0.47
		c0.03,0,0.06-0.09,0.05-0.14c-0.03-0.49,0.21-0.95,0.14-1.44c-0.01-0.09,0-0.19,0-0.28c0.02-0.2,0.13-0.38,0.21-0.56
		c0.07-0.14,0.23-0.02,0.35-0.05c0.3-0.07,0.41-0.2,0.33-0.45c-0.11-0.37-0.23-0.73,0.09-1.06c0.03-0.03,0.02-0.12,0.02-0.19
		c0-0.19,0.01-0.38,0-0.57c-0.01-0.24,0.06-0.37,0.33-0.38c0.3-0.01,0.36-0.13,0.21-0.38c-0.13-0.21-0.14-0.4-0.01-0.62
		c0.06-0.09,0.08-0.22,0.11-0.33c0.02-0.08,0.04-0.16,0.12-0.17c0.3-0.03,0.24-0.22,0.21-0.41c-0.02-0.12-0.02-0.26,0-0.38
		c0.04-0.24,0.13-0.44,0.43-0.3c0.04-0.35,0.23-0.67,0.17-1.03c-0.02-0.1,0.08-0.19,0.19-0.23c0.24-0.08,0.29-0.25,0.24-0.48
		c-0.06-0.29,0.08-0.58,0.06-0.87c-0.01-0.1,0.09-0.17,0.19-0.18c0.27-0.02,0.37-0.18,0.32-0.43c-0.02-0.12-0.01-0.21,0.12-0.26
		c0.19-0.06,0.14-0.17,0.07-0.29c-0.05-0.08-0.12-0.19,0.01-0.24c0.33-0.13,0.28-0.4,0.24-0.63c-0.1-0.51,0.05-0.77,0.54-0.89
		c0.17-0.04,0.33-0.09,0.16-0.31c-0.14-0.19-0.07-0.36,0.04-0.53c0.07-0.11,0.18-0.24,0.05-0.37c-0.13-0.15-0.06-0.26,0.05-0.35
		c0.16-0.14,0.21-0.31,0.18-0.5c-0.03-0.23,0.08-0.37,0.27-0.48c0.24-0.15,0.45-0.37,0.34-0.67c-0.12-0.32-0.02-0.53,0.19-0.73
		c0.12-0.11,0.19-0.22,0.18-0.38c-0.03-0.34,0.07-0.67,0.12-1c0.03-0.15,0.05-0.26,0.23-0.12c0.14,0.11,0.19,0.02,0.18-0.12
		c-0.03-0.22,0.06-0.38,0.18-0.55c0.14-0.19,0.19-0.43,0.33-0.63c0.08-0.11,0.08-0.3-0.03-0.42c-0.12-0.12-0.1-0.21,0-0.33
		c0.05-0.06,0.05-0.13,0.05-0.21c-0.03-0.32,0.12-0.45,0.44-0.46c0.36-0.01,0.47-0.17,0.38-0.52c-0.02-0.09-0.05-0.19-0.11-0.26
		c-0.23-0.28-0.14-0.5,0.11-0.7c0.15-0.12,0.25-0.28,0.19-0.47c-0.1-0.32,0.01-0.54,0.29-0.68c0.18-0.09,0.22-0.21,0.17-0.41
		c-0.09-0.33,0.05-0.65,0.34-0.81c0.21-0.11,0.23-0.23,0.18-0.46c-0.04-0.2-0.15-0.48,0.03-0.66c0.28-0.28,0.48-0.59,0.56-0.99
		c0.05-0.22,0.04-0.51,0.38-0.57c0.07-0.01,0.11-0.11,0.09-0.19c-0.07-0.29,0.05-0.59-0.01-0.88c-0.05-0.28,0.04-0.42,0.35-0.47
		c0.43-0.06,0.55-0.26,0.47-0.69c-0.02-0.11-0.06-0.22-0.1-0.33c-0.03-0.08-0.05-0.16,0.02-0.2c0.35-0.23,0.3-0.58,0.29-0.91
		c-0.01-0.37,0.12-0.64,0.39-0.89C64.77,5.54,65,5.4,64.94,5.16c-0.03-0.14-0.02-0.26,0.01-0.4c0.11-0.39,0.01-0.53-0.4-0.55
		c-0.24-0.01-0.49,0-0.73,0c-2.58,0-5.15,0-7.73,0c-0.12,0-0.27-0.05-0.39,0.13c0.14,0.03,0.31,0,0.31,0.18l0,0
		c-0.19,0-0.29,0.09-0.32,0.28c-0.01,0.11-0.07,0.2-0.11,0.29c-0.24,0.5-0.54,0.99-0.38,1.59l0,0c-0.01,0-0.02,0-0.03,0
		c-0.46,0.02-0.5,0.08-0.4,0.51c0.01,0.04,0.01,0.1-0.01,0.12c-0.28,0.28,0.01,0.83-0.48,1.02c-0.03,0.01-0.04,0.07-0.04,0.11
		c-0.05,0.43-0.19,0.84-0.13,1.28l0,0c-0.44-0.01-0.42,0-0.49,0.42c-0.05,0.33,0.07,0.71-0.22,0.99c-0.2,0.2-0.28,0.46-0.29,0.74
		c0,0.17-0.05,0.33-0.24,0.4c-0.12,0.05-0.22,0.13-0.23,0.28c-0.03,0.45-0.15,0.87-0.46,1.22c-0.03,0.04-0.05,0.1-0.04,0.15
		c0.05,0.34-0.12,0.66-0.08,1c0.02,0.16-0.05,0.34-0.24,0.36c-0.26,0.04-0.28,0.2-0.26,0.41c0.01,0.13-0.01,0.25,0,0.38
		c0.02,0.26-0.03,0.47-0.28,0.62c-0.2,0.12-0.25,0.31-0.21,0.55c0.05,0.27,0.04,0.57-0.17,0.77c-0.3,0.28-0.28,0.63-0.31,0.98
		c-0.02,0.19-0.07,0.33-0.27,0.35c-0.12,0.01-0.19,0.05-0.18,0.2c0.02,0.34-0.08,0.68,0.04,1.02l0,0c-0.04,0.03-0.1,0.06-0.11,0.1
		c-0.04,0.19-0.07,0.33-0.35,0.24c-0.17-0.05-0.26,0.1-0.22,0.28c0.05,0.24,0.08,0.5-0.06,0.71c-0.38,0.57-0.38,1.2-0.42,1.84
		c0,0.04-0.01,0.08-0.01,0.12c-0.02,0.02-0.04,0.04-0.05,0.07l0,0c-0.24,0.01-0.37,0.1-0.41,0.37
		C48.51,24.56,48.54,24.77,48.58,24.99L48.58,24.99z M70.59,17.24c-0.01-0.07-0.05-0.14-0.13-0.14c-0.09,0-0.13,0.06-0.13,0.14
		c0,0.09,0.06,0.13,0.15,0.13C70.54,17.36,70.58,17.33,70.59,17.24z M41.91,66.25c0-0.06-0.02-0.11-0.08-0.11s-0.08,0.06-0.08,0.11
		s0.02,0.11,0.08,0.11S41.9,66.31,41.91,66.25z M44.84,59.59c0.06-0.12,0.07-0.2-0.02-0.3C44.77,59.4,44.75,59.47,44.84,59.59z
		 M28.91,37.34c0.01,0,0.02,0.01,0.02,0.01c0.01,0,0.01-0.02,0.01-0.02c-0.01,0-0.02-0.01-0.02-0.01S28.92,37.33,28.91,37.34z"/>
	<path class="st9" d="M43.07,67.43c-0.18-0.15-0.17-0.35-0.16-0.55c0.01-0.21,0.08-0.34,0.36-0.3c0.26,0.04,0.54-0.03,0.82-0.03
		c9.62,0,19.23,0,28.85,0c0.18,0,0.36,0.03,0.52-0.07c0.18-0.11,0.31-0.22,0.23-0.46c-0.03-0.08-0.03-0.17,0.02-0.25
		c0.26-0.4,0.16-0.85,0.16-1.29c0-0.58,0.01-1.17,0.01-1.75s0-1.17,0-1.75s-0.01-1.17-0.01-1.75c0-0.61,0-1.23,0-1.84
		c0-0.58,0.01-1.17,0.01-1.75s0-1.17,0-1.75s0-1.17,0-1.75c0-0.6,0-1.21,0-1.81c0-0.58,0-1.17,0-1.75c0-0.59,0-1.19,0-1.78
		s0-1.19,0-1.78c0-0.58,0-1.17,0-1.75s-0.01-1.17-0.01-1.75c0-0.61,0-1.23,0-1.84c0-0.58,0.01-1.17,0.01-1.75s0-1.17,0-1.75
		s0-1.17-0.01-1.75c0-0.6,0-1.21,0-1.81c0-0.58,0-1.17,0-1.75c0-0.59,0-1.19,0-1.78s0-1.19,0-1.78c0-0.86,0.1-1.74-0.07-2.57
		c-0.15-0.74,0.13-1.4,0.1-2.11c0.14,0.41,0.2,0.82,0.24,1.25c0.14,1.54,0.07,3.07,0.07,4.61c0.01,12.6,0,25.2,0,37.8
		c0,0.42,0,0.42-0.43,0.42c-9.78,0-19.57,0.01-29.35-0.02C43.76,66.64,43.31,66.78,43.07,67.43z"/>
	<path class="st9" d="M10.49,20.92c-0.1,0.6-0.03,1.23-0.37,1.8C10,22.93,9.97,23.2,9.9,23.44c-0.01,0.05-0.03,0.12-0.01,0.15
		c0.38,0.48,0.12,0.98,0.05,1.47C9.9,25.37,9.86,25.68,9.89,26c0.03,0.35-0.14,0.69-0.1,1.06c0.02,0.21,0.01,0.41,0.13,0.61
		c0.11,0.18,0.09,0.39,0.01,0.58c-0.21,0.49-0.21,0.97,0,1.46c0.08,0.19,0.07,0.39-0.01,0.58c-0.2,0.48-0.2,0.95,0,1.43
		c0.08,0.19,0.08,0.39,0,0.58c-0.21,0.48-0.2,0.95,0,1.43c0.08,0.2,0.09,0.39,0.01,0.58c-0.21,0.49-0.21,0.97,0,1.46
		c0.08,0.19,0.08,0.39-0.01,0.58c-0.2,0.48-0.2,0.95,0,1.43c0.08,0.19,0.08,0.39,0,0.58c-0.21,0.49-0.21,0.97,0,1.46
		C10,40,10,40.19,9.92,40.37c-0.21,0.49-0.21,0.97,0,1.46c0.08,0.19,0.08,0.39,0,0.58c-0.2,0.48-0.2,0.95,0,1.43
		c0.08,0.19,0.09,0.39,0.01,0.58c-0.21,0.49-0.21,0.97,0,1.46c0.08,0.19,0.07,0.39-0.01,0.58c-0.2,0.48-0.2,0.95,0,1.43
		c0.08,0.19,0.08,0.39,0,0.58c-0.2,0.48-0.2,0.95,0,1.43c0.08,0.19,0.09,0.39,0.01,0.58c-0.21,0.49-0.21,0.97,0,1.46
		c0.08,0.19,0.08,0.39-0.01,0.58c-0.2,0.48-0.2,0.95,0,1.43c0.1,0.23,0.09,0.46-0.04,0.67c-0.1,0.16-0.1,0.32-0.01,0.48
		c0.16,0.28,0.14,0.57,0.16,0.88c0.03,0.41,0.01,0.81,0.06,1.22c0.03,0.22-0.07,0.47,0.11,0.67c0.03,0.04,0.06,0.13,0.08,0.13
		c0.39-0.02,0.17,0.26,0.2,0.41c0.02,0.12,0,0.25-0.01,0.38c-0.01,0.37,0.03,0.66,0.52,0.62c0.14-0.01,0.19,0.11,0.19,0.24
		c0,0.16,0.05,0.32,0.13,0.45c0.25,0.42,0.22,0.89,0.2,1.35c-0.41-0.54-0.67-1.16-0.97-1.76c-0.33-0.65-0.45-1.35-0.62-2.05
		c-0.23-0.88-0.25-1.78-0.25-2.68c0.01-9.51,0-19.02,0-28.53c0-0.73-0.02-1.46,0-2.18c0.03-0.65,0.17-1.28,0.31-1.92
		c0.09-0.42,0.25-0.82,0.37-1.23C10.39,21.07,10.41,20.98,10.49,20.92z"/>
	<path class="st9" d="M25.5,66.68c0.06-0.03,0.13-0.07,0.19-0.1c0.1-0.04,0.19-0.02,0.25,0.07c0.08,0.1,0.01,0.19-0.06,0.24
		c-0.26,0.21-0.54,0.42-0.86,0.52c-0.23,0.07-0.33,0.2-0.33,0.4c0.03,0.95-0.18,1.89-0.02,2.84c0.05,0.31-0.07,0.61-0.05,0.91
		c0.04,0.87-0.04,1.75,0.02,2.61c0.06,0.88-0.14,1.77,0.04,2.65c0.02,0.11-0.01,0.23-0.04,0.34c-0.09,0.46,0.08,0.73,0.54,0.81
		c0.27,0.05,0.54,0.1,0.8,0.15c0.46,0.1,0.86-0.13,1.26-0.31c0.16-0.08,0.3-0.11,0.48-0.08c0.2,0.03,0.41,0.05,0.6,0.01
		c0.52-0.11,1.04-0.02,1.57-0.05c0.31-0.02,0.55-0.16,0.72-0.41c0.09-0.13,0.2-0.09,0.31-0.1c0.4-0.02,0.82,0.12,1.19-0.16
		c0.21-0.17,0.44-0.3,0.72-0.35c0.14-0.02,0.23-0.12,0.07-0.26c-0.08-0.07-0.12-0.16-0.06-0.25c0.06-0.1,0.19-0.15,0.27-0.11
		c0.39,0.21,0.83,0.1,1.23,0.2c-0.51,0.3-1.05,0.53-1.61,0.73c-0.23,0.08-0.46,0.18-0.7,0.26c-0.83,0.28-1.66,0.55-2.52,0.66
		c-0.52,0.07-1.06,0.12-1.58,0.19c-0.75,0.1-1.5,0.13-2.25,0.16c-0.43,0.01-0.87,0-1.3,0.01c-0.16,0-0.23-0.05-0.23-0.22
		c0.01-0.22,0-0.44,0-0.66c0-3.34,0-6.67,0-10.01c0-0.47,0-0.47,0.45-0.54C24.9,66.78,25.21,66.79,25.5,66.68z"/>
	<path class="st9" d="M20.38,13.74c-0.24,0.17-0.53,0.08-0.79,0.15c-0.07,0.02-0.15-0.01-0.23,0.07c0.11,0.06,0.28,0.11,0.1,0.29
		c-0.12,0.12-0.17,0.26-0.37,0.13c-0.31-0.2-0.64-0.04-0.94,0.02c-0.19,0.04-0.39,0.15-0.55,0.29c-0.24,0.21-0.54,0.12-0.82,0.13
		c-0.32,0-0.78,0.24-0.85,0.54c-0.09,0.35-0.33,0.43-0.62,0.48c-0.1,0.02-0.21,0.03-0.31,0.02c-0.31-0.03-0.46,0.06-0.45,0.41
		c0.01,0.43-0.17,0.58-0.6,0.6c-0.15,0.01-0.29,0.02-0.44,0.04c-0.11,0.02-0.19,0.06-0.17,0.21c0.03,0.33-0.19,0.44-0.47,0.48
		c-0.24,0.03-0.56,0.35-0.5,0.57c0.05,0.18,0,0.22-0.15,0.25c-0.09,0.02-0.14,0.1-0.17,0.17c-0.1,0.24-0.29,0.34-0.54,0.36
		c0.22-0.5,0.59-0.91,0.94-1.31c0.71-0.83,1.53-1.54,2.45-2.14c0.93-0.59,1.92-1.04,2.98-1.35c0.76-0.23,1.54-0.36,2.33-0.44
		C20.26,13.72,20.32,13.73,20.38,13.74z"/>
	<path class="st9" d="M14.55,64.57c0.13-0.02,0.25-0.03,0.38-0.05c0.35-0.05,0.64-0.02,0.92,0.27c0.18,0.19,0.36,0.4,0.58,0.55
		c0.32,0.22,0.71,0.26,1.09,0.26c0.22,0.01,0.41,0.05,0.58,0.2c0.35,0.3,0.77,0.29,1.12-0.03c0.1-0.1,0.22-0.13,0.35-0.06
		c0.12,0.07,0.12,0.18,0.11,0.3c-0.05,0.38,0.05,0.48,0.43,0.52c0.2,0.02,0.43-0.07,0.6,0.1c-1.16-0.02-2.28-0.24-3.38-0.61
		c-0.95-0.32-1.82-0.79-2.66-1.34C14.61,64.66,14.58,64.61,14.55,64.57z"/>
	<path class="st9" d="M36.85,74.7c0-0.1,0.01-0.19,0.11-0.25c0.16-0.09,0.18-0.25,0.13-0.39c-0.09-0.21,0.01-0.23,0.17-0.33
		c0.23-0.14,0.55-0.2,0.64-0.53c0-0.02,0.03-0.04,0.04-0.04c0.35,0.08,0.37-0.26,0.54-0.39c0.24-0.17,0.36-0.43,0.56-0.57
		c0.39-0.26,0.54-0.72,0.88-0.97c0.24-0.18,0.48-0.29,0.6-0.59c0.03-0.08,0.32-0.01,0.46-0.12c-0.2,0.42-0.54,0.73-0.83,1.08
		c-0.87,1.03-1.82,1.98-2.88,2.81C37.13,74.51,36.99,74.6,36.85,74.7z"/>
	<path class="st9" d="M11.55,61.52c0.23-0.06,0.47-0.15,0.46,0.25c0,0.13,0.12,0.2,0.25,0.2c0.17,0,0.27,0.06,0.29,0.25
		c0.01,0.19,0.13,0.26,0.32,0.25c0.27-0.02,0.6,0.28,0.62,0.56c0.01,0.21,0.09,0.39,0.31,0.45c0.54,0.15,0.67,0.29,0.74,0.84
		c0.01,0.08,0.02,0.17,0.03,0.25c-0.47-0.19-0.81-0.56-1.17-0.9C12.7,63.02,12.02,62.36,11.55,61.52z"/>
	<path class="st9" d="M49.65,13.71c-0.13,0.07-0.27,0.05-0.4,0.05c-9.23,0-18.47,0-27.7,0c-0.14,0-0.28,0.02-0.4-0.05
		c0.12-0.01,0.23-0.02,0.35-0.02c9.25,0,18.5,0,27.75,0C49.37,13.7,49.51,13.71,49.65,13.71z"/>
	<path class="st9" d="M73.4,20.93c-0.42,0-0.47-0.31-0.53-0.62c-0.09-0.47-0.27-0.98-0.59-1.26c-0.3-0.26-0.32-0.73-0.76-0.85
		c-0.13-0.03-0.13-0.23-0.19-0.35c-0.05-0.1-0.1-0.21-0.23-0.09c-0.04,0.04-0.05,0.13-0.14,0.07c-0.06-0.04-0.08-0.11-0.06-0.17
		c0.14-0.4-0.11-0.6-0.41-0.73c-0.2-0.09-0.25-0.19-0.19-0.38c0.55,0.4,0.98,0.91,1.41,1.42c0.56,0.67,0.97,1.43,1.42,2.17
		C73.27,20.38,73.31,20.66,73.4,20.93z"/>
	<path class="st9" d="M67.45,14.71c-0.36,0.15-0.73,0.17-1.11,0.11c-0.03,0-0.07-0.05-0.08-0.09c-0.14-0.47-0.53-0.45-0.9-0.43
		c-0.25,0.01-0.51-0.04-0.76,0.13c-0.13,0.08-0.28-0.08-0.29-0.21c-0.02-0.24-0.18-0.34-0.35-0.44
		C65.19,13.88,66.36,14.16,67.45,14.71z"/>
	<path class="st9" d="M34.34,76.26c0-0.04,0-0.08,0-0.13c0.01-0.5,0.01-0.5,0.53-0.51c0.08,0,0.15-0.01,0.18-0.09
		c0.11-0.24,0.28-0.38,0.56-0.37c0.13,0.01,0.2-0.08,0.24-0.21c0.08-0.26,0.24-0.37,0.53-0.28c0.13,0.04,0.27,0.02,0.41,0.03
		c-0.45,0.46-1.02,0.74-1.55,1.07C34.95,75.96,34.68,76.17,34.34,76.26z"/>
	<path class="st9" d="M42.01,69.09c-0.2-0.33,0.08-0.67-0.04-1c0.23-0.12,0.24-0.4,0.41-0.56c0.2-0.19,0.4,0.06,0.6,0.02
		C42.69,68.09,42.42,68.63,42.01,69.09z"/>
	<path class="st9" d="M41.01,70.48c-0.19-0.23-0.01-0.52-0.13-0.77c-0.03-0.06,0.08-0.13,0.15-0.12c0.25,0.01,0.29-0.13,0.35-0.34
		c0.1-0.36,0.39-0.21,0.63-0.16C41.74,69.6,41.39,70.05,41.01,70.48z"/>
	<path class="st9" d="M70.3,16.55c-0.14,0.08-0.21,0.12-0.35-0.08c-0.22-0.31-0.52-0.57-0.94-0.62c-0.11-0.01-0.2-0.05-0.24-0.17
		c-0.09-0.27-0.3-0.38-0.55-0.39c-0.23-0.01-0.29-0.13-0.26-0.33C68.84,15.35,69.62,15.87,70.3,16.55z"/>
	<path class="st9" d="M11.5,18.95c0.04,0.37-0.13,0.65-0.37,0.91c-0.18,0.19-0.25,0.47-0.23,0.69c0.03,0.38-0.17,0.37-0.41,0.38
		C10.72,20.21,11.05,19.55,11.5,18.95z"/>
	<path class="st9" d="M20.89,66.64c0.14-0.11,0.31-0.11,0.48-0.11c0.9,0,1.79,0.01,2.69,0.01c0.08,0,0.14,0.02,0.19,0.09
		C23.13,66.68,22.01,66.67,20.89,66.64z"/>
	<path class="st9" d="M73.89,22.45c-0.03-0.01-0.06-0.01-0.09-0.03c-0.28-0.15-0.51-1.02-0.34-1.3c0.21,0.32,0.26,0.7,0.38,1.06
		C73.87,22.26,73.88,22.36,73.89,22.45z"/>
	<path class="st9" d="M63.91,13.58c-0.3-0.1-0.18-0.37-0.17-0.55c0.01-0.29,0.28-0.2,0.47-0.22C64.13,13.08,64.05,13.35,63.91,13.58
		z"/>
	<path class="st9" d="M24.37,66.64c0.23-0.16,0.47-0.17,0.7,0.01C24.84,66.64,24.6,66.64,24.37,66.64z"/>
	<path class="st9" d="M67.96,14.97c-0.16,0-0.3-0.05-0.38-0.2C67.73,14.79,67.87,14.84,67.96,14.97z"/>
	<path class="st9" d="M73.44,20.99c-0.01-0.02-0.03-0.04-0.04-0.06C73.43,20.94,73.46,20.95,73.44,20.99z"/>
	<path class="st9" d="M67.26,4.59c0.02-0.02,0.03-0.05,0.05-0.07C67.29,4.55,67.28,4.57,67.26,4.59z"/>
	<path class="st9" d="M20.7,13.71c-0.02,0-0.04,0.01-0.06,0.01C20.66,13.72,20.68,13.72,20.7,13.71z"/>
	<path class="st9" d="M33.89,48.48c0.33,0.6,0.58,1.24,0.8,1.89c0.3,0.86,0.69,1.69,0.99,2.56c0.22,0.65,0.38,1.32,0.46,1.99
		c0.1,0.74,0.26,1.49,0.19,2.25c-0.1,0.94-0.17,1.89-0.4,2.82c-0.25,0.99-0.63,1.92-1.06,2.83c-0.67,1.42-1.57,2.68-2.78,3.7
		c-0.89,0.75-1.88,1.33-2.98,1.75c-0.67,0.26-1.33,0.53-2.05,0.63c-0.26,0.04-0.44,0.17-0.43,0.53c0.03,1.99,0.02,3.99,0.01,5.98
		c0,0.25,0.06,0.34,0.32,0.31s0.52-0.04,0.78-0.06c-0.02,0.04-0.07,0.09-0.07,0.13c0.02,0.3-0.16,0.49-0.47,0.46
		c-0.24-0.03-0.48-0.07-0.72-0.1s-0.26-0.2-0.26-0.39c0-1.19,0-2.38,0-3.58c0-0.44,0-0.89,0-1.33c0-0.1-0.02-0.25,0.1-0.28
		c0.36-0.08,0.26-0.37,0.18-0.52c-0.19-0.38-0.29-0.74-0.25-1.17c0.02-0.25,0.1-0.33,0.31-0.32c0.36,0.02,0.71,0.06,1.07-0.01
		c0.1-0.02,0.22-0.02,0.3-0.07c0.35-0.21,0.7-0.42,1.13-0.43c0.12,0,0.21-0.09,0.27-0.2c0.13-0.26,0.36-0.34,0.63-0.31
		c0.26,0.03,0.44-0.08,0.59-0.28c0.18-0.23,0.38-0.51,0.64-0.59c0.37-0.12,0.65-0.23,0.59-0.68c0-0.02,0.02-0.05,0.03-0.05
		c0.3-0.06,0.46-0.35,0.71-0.48c0.3-0.16,0.43-0.34,0.34-0.67c-0.05-0.2,0.01-0.24,0.18-0.18c0.27,0.1,0.46-0.13,0.7-0.17
		c0.11-0.02,0.09-0.23,0.06-0.34c-0.08-0.27-0.01-0.49,0.18-0.69c0.16-0.17,0.25-0.39,0.18-0.64c-0.04-0.14,0.02-0.21,0.18-0.21
		c0.37-0.01,0.47-0.12,0.49-0.46c0.02-0.31,0-0.61,0.39-0.78c0.2-0.08,0.18-0.38,0.17-0.61c-0.02-0.27-0.14-0.58,0.3-0.65
		c0.08-0.01,0.13-0.12,0.13-0.2c0-0.3,0.19-0.58,0.09-0.89c-0.18-0.54,0.1-1.05,0.13-1.57c0.02-0.2,0.05-0.39-0.04-0.58
		c-0.06-0.12-0.11-0.26-0.09-0.4c0.13-0.74-0.12-1.46-0.07-2.19c0.01-0.2-0.06-0.37-0.26-0.47c-0.09-0.04-0.19-0.12-0.17-0.21
		c0.08-0.29-0.16-0.57-0.02-0.86c0.05-0.1,0-0.16-0.1-0.18c-0.12-0.02-0.27,0.08-0.35-0.06c-0.09-0.16-0.13-0.35-0.09-0.52
		c0.05-0.24-0.02-0.43-0.08-0.65c-0.03-0.11-0.06-0.16-0.19-0.16c-0.19,0.01-0.25-0.13-0.26-0.29c-0.01-0.15-0.01-0.3,0-0.44
		c0.01-0.22-0.06-0.38-0.19-0.57C33.87,49.42,33.68,48.97,33.89,48.48z"/>
	<path class="st9" d="M42.37,42.21c-0.12,0.65-0.4,1.26-0.63,1.87c-0.37,1.01-0.7,2.03-1.12,3.03c-0.15,0.36-0.21,0.76-0.4,1.11
		c-0.03,0.06-0.05,0.12-0.12,0.11c-0.05-0.01-0.07-0.07-0.08-0.12c-0.35-1.15-0.74-2.29-1.1-3.44c-0.4-1.27-0.78-2.55-1.23-3.81
		c-0.26-0.73-0.44-1.49-0.71-2.21c-0.37-0.98-0.61-2-0.96-2.99c-0.4-1.1-0.7-2.24-1.05-3.36c-0.11-0.36-0.23-0.71-0.3-1.08
		c0.11,0.01,0.21,0.07,0.2,0.17c-0.02,0.3,0.26,0.48,0.31,0.71c0.09,0.48,0.43,0.9,0.37,1.41c-0.01,0.07,0,0.15,0.09,0.18
		c0.17,0.04,0.12,0.04,0.13,0.19c0.04,0.34,0.02,0.68,0.13,1.01c0.01,0.03,0.06,0.08,0.09,0.08c0.43,0.04,0.36,0.36,0.36,0.64
		c0,0.38,0.03,0.74,0.4,0.96c0.11,0.06,0.1,0.2,0.11,0.32c0,0.26,0,0.53,0,0.79c0,0.16,0.04,0.32,0.22,0.34
		c0.35,0.04,0.35,0.28,0.33,0.53c-0.01,0.13-0.03,0.25,0.06,0.36c0.37,0.5,0.4,1.09,0.39,1.68c-0.01,0.23,0.02,0.41,0.25,0.56
		c0.32,0.21,0.3,0.59,0.26,0.92c-0.02,0.21,0,0.33,0.19,0.44c0.48,0.26,0.37,0.72,0.32,1.13c-0.03,0.28-0.05,0.47,0.29,0.54
		c0.11,0.02,0.24,0.12,0.22,0.24c-0.05,0.29,0.08,0.48,0.27,0.66c0.03,0.03,0.07,0.11,0.05,0.14c-0.22,0.42,0.15,0.75,0.17,1.14
		c0.01,0.14,0.04,0.27,0,0.41c-0.09,0.29,0.09,0.48,0.27,0.63c0.17,0.14,0.23-0.07,0.25-0.19c0.05-0.24,0.07-0.48,0.08-0.72
		c0.01-0.17,0.03-0.3,0.24-0.34c0.22-0.04,0.29-0.22,0.23-0.41c-0.08-0.31,0.15-0.61,0.01-0.93c-0.04-0.09,0.1-0.14,0.2-0.16
		c0.22-0.04,0.3-0.16,0.21-0.39c-0.08-0.22,0.14-0.82,0.34-0.97c0.19-0.14,0.35-0.29,0.27-0.58c-0.04-0.14-0.02-0.32,0.02-0.47
		C42.03,42.11,42.23,42.25,42.37,42.21z"/>
	<path class="st9" d="M26.79,30.24c0.14,0.06,0.14,0.2,0.18,0.32c0.38,0.99,0.73,2,1.15,2.97c0.32,0.75,0.59,1.52,0.91,2.28
		c0.22,0.51,0.4,1.04,0.6,1.55c0.27,0.7,0.55,1.4,0.83,2.1c0.22,0.54,0.42,1.1,0.62,1.65c0.16,0.42,0.34,0.82,0.51,1.24
		c0.08,0.2,0.14,0.41,0.21,0.61c0.29,0.77,0.53,1.56,0.88,2.3c0.45,0.96,0.73,1.98,1.16,2.95c0.02,0.04,0.02,0.1,0.02,0.15
		c-0.08,0-0.17,0-0.25,0c-0.4-0.01-0.45-0.08-0.27-0.42c0.11-0.22-0.03-0.74-0.25-0.82c-0.24-0.08-0.3-0.25-0.29-0.46
		c0-0.2,0.04-0.4,0.02-0.6c-0.02-0.15,0.06-0.49-0.32-0.29c-0.09,0.05-0.13-0.02-0.15-0.11c-0.02-0.1-0.06-0.21-0.05-0.31
		c0.04-0.43-0.12-0.77-0.43-1.06c-0.14-0.14-0.1-0.34-0.08-0.51c0.04-0.28-0.02-0.48-0.33-0.54c-0.29-0.06-0.21-0.3-0.17-0.46
		c0.06-0.28,0-0.42-0.29-0.47c-0.17-0.03-0.24-0.15-0.24-0.32c0.01-0.33,0.02-0.65,0.01-0.98c-0.01-0.3,0.03-0.61-0.39-0.72
		c-0.24-0.06-0.21-0.32-0.19-0.52c0.03-0.25-0.03-0.41-0.19-0.62c-0.14-0.17-0.25-0.43-0.26-0.69c0-0.1,0-0.21-0.09-0.26
		c-0.39-0.22-0.42-0.6-0.4-0.96c0.02-0.32-0.13-0.49-0.33-0.66c-0.25-0.21-0.31-0.45-0.17-0.72c0.11-0.22-0.02-0.59-0.25-0.64
		c-0.32-0.07-0.33-0.28-0.31-0.52c0.03-0.23,0.14-0.47-0.28-0.51c-0.2-0.02-0.19-0.32-0.17-0.49c0.04-0.27-0.05-0.52-0.03-0.79
		c0.01-0.13-0.05-0.22-0.19-0.25c-0.06-0.01-0.16-0.03-0.17-0.06c-0.09-0.54-0.8-0.81-0.65-1.45
		C26.79,30.84,26.66,30.53,26.79,30.24z"/>
	<path class="st9" d="M34.59,31.14c-0.33-0.66-0.46-1.38-0.71-2.06c-0.26-0.73-0.49-1.48-0.72-2.23c-0.29-0.94-0.58-1.88-0.87-2.81
		c-0.09-0.28-0.2-0.45-0.57-0.45c-2.39,0.02-4.79,0.02-7.18,0.01c-0.24,0-0.26,0.06-0.18,0.27c0.38,0.98,0.75,1.97,1.12,2.95
		c0.05,0.14,0.12,0.28,0.18,0.43c-0.38,0.36-0.38,0.35-0.62-0.16c-0.07-0.15-0.12-0.3,0.01-0.44c0.2-0.21,0.09-0.38-0.1-0.49
		c-0.18-0.11-0.2-0.24-0.19-0.42c0.01-0.17-0.01-0.34-0.02-0.5c-0.01-0.09-0.04-0.19-0.12-0.21c-0.54-0.11-0.55-0.65-0.8-0.99
		c-0.14-0.19,0.01-0.38,0.19-0.5c0.09-0.06,0.2-0.06,0.31-0.06c0.53,0,1.05,0.08,1.59-0.11c0.46-0.17,0.95,0.11,1.43,0.12
		c0.07,0,0.16,0.04,0.22,0.01c0.47-0.23,0.94-0.16,1.42-0.04c0.15,0.04,0.32,0.05,0.47,0.01c0.82-0.22,1.63-0.03,2.44,0
		c0.06,0,0.13,0,0.19-0.01c0.33-0.08,0.39-0.05,0.4,0.28c0,0.18,0.05,0.35,0.16,0.47c0.17,0.19,0.16,0.4,0.13,0.61
		c-0.05,0.32,0.09,0.55,0.34,0.67c0.19,0.09,0.25,0.21,0.26,0.39c0.01,0.17,0.01,0.34,0.01,0.51c0,0.27-0.01,0.51,0.27,0.72
		c0.23,0.17,0.15,0.54,0.15,0.81c0,0.31,0.03,0.57,0.28,0.75c0.23,0.16,0.2,0.39,0.21,0.61c0.04,0.53,0.24,1.01,0.38,1.52
		C34.69,30.9,34.72,31.03,34.59,31.14z"/>
	<path class="st9" d="M54.09,9.78c-0.24,0.8-0.61,1.56-0.85,2.36c-0.34,1.1-0.78,2.17-1.16,3.26c-0.44,1.28-0.93,2.55-1.39,3.83
		c-0.16,0.47-0.33,0.93-0.54,1.38c-0.12-0.34-0.02-0.68-0.04-1.02c-0.01-0.15,0.06-0.18,0.18-0.2c0.21-0.03,0.26-0.16,0.27-0.35
		c0.03-0.34,0.02-0.7,0.31-0.98c0.21-0.2,0.22-0.5,0.17-0.77c-0.04-0.24,0.01-0.43,0.21-0.55c0.25-0.15,0.3-0.36,0.28-0.62
		c-0.01-0.13,0.01-0.25,0-0.38c-0.01-0.2,0-0.37,0.26-0.41c0.18-0.03,0.25-0.2,0.24-0.36c-0.04-0.34,0.13-0.66,0.08-1
		c-0.01-0.05,0.01-0.11,0.04-0.15c0.3-0.35,0.43-0.77,0.46-1.22c0.01-0.15,0.11-0.23,0.23-0.28c0.19-0.07,0.24-0.23,0.24-0.4
		c0.01-0.28,0.09-0.54,0.29-0.74c0.28-0.29,0.16-0.66,0.22-0.99C53.67,9.78,53.65,9.78,54.09,9.78z"/>
	<path class="st9" d="M47.96,26.82c-0.22,0.6-0.44,1.21-0.66,1.81c-0.3,0.85-0.59,1.7-0.9,2.55c-0.08,0.22-0.2,0.43-0.3,0.64
		c-0.08-0.28-0.15-0.51,0.07-0.81c0.16-0.23,0.39-0.55,0.19-0.92c-0.12-0.22,0.08-0.48,0.2-0.54c0.37-0.19,0.37-0.55,0.46-0.85
		c0.11-0.36,0.15-0.75,0.21-1.13c0.02-0.12,0.06-0.22,0.15-0.31c0.12-0.11,0.18-0.23,0.13-0.39c-0.03-0.08-0.05-0.18,0.03-0.24
		c0.08-0.06,0.15,0.04,0.22,0.08C47.83,26.75,47.89,26.79,47.96,26.82z"/>
	<path class="st9" d="M25.66,27.24c0.14,0.25,0.25,0.51,0.32,0.79c0.15,0.53,0.41,1.02,0.6,1.53c0.06,0.16,0.14,0.31,0.14,0.48
		c-0.09,0-0.19,0-0.28,0.01c-0.21,0-0.31-0.09-0.26-0.32c0.06-0.29,0.11-0.57-0.33-0.61c-0.13-0.01-0.21-0.15-0.19-0.29
		C25.71,28.3,25.72,27.77,25.66,27.24z"/>
	<path class="st9" d="M44.03,37.66c-0.07,0.38-0.27,0.71-0.39,1.07c-0.22,0.66-0.46,1.31-0.7,1.96c-0.01-0.3-0.01-0.61-0.06-0.91
		c-0.05-0.28,0.01-0.53,0.34-0.66c0.19-0.08,0.27-0.27,0.16-0.48c-0.19-0.34,0.03-0.62,0.15-0.89
		C43.61,37.6,43.85,37.67,44.03,37.66z"/>
	<path class="st9" d="M45.49,33.62c-0.26,0.75-0.51,1.5-0.78,2.24c-0.22,0.61-0.46,1.21-0.69,1.81c-0.09-0.26,0-0.52-0.01-0.78
		c0-0.05,0.02-0.12,0.06-0.14c0.52-0.37,0.37-0.98,0.52-1.48c0.01-0.04-0.01-0.07,0.05-0.11c0.28-0.18,0.44-0.56,0.36-0.86
		c-0.02-0.1-0.01-0.18-0.01-0.28C44.99,33.65,45.2,33.59,45.49,33.62z"/>
	<path class="st9" d="M50.16,20.61c-0.33,1.07-0.68,2.14-1.14,3.17c0.03-0.64,0.04-1.27,0.42-1.84c0.14-0.21,0.11-0.47,0.06-0.71
		c-0.04-0.19,0.05-0.34,0.22-0.28c0.27,0.09,0.3-0.05,0.35-0.24C50.06,20.68,50.12,20.65,50.16,20.61z"/>
	<path class="st9" d="M55.18,6.75c-0.07,0.39-0.25,0.74-0.39,1.11c-0.23,0.59-0.42,1.2-0.63,1.8c-0.02,0.05-0.02,0.1-0.08,0.13
		c-0.06-0.44,0.09-0.85,0.13-1.28c0-0.04,0.02-0.1,0.04-0.11c0.48-0.19,0.2-0.73,0.48-1.02c0.02-0.02,0.02-0.08,0.01-0.12
		c-0.11-0.43-0.06-0.49,0.4-0.51C55.15,6.75,55.17,6.75,55.18,6.75z"/>
	<path class="st9" d="M55.98,4.59c-0.24,0.67-0.48,1.34-0.72,2c-0.02,0.06-0.06,0.11-0.09,0.16c-0.16-0.6,0.14-1.09,0.38-1.59
		c0.05-0.1,0.1-0.19,0.11-0.29C55.69,4.68,55.8,4.59,55.98,4.59z"/>
	<path class="st9" d="M46.09,31.89c-0.11,0.53-0.32,1.03-0.55,1.52c-0.11-0.14-0.07-0.3-0.07-0.45c-0.02-0.43-0.11-0.9,0.52-0.99
		C46.02,31.96,46.05,31.91,46.09,31.89z"/>
	<path class="st9" d="M42.94,40.7c-0.18,0.46-0.29,0.95-0.5,1.39c-0.08-0.26-0.01-0.52,0.03-0.77c0.02-0.14,0.09-0.27,0-0.42
		c-0.06-0.11,0.01-0.18,0.12-0.19C42.71,40.69,42.82,40.7,42.94,40.7z"/>
	<path class="st9" d="M48.95,23.97c-0.08,0.36-0.17,0.71-0.38,1.02c-0.04-0.22-0.06-0.42-0.03-0.65
		C48.58,24.07,48.71,23.98,48.95,23.97z"/>
	<path class="st9" d="M48.58,24.99c-0.06,0.31-0.18,0.61-0.32,0.89c-0.02-0.06-0.02-0.12-0.05-0.18
		C48.05,25.28,48.14,25.1,48.58,24.99z"/>
	<path class="st9" d="M70.59,17.24c0,0.09-0.05,0.12-0.12,0.13c-0.09,0-0.15-0.04-0.15-0.13c0-0.08,0.04-0.15,0.13-0.14
		C70.54,17.1,70.57,17.17,70.59,17.24z"/>
	<path class="st9" d="M41.91,66.25c-0.01,0.05-0.02,0.11-0.08,0.11s-0.08-0.06-0.08-0.11c0-0.06,0.02-0.11,0.08-0.11
		S41.9,66.2,41.91,66.25z"/>
	<path class="st9" d="M48.11,26.31c0.01,0.18-0.08,0.34-0.15,0.5C47.94,26.62,47.9,26.43,48.11,26.31z"/>
	<path class="st9" d="M44.84,59.59c-0.09-0.12-0.07-0.19-0.02-0.3C44.91,59.4,44.9,59.47,44.84,59.59z"/>
	<path class="st9" d="M28.91,37.34c0-0.01,0.01-0.02,0.01-0.02c0.01,0,0.02,0.01,0.02,0.01c0,0.01-0.01,0.02-0.01,0.02
		S28.92,37.35,28.91,37.34z"/>
	<path class="st9" d="M48.18,26.06c0,0.07,0.04,0.15-0.05,0.2C48.15,26.19,48.17,26.12,48.18,26.06z"/>
	<path class="st9" d="M26.72,30.04c0.07,0.03,0.06,0.08,0.05,0.13C26.75,30.13,26.74,30.09,26.72,30.04z"/>
	<path class="st9" d="M45.52,33.53c-0.01,0.03-0.02,0.06-0.03,0.09C45.5,33.59,45.51,33.56,45.52,33.53z"/>
	<path class="st9" d="M49.01,23.91c0.01,0.04-0.02,0.06-0.05,0.07C48.97,23.95,48.99,23.93,49.01,23.91z"/>
	<path class="st9" d="M48.25,25.93c0.01,0.04-0.02,0.06-0.05,0.08C48.21,25.98,48.23,25.96,48.25,25.93z"/>
	<path class="st9" d="M51.71,9.95c-0.02,0.01-0.03,0.02-0.05,0.03c0-0.02-0.02-0.04-0.02-0.05s0.03-0.02,0.04-0.03
		C51.69,9.92,51.7,9.93,51.71,9.95z"/>
	<path class="st9" d="M66.18,7.5c-0.02-0.01-0.05-0.03-0.07-0.04c0.01-0.01,0.02-0.02,0.03-0.03C66.15,7.45,66.17,7.48,66.18,7.5
		L66.18,7.5z"/>
	<path class="st9" d="M52.14,38.16c0.08,0.01,0.15,0.04,0.12,0.14c-0.01,0.05-0.02,0.12-0.09,0.1c-0.03-0.01-0.04-0.07-0.06-0.1
		C52.12,38.25,52.13,38.2,52.14,38.16z"/>
	<path class="st2" d="M54.06,1.95h14.38l-4.53,11.63L46.57,59.29c0,0-3.9,13.68-12.7,17.51c-5.39,2.34-10.1,1.47-10.1,1.47V66.66
		l3.74-0.11c0.75-0.02,1.49-0.24,2.13-0.64c1.2-0.75,2.96-2.3,3.81-5.17c1.35-4.57-0.52-10.5-1.57-12.26
		c-1.05-1.76-9.82-26.28-9.82-26.28l11.32,0.25l6.45,20.37L54.06,1.95z"/>
	<path d="M42.23,42.27c0.07-0.02,0.08-0.07,0.07-0.12c0.21-0.45,0.32-0.94,0.5-1.39l0,0c0.23-0.65,0.47-1.3,0.7-1.96
		c0.12-0.36,0.33-0.69,0.39-1.07l0,0c0.23-0.6,0.47-1.2,0.69-1.81c0.27-0.74,0.52-1.49,0.78-2.24h-0.01
		c0.01-0.03,0.02-0.06,0.03-0.09c0.01-0.04,0.01-0.08,0.02-0.12c0.22-0.49,0.44-0.99,0.55-1.52c0.01-0.02,0.02-0.03,0.02-0.06
		c0.1-0.21,0.22-0.42,0.3-0.64c0.31-0.85,0.6-1.7,0.9-2.55c0.22-0.61,0.44-1.21,0.66-1.81v-0.01c0.07-0.16,0.16-0.31,0.15-0.5
		c0.01-0.02,0.02-0.04,0.02-0.06c0.1-0.04,0.05-0.13,0.05-0.2c0.01-0.02,0.02-0.03,0.01-0.05c0.04-0.01,0.06-0.03,0.05-0.08
		c0.01-0.02,0.01-0.04,0.01-0.06c0.14-0.29,0.26-0.58,0.32-0.89l0,0c0.21-0.31,0.3-0.66,0.38-1.02l0,0
		c0.03-0.01,0.06-0.02,0.05-0.07c0-0.04,0.01-0.08,0.01-0.12c0.46-1.03,0.81-2.1,1.14-3.17l0,0c0.21-0.45,0.37-0.91,0.54-1.38
		c0.45-1.28,0.94-2.55,1.39-3.83c0.38-1.09,0.82-2.16,1.16-3.26c0.24-0.8,0.61-1.56,0.85-2.36l0,0c0.06-0.02,0.06-0.08,0.08-0.13
		c0.21-0.6,0.4-1.21,0.63-1.8c0.14-0.37,0.32-0.72,0.39-1.11l0,0c0.03-0.05,0.07-0.1,0.09-0.16c0.24-0.67,0.48-1.34,0.72-2l0,0
		c2.88,0,5.77,0,8.7,0c-0.45,0.95-0.71,1.91-1.09,2.82c-0.41,0.99-0.74,2.01-1.11,3.01c-0.41,1.1-0.82,2.2-1.23,3.3
		c-0.43,1.16-0.86,2.33-1.3,3.49c-0.32,0.85-0.64,1.71-0.96,2.56c-0.33,0.88-0.67,1.77-1,2.65c-0.3,0.81-0.56,1.63-0.9,2.43
		c-0.31,0.73-0.56,1.49-0.85,2.23c-0.57,1.45-1.08,2.93-1.62,4.39c-0.28,0.76-0.58,1.51-0.86,2.27c-0.38,1.03-0.77,2.06-1.14,3.09
		c-0.16,0.45-0.4,0.86-0.49,1.33c-0.01,0.05-0.02,0.09-0.03,0.14c-0.17,0.38-0.35,0.75-0.49,1.14c-0.22,0.6-0.42,1.22-0.63,1.83
		c-0.01,0.03-0.01,0.06-0.02,0.09c-0.36,0.85-0.68,1.72-1,2.59c-0.36,0.98-0.75,1.96-1.12,2.94c-0.51,1.37-1,2.75-1.54,4.11
		c-0.33,0.84-0.6,1.7-0.95,2.54c-0.36,0.87-0.66,1.76-0.98,2.65c-0.37,1.02-0.77,2.03-1.17,3.04c-0.44,1.13-0.91,2.25-1.44,3.35
		c-0.4,0.82-0.81,1.63-1.21,2.45c-0.46,0.94-1.04,1.82-1.61,2.7c-0.63,0.98-1.33,1.91-2.12,2.75c-0.57,0.61-1.15,1.21-1.79,1.75
		c-1.08,0.91-2.25,1.65-3.53,2.22c-0.77,0.34-1.57,0.65-2.41,0.81c-0.73,0.14-1.46,0.28-2.18,0.42c-0.06,0-0.13,0.01-0.19,0.01
		c-0.26,0.02-0.52,0.02-0.78,0.06c-0.25,0.03-0.32-0.06-0.32-0.31c0.01-1.99,0.02-3.99-0.01-5.98c-0.01-0.37,0.17-0.5,0.43-0.53
		c0.72-0.1,1.38-0.38,2.05-0.63c1.1-0.42,2.09-1,2.98-1.75c1.2-1.02,2.11-2.28,2.78-3.7c0.43-0.91,0.81-1.84,1.06-2.83
		c0.23-0.93,0.3-1.88,0.4-2.82c0.08-0.76-0.09-1.5-0.19-2.25c-0.09-0.67-0.24-1.35-0.46-1.99c-0.3-0.86-0.69-1.69-0.99-2.56
		c-0.22-0.64-0.47-1.28-0.8-1.89c-0.01-0.04-0.01-0.08-0.02-0.12c-0.01-0.05,0-0.11-0.02-0.15c-0.43-0.96-0.72-1.98-1.16-2.95
		c-0.35-0.74-0.59-1.53-0.88-2.3c-0.08-0.2-0.13-0.41-0.21-0.61c-0.17-0.41-0.35-0.82-0.51-1.24c-0.21-0.55-0.41-1.11-0.62-1.65
		c-0.28-0.7-0.56-1.4-0.83-2.1c-0.2-0.52-0.38-1.05-0.6-1.55c-0.32-0.75-0.59-1.52-0.91-2.28c-0.42-0.98-0.76-1.98-1.15-2.97
		c-0.04-0.11-0.04-0.26-0.18-0.32c-0.01-0.02-0.01-0.04-0.02-0.06c0.01-0.05,0.03-0.11-0.05-0.13l0,0c0.01-0.18-0.08-0.33-0.14-0.48
		c-0.2-0.51-0.45-1-0.6-1.53c-0.08-0.28-0.18-0.54-0.32-0.79l0,0c-0.06-0.14-0.12-0.28-0.18-0.43c-0.38-0.98-0.75-1.97-1.12-2.95
		c-0.08-0.2-0.06-0.27,0.18-0.27c2.39,0.01,4.79,0.02,7.18-0.01c0.37,0,0.48,0.18,0.57,0.45c0.29,0.94,0.58,1.88,0.87,2.81
		c0.23,0.74,0.46,1.49,0.72,2.23c0.25,0.69,0.37,1.41,0.71,2.06c-0.03,0.08,0.01,0.14,0.06,0.19c0.07,0.37,0.19,0.72,0.3,1.08
		c0.35,1.12,0.65,2.25,1.05,3.36c0.36,0.98,0.59,2.01,0.96,2.99c0.27,0.72,0.45,1.48,0.71,2.21c0.45,1.26,0.83,2.54,1.23,3.81
		c0.36,1.15,0.75,2.29,1.1,3.44c0.02,0.05,0.03,0.11,0.08,0.12c0.07,0.01,0.09-0.05,0.12-0.11c0.19-0.35,0.25-0.75,0.4-1.11
		c0.42-0.99,0.75-2.02,1.12-3.03C41.83,43.53,42.11,42.93,42.23,42.27z"/>
</g>
</svg>
