<?xml version="1.0" encoding="utf-8"?>
<!-- Generator: Adobe Illustrator 27.7.0, SVG Export Plug-In . SVG Version: 6.00 Build 0)  -->
<svg version="1.1" id="Layer_1" xmlns="http://www.w3.org/2000/svg" xmlns:xlink="http://www.w3.org/1999/xlink" x="0px" y="0px"
	 viewBox="0 0 80 80" style="enable-background:new 0 0 80 80;" xml:space="preserve">
<style type="text/css">
	.st0{fill:#101010;}
	.st1{fill:#FF0000;}
	.st2{fill:#FFFFFF;}
	.st3{fill-rule:evenodd;clip-rule:evenodd;}
	.st4{fill:#A72369;}
	.st5{fill-rule:evenodd;clip-rule:evenodd;fill:#FF0000;}
	.st6{fill:#FFFDFD;}
	.st7{fill:#FF0000;stroke:#FF0000;stroke-width:1.0698;stroke-miterlimit:10;}
	.st8{fill:#353535;}
	.st9{fill:#A4286A;}
</style>
<path class="st8" d="M54.08,37.92c0-8.57,0.09-17.16-0.06-25.73c-0.06-3.78,1.36-6.57,4.33-8.72c0.54-0.39,1.24-0.51,1.82-0.67
	c3.39-0.91,6.48-0.39,8.96,2.42c1.09,1.24,1.88,2.66,2.24,4.21c0.15,0.67,0.12,1.57,0.12,2.39c0,17.5,0,35-0.03,52.49
	c0,2.45-0.21,4.93-1.48,7.14c-0.27,0.48-0.76,0.88-1.18,1.24c-1.73,1.54-3.72,2.51-6.08,2.51c-3.09,0-5.3-1.48-7.05-3.91
	c-1.39-1.91-1.63-4.06-1.57-6.33c0.06-3.24,0-6.45,0-9.69C54.08,49.52,54.08,43.7,54.08,37.92z"/>
<path d="M31.25,52.18c0-4.75-0.03-9.51,0-14.26c0-1.7,0.88-3.12,1.85-4.45c2.66-3.72,7.96-4.24,11.41-2.15
	c2.18,1.3,3.48,3.24,3.78,5.96c0.94,9.14,0.12,18.28,0.42,27.43c0.06,2.24-0.33,4.42-1.45,6.33c-0.94,1.57-2.18,2.97-4.18,3.36
	c-0.58,0.12-1.06,0.51-1.7,0.61c-2.48,0.39-4.81-0.15-6.69-1.6c-1.12-0.88-2.15-2.12-2.69-3.69c-0.73-2.06-0.7-4.12-0.7-6.21
	c0-3.78,0-7.57,0-11.35C31.28,52.18,31.28,52.18,31.25,52.18z"/>
<path d="M8.55,66.38c-0.27-4.63,4-8.36,7.57-8.57c2.79-0.18,5.54,0.42,7.57,2.75c1.24,1.42,2.24,3.12,2.3,4.81
	c0.15,5.75-3.87,9.78-9.14,9.84C13.36,75.22,8.03,71.68,8.55,66.38z"/>
</svg>
