<?xml version="1.0" encoding="utf-8"?>
<!-- Generator: Adobe Illustrator 27.7.0, SVG Export Plug-In . SVG Version: 6.00 Build 0)  -->
<svg version="1.1" id="Layer_1" xmlns="http://www.w3.org/2000/svg" xmlns:xlink="http://www.w3.org/1999/xlink" x="0px" y="0px"
	 viewBox="0 0 80 80" style="enable-background:new 0 0 80 80;" xml:space="preserve">
<style type="text/css">
	.st0{fill:#101010;}
	.st1{fill:#FF0000;}
	.st2{fill:#FFFFFF;}
	.st3{fill-rule:evenodd;clip-rule:evenodd;}
	.st4{fill:#A72369;}
	.st5{fill-rule:evenodd;clip-rule:evenodd;fill:#FF0000;}
	.st6{fill:#FFFDFD;}
	.st7{fill:#FF0000;stroke:#FF0000;stroke-width:1.0698;stroke-miterlimit:10;}
	.st8{fill:#353535;}
	.st9{fill:#A4286A;}
</style>
<path d="M74.72,29.81c-2-5.22-4.96-9.78-9.64-13.03c-5.1-3.55-10.85-3.74-15.83-0.49c-3.18,2.08-5.7,4.85-7.83,7.97
	c-0.5,0.11-0.84-0.18-1.03-0.55c-0.74-1.39-1.91-2.41-2.98-3.51c-3.88-3.98-8.4-6.29-14.19-6.02c-2.97,0.14-5.54,1.01-7.82,2.7
	C8.09,22.33,4.8,30.07,3.31,38.77h0c-1.05,5.41-1.28,10.81,0.61,16.1c1.21,3.4,3.33,6.07,6.71,7.58c5.05,2.26,10.73,1.26,14.86-2.66
	c3.69-3.5,6.26-7.83,8.81-12.15c2-3.39,3.96-6.8,5.93-10.21c0.78,1.28,1.56,2.56,2.34,3.83c3.12,5.1,5.96,10.39,9.65,15.13
	c1.7,2.18,3.5,4.28,6.06,5.54l0,0c3.12,1.89,6.5,2.07,9.91,1.21c5.09-1.29,7.64-5.09,8.74-9.88C78.77,45.24,77.64,37.41,74.72,29.81
	z M29.06,42.74c-1.87,2.87-3.69,5.76-5.81,8.46c-0.96,1.22-1.97,2.4-3.27,3.27c-3.24,2.19-7,1.03-8.44-2.59
	c-1.11-2.8-0.95-5.71-0.7-8.61c0.12-1.4,0.35-2.79,0.52-4.19c0,0,0,0,0,0c0.88-3.65,1.98-7.22,3.95-10.46
	c1.03-1.7,2.2-3.27,3.75-4.53c2.94-2.39,6.3-2.72,9.54-0.74c3.35,2.04,5.68,5.09,7.72,8.37C33.72,35.28,31.46,39.06,29.06,42.74z
	 M70.48,49.08c-0.03,0.47-0.11,0.93-0.22,1.39c-1.1,4.84-4.57,6.37-8.83,3.9c-3.62-3.56-6.01-7.99-8.69-12.21
	c-2.58-4.07-4.92-8.29-7.63-12.27c-0.12-0.18-0.13-0.43-0.19-0.64c1.48-1.88,2.77-3.9,4.47-5.6c4.32-4.31,9.27-4.36,13.61-0.06
	c2.14,2.11,3.62,4.66,4.72,7.43C70.04,36.82,70.93,42.85,70.48,49.08z"/>
</svg>
