<?xml version="1.0" encoding="utf-8"?>
<!-- Generator: Adobe Illustrator 27.8.0, SVG Export Plug-In . SVG Version: 6.00 Build 0)  -->
<svg version="1.1" id="Layer_1" xmlns="http://www.w3.org/2000/svg" xmlns:xlink="http://www.w3.org/1999/xlink" x="0px" y="0px"
	 viewBox="0 0 23.2 28.1" style="enable-background:new 0 0 23.2 28.1;" xml:space="preserve">
<style type="text/css">
	.st0{fill-rule:evenodd;clip-rule:evenodd;fill:#FF0000;}
</style>
<path class="st0" d="M19.2,4c-2.1-2.1-4.9-3.2-7.7-3.2S5.9,1.9,3.7,4c-4.3,4.3-4.3,11.2,0,15.5l7.7,7.7l7.7-7.7
	c2.1-2.1,3.2-4.9,3.2-7.7S21.4,6.2,19.2,4z M15.8,12c-0.5,2.4-2.8,4-5.2,3.5c-2.4-0.5-4-2.8-3.5-5.2c0.5-2.4,2.8-4,5.2-3.5
	C14.8,7.3,16.3,9.6,15.8,12z"/>
</svg>
