<?xml version="1.0" encoding="UTF-8"?>
<svg id="Layer_1" data-name="Layer 1" xmlns="http://www.w3.org/2000/svg" viewBox="0 0 744.8 239.7">
  <defs>
    <style>
      .cls-1 {
        fill: #e20001;
      }
    </style>
  </defs>
  <g>
    <path class="cls-1" d="m3.3,236.8h6.6c1.8,0,3.3-1.5,3.3-3.3v-119.9l.5-1L62.3,31.8c1.3-2.2-.3-5-2.8-5H3.4c-1.8,0-3.3,1.5-3.3,3.3v15.6c0,3.3,4.3,4.5,6.1,1.7l3.7-6.1c.6-1,1.7-1.6,2.8-1.6h23.7c2.6,0,4.1,2.8,2.8,5L.5,108.8c-.3.5-.5,1.1-.5,1.7v123c0,1.8,1.5,3.3,3.3,3.3Z"/>
    <path class="cls-1" d="m68.9,236.7h7.8c1.1,0,2.2-.6,2.8-1.6l12.4-20.3c1.7-2.8,6.1-1.6,6.1,1.7v16.9c0,1.8,1.5,3.3,3.3,3.3h6.6c1.8,0,3.3-1.5,3.3-3.3V87.8c0-.6.2-1.2.5-1.7l32.4-54.3c1.3-2.2-.3-5-2.8-5h-7.8c-1.1,0-2.2.6-2.8,1.6l-13.3,21.9c-1.7,2.8-6.1,1.6-6.1-1.7v-18.5c0-1.8-1.5-3.3-3.3-3.3h-6.6c-1.8,0-3.3,1.5-3.3,3.3v147.3c0,.6-.2,1.2-.5,1.7l-31.4,52.7c-1.5,2.2.1,4.9,2.7,4.9Z"/>
    <path class="cls-1" d="m76,37L28,117c-.3.5-.5,1.1-.5,1.7v11.3c0,3.3,4.4,4.5,6.1,1.7l29.3-48.4c1.7-2.8,6.1-1.6,6.1,1.7v24.3c0,.6-.2,1.2-.5,1.7l-40.4,65.6c-.3.5-.5,1.1-.5,1.7v55.1c0,1.8,1.5,3.3,3.3,3.3h10.3c1.2,0,2.2-.6,2.8-1.6l37.7-62.7c.3-.5.5-1.1.5-1.7V38.6c-.1-3.2-4.5-4.4-6.2-1.6Zm-7.1,129.3c0,.6-.2,1.3-.5,1.8l-.7,1.1-20.8,34.2c-1.7,2.8-6.1,1.6-6.1-1.7v-19.7c0-.6.2-1.2.5-1.7l21.7-36c1.7-2.8,6.1-1.6,6.1,1.7l-.2,20.3Z"/>
    <path class="cls-1" d="m206.6,26.9h-6.6c-1.8,0-3.3,1.5-3.3,3.3v119.9l-.5.9-48.6,80.8c-1.3,2.2.3,5,2.8,5h56.1c1.8,0,3.3-1.5,3.3-3.3v-15.6c0-3.3-4.3-4.5-6.1-1.7l-3.7,6.1c-.6,1-1.7,1.6-2.8,1.6h-23.7c-2.6,0-4.1-2.8-2.8-5l38.7-64c.3-.5.5-1.1.5-1.7V30.2c0-1.9-1.5-3.3-3.3-3.3Z"/>
    <path class="cls-1" d="m133.2,226.6l48-80c.3-.5.5-1.1.5-1.7v-11.3c0-3.3-4.4-4.5-6.1-1.7l-29.3,48.4c-1.7,2.8-6.1,1.6-6.1-1.7v-24.3c0-.6.2-1.2.5-1.7l40.4-65.7c.3-.5.5-1.1.5-1.7V30.1c0-1.8-1.5-3.3-3.3-3.3h-10.3c-1.2,0-2.2.6-2.8,1.6l-37.7,62.7c-.3.5-.5,1.1-.5,1.7v132.1c.1,3.3,4.5,4.6,6.2,1.7Zm7-129.3c0-.6.2-1.3.5-1.8l.7-1.1,20.9-34.3c1.7-2.8,6.1-1.6,6.1,1.7v19.7c0,.6-.2,1.2-.5,1.7l-21.7,36c-1.7,2.8-6.1,1.6-6.1-1.7l.1-20.2Z"/>
  </g>
  <g>
    <path class="cls-1" d="m247.7,141.6V27.6h15.8v13.4h1.3c.9-1.7,2.3-3.7,4-6,1.8-2.3,4.2-4.3,7.3-6,3.1-1.7,7.3-2.6,12.4-2.6,6.7,0,12.7,1.7,17.9,5.1,5.3,3.4,9.4,8.3,12.4,14.6s4.5,14,4.5,23-1.5,16.6-4.5,23-7.1,11.3-12.3,14.7c-5.2,3.4-11.2,5.2-17.9,5.2-5,0-9.1-.8-12.3-2.5-3.2-1.7-5.7-3.7-7.5-5.9-1.8-2.3-3.2-4.3-4.2-6h-1v44h-15.9Zm15.9-72.5c0,5.8.8,10.9,2.5,15.3,1.7,4.4,4.1,7.8,7.3,10.3,3.2,2.5,7.1,3.7,11.8,3.7s8.9-1.3,12.1-3.9,5.7-6.1,7.4-10.5c1.7-4.4,2.5-9.4,2.5-14.9s-.8-10.4-2.5-14.7c-1.6-4.4-4.1-7.8-7.3-10.3-3.3-2.5-7.3-3.8-12.2-3.8s-8.6,1.2-11.8,3.6c-3.2,2.4-5.7,5.8-7.3,10.1-1.7,4.3-2.5,9.4-2.5,15.1Z"/>
    <path class="cls-1" d="m355.8,112.4c-5.3,0-10-1-14.2-2.9s-7.6-4.8-10.1-8.6c-2.5-3.7-3.7-8.3-3.7-13.8,0-4.7.9-8.5,2.7-11.5s4.2-5.4,7.3-7.2c3.1-1.8,6.5-3.1,10.3-4,3.8-.9,7.6-1.6,11.5-2.1,5-.6,9-1.1,12.1-1.4,3.1-.4,5.3-1,6.7-1.9s2.1-2.3,2.1-4.2v-.4c0-4.7-1.3-8.4-4-11-2.6-2.6-6.6-3.9-11.8-3.9s-9.7,1.2-12.8,3.6c-3.1,2.4-5.3,5-6.4,8l-15.2-3.5c1.8-5,4.4-9.1,7.9-12.2,3.5-3.1,7.5-5.4,12-6.8,4.5-1.4,9.3-2.1,14.3-2.1,3.3,0,6.8.4,10.5,1.2s7.2,2.2,10.5,4.2c3.3,2.1,5.9,5,8,8.8s3.1,8.7,3.1,14.8v55h-15.8v-11.3h-.6c-1,2.1-2.6,4.1-4.7,6.2-2.1,2-4.8,3.7-8,5s-7.2,2-11.7,2Zm3.5-13c4.5,0,8.3-.9,11.5-2.6,3.2-1.8,5.6-4.1,7.3-6.9,1.7-2.9,2.5-5.9,2.5-9.2v-10.7c-.6.6-1.7,1.1-3.3,1.6s-3.5.9-5.6,1.2-4.1.6-6.1.9c-2,.3-3.6.5-5,.7-3.1.4-6,1.1-8.6,2s-4.6,2.3-6.2,4c-1.5,1.7-2.3,4.1-2.3,6.9,0,4,1.5,7,4.4,9,3.1,2.1,6.8,3.1,11.4,3.1Z"/>
    <path class="cls-1" d="m408.3,110.6V27.7h15.6v13.2h.9c1.5-4.5,4.2-8,8-10.5,3.8-2.6,8.2-3.9,13-3.9,1,0,2.2,0,3.6.1,1.4.1,2.5.2,3.3.3v15.4c-.6-.2-1.8-.4-3.5-.6-1.7-.2-3.3-.4-5-.4-3.8,0-7.2.8-10.2,2.4-3,1.6-5.3,3.8-7,6.6s-2.6,6-2.6,9.6v50.6h-16.1v.1Z"/>
    <path class="cls-1" d="m489.5,112.2c-8.2,0-15.2-1.8-21.1-5.3-5.9-3.5-10.4-8.5-13.6-14.8-3.2-6.4-4.8-13.9-4.8-22.5s1.6-16,4.8-22.4c3.2-6.5,7.6-11.5,13.4-15.2,5.7-3.6,12.5-5.5,20.2-5.5,4.7,0,9.2.8,13.6,2.3,4.4,1.5,8.3,4,11.8,7.3s6.2,7.6,8.3,12.9c2,5.3,3,11.7,3,19.2v5.7h-65.9v-12h50.1c0-4.2-.9-8-2.6-11.3-1.7-3.3-4.1-5.9-7.3-7.8-3.1-1.9-6.8-2.9-10.9-2.9-4.5,0-8.5,1.1-11.8,3.3-3.4,2.2-6,5.1-7.8,8.6s-2.7,7.4-2.7,11.5v9.4c0,5.5,1,10.3,2.9,14.1,2,3.9,4.7,6.8,8.2,8.9,3.5,2,7.6,3,12.4,3,3.1,0,5.8-.4,8.4-1.3,2.5-.9,4.7-2.2,6.5-4s3.2-3.9,4.2-6.5l15.3,2.8c-1.2,4.5-3.4,8.4-6.6,11.8-3.1,3.4-7.1,6-11.8,7.8-4.8,2-10.2,2.9-16.2,2.9Z"/>
    <path class="cls-1" d="m549.3,0v110.5h-16.1V0h16.1Z"/>
    <path class="cls-1" d="m282.7,239.6c-8,0-14.9-1.8-20.7-5.5-5.8-3.7-10.2-8.7-13.3-15.1-3.1-6.4-4.6-13.8-4.6-22.1s1.6-15.9,4.7-22.3c3.2-6.5,7.6-11.5,13.4-15.1s12.5-5.5,20.3-5.5c6.3,0,11.9,1.2,16.8,3.5s8.9,5.6,12,9.7c3,4.2,4.8,9,5.4,14.6h-15.7c-.9-3.9-2.8-7.2-5.9-10s-7.2-4.2-12.3-4.2c-4.5,0-8.4,1.2-11.8,3.5-3.4,2.4-6,5.7-7.9,10s-2.8,9.5-2.8,15.4.9,11.3,2.8,15.6c1.8,4.4,4.4,7.8,7.8,10.2,3.4,2.4,7.3,3.6,11.9,3.6,3.1,0,5.8-.6,8.3-1.7s4.6-2.8,6.3-4.9c1.7-2.1,2.9-4.7,3.6-7.7h15.7c-.6,5.4-2.3,10.1-5.2,14.4s-6.8,7.5-11.7,9.9c-4.9,2.5-10.6,3.7-17.1,3.7Z"/>
    <path class="cls-1" d="m324.1,237.9v-82.9h15.6v13.2h.9c1.5-4.5,4.2-8,8-10.6s8.2-3.9,13-3.9c1,0,2.2,0,3.6.1,1.4.1,2.5.2,3.3.3v15.4c-.6-.2-1.8-.4-3.5-.6s-3.3-.4-5-.4c-3.8,0-7.2.8-10.2,2.4s-5.3,3.8-7,6.6c-1.7,2.8-2.6,6-2.6,9.6v50.8h-16.1Z"/>
    <path class="cls-1" d="m405.4,239.6c-8.2,0-15.2-1.8-21.1-5.3s-10.4-8.5-13.6-14.8c-3.2-6.4-4.8-13.9-4.8-22.5s1.6-16,4.8-22.4c3.2-6.5,7.6-11.5,13.4-15.2,5.7-3.6,12.5-5.5,20.2-5.5,4.7,0,9.2.8,13.6,2.3,4.4,1.5,8.3,4,11.8,7.3s6.2,7.6,8.3,12.9,3,11.7,3,19.2v5.7h-65.9v-12.1h50.1c0-4.2-.9-8-2.6-11.3-1.7-3.3-4.1-5.9-7.3-7.8-3.1-1.9-6.8-2.9-10.9-2.9-4.5,0-8.5,1.1-11.8,3.3-3.4,2.2-6,5.1-7.8,8.6s-2.7,7.4-2.7,11.5v9.4c0,5.5,1,10.3,2.9,14.1,2,3.9,4.7,6.8,8.2,8.9,3.5,2,7.6,3,12.4,3,3.1,0,5.8-.4,8.4-1.3,2.5-.9,4.7-2.2,6.5-4s3.2-3.9,4.2-6.5l15.3,2.8c-1.2,4.5-3.4,8.4-6.6,11.8-3.1,3.4-7.1,6-11.8,7.8s-10.2,3-16.2,3Z"/>
    <path class="cls-1" d="m473.1,239.7c-5.3,0-10-1-14.2-2.9-4.2-2-7.6-4.8-10.1-8.6-2.5-3.7-3.7-8.3-3.7-13.8,0-4.7.9-8.5,2.7-11.5s4.2-5.4,7.3-7.2,6.5-3.1,10.3-4,7.6-1.6,11.5-2.1c5-.6,9-1.1,12.1-1.4,3.1-.4,5.3-1,6.7-1.9s2.1-2.3,2.1-4.2v-.4c0-4.7-1.3-8.4-4-11-2.6-2.6-6.6-3.9-11.8-3.9s-9.7,1.2-12.8,3.6-5.3,5-6.4,8l-15.2-3.5c1.8-5,4.4-9.1,7.9-12.2s7.5-5.4,12-6.8,9.3-2.1,14.3-2.1c3.3,0,6.8.4,10.5,1.2,3.7.8,7.2,2.2,10.5,4.2,3.3,2.1,5.9,5,8,8.8s3.1,8.7,3.1,14.8v55h-15.8v-11.3h-.6c-1,2.1-2.6,4.1-4.7,6.2-2.1,2-4.8,3.7-8,5-3.2,1.4-7.1,2-11.7,2Zm3.5-12.9c4.5,0,8.3-.9,11.5-2.6s5.6-4.1,7.3-6.9c1.7-2.9,2.5-5.9,2.5-9.2v-10.7c-.6.6-1.7,1.1-3.3,1.6s-3.5.9-5.6,1.2c-2.1.3-4.1.6-6.1.9s-3.6.5-5,.7c-3.1.4-6,1.1-8.6,2s-4.6,2.3-6.2,4c-1.5,1.7-2.3,4.1-2.3,6.9,0,4,1.5,7,4.4,9s6.9,3.1,11.4,3.1Z"/>
    <path class="cls-1" d="m564.3,155v13h-45.3v-13h45.3Zm-33.1-19.8h16.1v78.4c0,3.1.5,5.5,1.4,7,.9,1.6,2.1,2.6,3.6,3.2s3.1.8,4.9.8c1.3,0,2.4-.1,3.4-.3,1-.2,1.7-.3,2.3-.4l2.9,13.3c-.9.4-2.3.7-4,1.1s-3.9.6-6.5.6c-4.2.1-8.2-.7-11.9-2.3-3.7-1.6-6.6-4-8.9-7.3-2.3-3.3-3.4-7.5-3.4-12.5v-81.6h.1Z"/>
    <path class="cls-1" d="m580.4,142.2c-2.8,0-5.2-.9-7.2-2.8s-3-4.1-3-6.8,1-4.9,3-6.8,4.4-2.8,7.2-2.8,5.2.9,7.2,2.8,3,4.1,3,6.8-1,4.9-3,6.8-4.4,2.8-7.2,2.8Zm-8.1,95.7v-82.9h16.1v82.9h-16.1Z"/>
    <path class="cls-1" d="m671.1,155l-30,82.9h-17.3l-30.1-82.9h17.3l21,63.8h.9l20.9-63.8h17.3Z"/>
    <path class="cls-1" d="m709.2,239.6c-8.2,0-15.2-1.8-21.1-5.3s-10.4-8.5-13.6-14.8c-3.2-6.4-4.8-13.9-4.8-22.5s1.6-16,4.8-22.4c3.2-6.5,7.6-11.5,13.4-15.2,5.7-3.6,12.5-5.5,20.2-5.5,4.7,0,9.2.8,13.6,2.3,4.4,1.5,8.3,4,11.8,7.3s6.2,7.6,8.3,12.9,3,11.7,3,19.2v5.7h-65.9v-12.1h50.1c0-4.2-.9-8-2.6-11.3-1.7-3.3-4.1-5.9-7.3-7.8-3.1-1.9-6.8-2.9-10.9-2.9-4.5,0-8.5,1.1-11.8,3.3-3.4,2.2-6,5.1-7.8,8.6s-2.7,7.4-2.7,11.5v9.4c0,5.5,1,10.3,2.9,14.1,2,3.9,4.7,6.8,8.2,8.9,3.5,2,7.6,3,12.4,3,3.1,0,5.8-.4,8.4-1.3,2.5-.9,4.7-2.2,6.5-4s3.2-3.9,4.2-6.5l15.3,2.8c-1.2,4.5-3.4,8.4-6.6,11.8-3.1,3.4-7.1,6-11.8,7.8s-10.1,3-16.2,3Z"/>
  </g>
</svg>